<svg width="44" height="44" viewBox="0 0 44 44" fill="none" xmlns="http://www.w3.org/2000/svg">
<path d="M43.3737 13.2312C43.0278 13.2312 42.7475 13.5115 42.7475 13.8574V39.0877C42.7475 39.4203 42.4769 39.6909 42.1443 39.6909H25.0607C24.7148 39.6909 24.4344 39.9712 24.4344 40.3171C24.4344 40.6629 24.7148 40.9433 25.0607 40.9433H42.1444C43.1676 40.9433 44 40.1109 44 39.0878V13.8574C44 13.5116 43.7196 13.2312 43.3737 13.2312Z" fill="#EE2E24"/>
<path d="M42.1444 0.545898H1.85556C0.832389 0.545898 0 1.37829 0 2.40146V39.0876C0 40.1108 0.832389 40.9431 1.85556 40.9431H3.49232C3.83822 40.9431 4.11855 40.6628 4.11855 40.3169C4.11855 39.9711 3.83822 39.6907 3.49232 39.6907H1.85556C1.52298 39.6907 1.25236 39.4201 1.25236 39.0875V2.40146C1.25236 2.06888 1.52298 1.79826 1.85556 1.79826H42.1444C42.4769 1.79826 42.7476 2.06888 42.7476 2.40146V9.93275C42.7476 10.2786 43.0279 10.559 43.3738 10.559C43.7197 10.559 44 10.2786 44 9.93275V2.40146C43.9999 1.37829 43.1675 0.545898 42.1444 0.545898Z" fill="#EE2E24"/>
<path d="M24.6835 26.9254C24.6835 25.9734 23.9092 25.199 22.9572 25.199H22.7188H5.21358C4.26165 25.199 3.48718 25.9734 3.48718 26.9254C3.48718 27.8773 4.26165 28.6518 5.21358 28.6518H6.31126L4.89484 41.8864C4.85238 42.2831 4.97519 42.6643 5.24082 42.9598C5.52295 43.2737 5.94181 43.4539 6.38997 43.4539H22.163C22.6112 43.4539 23.03 43.2738 23.3122 42.9598C23.5777 42.6644 23.7006 42.2831 23.6581 41.8864L22.2417 28.6518H22.9572C23.9091 28.6518 24.6835 27.8773 24.6835 26.9254ZM5.21358 27.3994C4.95216 27.3994 4.73955 27.1868 4.73955 26.9254C4.73955 26.664 4.95216 26.4513 5.21358 26.4513H6.54672L6.44523 27.3994H5.21358ZM6.38997 42.2014C6.29665 42.2014 6.21733 42.1727 6.17229 42.1226C6.146 42.0933 6.13577 42.0606 6.14007 42.0196L7.80622 26.4513H14.8557L15.6563 42.2014H6.38997ZM16.9102 42.2014L16.1096 26.4513H17.6631L18.9112 42.2014H16.9102ZM22.4129 42.0197C22.4172 42.0606 22.4071 42.0933 22.3807 42.1226C22.3356 42.1727 22.2563 42.2014 22.163 42.2014H20.1675L18.9195 26.4513H20.7467L22.4129 42.0197ZM22.1077 27.3994L22.0062 26.4513H22.9571C23.2185 26.4513 23.4311 26.6639 23.4311 26.9254C23.4311 27.1868 23.2185 27.3994 22.9571 27.3994H22.1077Z" fill="#EE2E24"/>
<path d="M32.3126 25.199H29.0945C28.4232 25.199 27.877 25.7452 27.877 26.4165V29.6346C27.877 30.306 28.4232 30.8521 29.0945 30.8521H32.3126C32.984 30.8521 33.5302 30.306 33.5302 29.6346V26.4165C33.5302 25.7452 32.984 25.199 32.3126 25.199ZM32.2778 29.5998H29.1293V26.4514H32.2778V29.5998Z" fill="#F99B2A"/>
<path d="M39.2952 25.199H36.0771C35.4057 25.199 34.8595 25.7452 34.8595 26.4165V29.6346C34.8595 30.306 35.4057 30.8521 36.0771 30.8521H39.2952C39.9665 30.8521 40.5127 30.306 40.5127 29.6346V26.4165C40.5127 25.7452 39.9665 25.199 39.2952 25.199ZM39.2603 29.5998H36.1119V26.4514H39.2603V29.5998Z" fill="#F99B2A"/>
<path d="M32.3126 32.0342H29.0945C28.4232 32.0342 27.877 32.5804 27.877 33.2517V36.4698C27.877 37.1412 28.4232 37.6874 29.0945 37.6874H32.3126C32.984 37.6874 33.5302 37.1412 33.5302 36.4698V33.2517C33.5302 32.5803 32.984 32.0342 32.3126 32.0342ZM32.2778 36.4349H29.1293V33.2865H32.2778V36.4349Z" fill="#F99B2A"/>
<path d="M39.2952 32.0342H36.0771C35.4057 32.0342 34.8595 32.5804 34.8595 33.2517V36.4698C34.8595 37.1412 35.4057 37.6874 36.0771 37.6874H39.2952C39.9665 37.6874 40.5127 37.1412 40.5127 36.4698V33.2517C40.5127 32.5803 39.9665 32.0342 39.2952 32.0342ZM39.2603 36.4349H36.1119V33.2865H39.2603V36.4349Z" fill="#EE2E24"/>
<path d="M40.5128 5.88988C40.5128 4.89576 39.7039 4.08691 38.7098 4.08691H5.29015C4.29602 4.08691 3.48718 4.89576 3.48718 5.88988V20.0018C3.48718 20.9959 4.29602 21.8048 5.29015 21.8048H38.7098C39.7039 21.8048 40.5128 20.996 40.5128 20.0018V5.88988ZM39.2604 20.0018C39.2604 20.3054 39.0134 20.5524 38.7098 20.5524H5.29015C4.98653 20.5524 4.73955 20.3054 4.73955 20.0018V5.88988C4.73955 5.58626 4.98653 5.33928 5.29015 5.33928H38.7098C39.0134 5.33928 39.2604 5.58626 39.2604 5.88988V20.0018Z" fill="#EE2E24"/>
<path d="M16.0607 16.0292L14.1588 9.82525C14.047 9.46929 13.5893 9.29639 13.1215 9.29639C12.6536 9.29639 12.196 9.46929 12.0841 9.82525L10.1924 16.0292C10.1823 16.0699 10.1721 16.1106 10.1721 16.1411C10.1721 16.5174 10.7518 16.792 11.1893 16.792C11.4435 16.792 11.6469 16.7106 11.7079 16.4971L12.0536 15.2258H14.1996L14.5453 16.4971C14.6063 16.7106 14.8097 16.792 15.064 16.792C15.5014 16.792 16.0811 16.5174 16.0811 16.1411C16.0811 16.1106 16.0709 16.0699 16.0607 16.0292ZM12.379 14.0053L13.1215 11.2796L13.864 14.0053H12.379Z" fill="#F99B2A"/>
<path d="M23.5053 9.35693H19.1117C18.776 9.35693 18.6337 9.72303 18.6337 10.0587C18.6337 10.4452 18.8066 10.7807 19.1117 10.7807H20.5153V16.3033C20.5153 16.6288 20.912 16.7915 21.3086 16.7915C21.7052 16.7915 22.1018 16.6288 22.1018 16.3033V10.7807H23.5053C23.8104 10.7807 23.9834 10.4452 23.9834 10.0587C23.9834 9.72303 23.841 9.35693 23.5053 9.35693Z" fill="#F99B2A"/>
<path d="M33.0346 9.35693C32.465 9.35693 32.221 9.41795 31.8039 10.1502L30.7565 11.9809L29.7089 10.1502C29.292 9.41795 29.0479 9.35693 28.4783 9.35693C28.0817 9.35693 27.6851 9.57049 27.6851 10.1502V16.3033C27.6851 16.6288 28.0817 16.7915 28.4783 16.7915C28.8749 16.7915 29.2715 16.6288 29.2715 16.3033V12.3878L30.2377 14.1574C30.3598 14.3913 30.553 14.4523 30.7361 14.4523C30.9294 14.4523 31.1328 14.3812 31.265 14.1574L32.2413 12.4894V16.3033C32.2413 16.6288 32.6379 16.7915 33.0346 16.7915C33.4312 16.7915 33.8278 16.6288 33.8278 16.3033V10.1502C33.8278 9.57049 33.4413 9.35693 33.0346 9.35693Z" fill="#F99B2A"/>
</svg>
