<svg width="40" height="46" viewBox="0 0 40 46" fill="none" xmlns="http://www.w3.org/2000/svg">
<g clip-path="url(#clip0_0_393)">
<path d="M2.38714 45.5503C2.30786 45.515 2.23739 45.4798 2.15811 45.4534C0.819203 45.0482 0 43.9647 0 42.5641C0 37.1909 0 31.8176 0 26.4443C0 21.3265 0.00880863 16.1999 0.00880863 11.0821C0.00880863 10.1748 0.281876 9.35559 1.00418 8.77422C1.35653 8.48353 1.79696 8.28093 2.22858 8.12238C2.5545 8.00786 2.67782 7.88454 2.68663 7.51458C2.73068 5.30361 4.10482 3.63878 6.19247 3.22478C7.8573 2.89005 9.5926 3.62997 10.5527 5.06578C10.632 5.1891 10.7113 5.31242 10.7994 5.47098C10.9491 5.43574 11.0989 5.40932 11.2486 5.36527C15.0628 4.21134 18.8769 3.0486 22.691 1.89467C22.832 1.85063 22.9729 1.80659 23.1138 1.77135C23.519 1.69207 23.8538 1.87706 23.9507 2.2294C24.0476 2.59056 23.8626 2.92528 23.4662 3.0486C22.647 3.31286 21.8102 3.5507 20.9822 3.80615C17.0095 5.01293 13.0456 6.2109 9.07289 7.41769C8.99361 7.44411 8.90553 7.47935 8.79982 7.52339C8.79982 8.85349 8.79982 10.1836 8.79982 11.5225C8.79982 12.6676 8.79982 13.8128 8.79982 14.9579C8.79982 16.4377 8.03347 17.5828 6.75622 18.0409C5.47016 18.4989 4.1841 18.0849 3.24158 16.9222C3.20634 16.8782 3.1623 16.8429 3.03017 16.702C3.17111 17.1777 3.268 17.5388 3.37371 17.9C4.2898 20.9301 5.21471 23.9603 6.13081 26.9817C6.13081 26.9993 6.13962 27.0081 6.13962 27.0257C6.30698 27.5806 6.16604 27.9418 5.74323 28.0739C5.33803 28.1972 5.02973 27.9682 4.85356 27.3957C4.63334 26.6822 4.42193 25.9599 4.21053 25.2464C3.31205 22.2867 2.41357 19.327 1.51508 16.3673C1.47104 16.2351 1.427 16.103 1.31249 15.9797C1.31249 16.1206 1.31249 16.2527 1.31249 16.3937C1.31249 25.0878 1.31249 33.7731 1.31249 42.4672C1.31249 43.5683 1.95552 44.2201 3.0566 44.2201C11.645 44.2201 20.2334 44.2201 28.8218 44.2201C29.7644 44.2201 30.3193 43.7797 30.5483 42.8548C30.6628 42.3968 30.9712 42.1854 31.3763 42.2822C31.7463 42.3703 31.9401 42.7139 31.8432 43.1455C31.6142 44.2378 30.98 44.9865 29.9317 45.3829C29.782 45.4357 29.6322 45.4974 29.4913 45.5503C20.4713 45.5503 11.4336 45.5503 2.38714 45.5503ZM9.47809 5.9026C8.76459 4.75748 7.46091 4.25539 6.19247 4.59892C4.91522 4.94246 4.04316 6.05235 4.02555 7.47054C3.99912 10.0074 4.00793 12.5531 4.02555 15.09C4.03435 16.1382 4.76547 16.8782 5.74323 16.8782C6.72979 16.8782 7.47853 16.103 7.47853 15.0548C7.48734 12.5884 7.47853 10.1219 7.47853 7.65552C7.47853 7.18866 7.29355 6.95083 6.9412 6.95083C6.58886 6.95083 6.41268 7.17985 6.41268 7.65552C6.41268 9.10894 6.41268 10.5624 6.41268 12.0158C6.41268 12.6764 6.42149 13.3371 6.40388 13.9977C6.38626 14.5439 5.94583 14.8698 5.48778 14.6848C5.13543 14.5351 5.06496 14.2356 5.06496 13.892C5.07377 11.778 5.08258 9.66389 5.08258 7.54982C5.08258 6.74823 5.39088 6.14924 6.11319 5.80571C6.84431 5.46217 7.53138 5.55906 8.17441 6.06996C8.28011 6.14924 8.4651 6.19329 8.59723 6.16686C8.89672 6.1052 9.16979 5.9995 9.47809 5.9026ZM2.66021 9.46129C1.70007 9.55818 1.15393 10.4743 1.45342 11.4961C1.79696 12.6588 2.15811 13.8216 2.51046 14.9843C2.53689 15.0636 2.58093 15.1429 2.66021 15.3102C2.66021 13.293 2.66021 11.3728 2.66021 9.46129Z" fill="#EE2E24"/>
<path d="M28.3726 0.449951C28.4079 0.467568 28.4431 0.502803 28.4871 0.511612C29.6763 0.784679 30.3898 1.53341 30.7421 2.68734C33.693 12.4209 36.6439 22.1456 39.5948 31.8792C39.7534 32.3989 39.9384 32.9186 39.9912 33.4559C40.1233 34.8565 39.2865 36.0368 37.8859 36.4773C36.0537 37.0498 34.2127 37.6048 32.3717 38.1421C32.0106 38.2478 31.8785 38.3975 31.9049 38.7763C31.9401 39.2608 31.9225 39.7453 31.9049 40.2297C31.8961 40.6525 31.6406 40.908 31.2618 40.908C30.8919 40.908 30.61 40.6525 30.5924 40.2385C30.5748 39.7453 30.5924 39.2432 30.5924 38.697C29.4825 39.0318 28.4167 39.3489 27.3596 39.6748C22.6382 41.1106 17.908 42.5376 13.1865 43.9734C11.3631 44.5195 9.84805 43.718 9.30192 41.9122C8.13918 38.0716 6.97644 34.2311 5.82251 30.3817C5.75204 30.1615 5.72561 29.8532 5.83131 29.677C5.92821 29.5008 6.24532 29.3246 6.42149 29.3599C6.64171 29.4039 6.92359 29.6241 7.01167 29.8355C7.25831 30.4433 7.41687 31.0864 7.61066 31.7206C8.59723 34.971 9.58379 38.2302 10.5704 41.4806C10.9227 42.6345 11.6626 43.0397 12.8254 42.6962C20.0925 40.5028 27.3508 38.3006 34.6179 36.0985C35.5428 35.8166 36.4678 35.5435 37.3927 35.2529C38.4849 34.9093 38.8989 34.1254 38.573 33.0419C35.5517 23.0881 32.5391 13.1344 29.5177 3.18063C29.1566 1.99146 28.3902 1.58626 27.1923 1.95623C26.8399 2.06193 26.4964 2.17644 26.1352 2.27334C25.7124 2.38785 25.3689 2.21168 25.2544 1.84172C25.1398 1.48056 25.3424 1.13702 25.7565 0.996086C26.3114 0.811105 26.8663 0.643741 27.4213 0.467568C27.7296 0.449951 28.0467 0.449951 28.3726 0.449951Z" fill="#EE2E24"/>
<path d="M16.6659 11.2583C17.0887 11.2848 17.5027 11.276 17.8991 11.3552C18.4276 11.4609 18.6567 11.8485 18.551 12.3154C18.4364 12.8087 18.1193 12.9496 17.5556 12.932C17.0887 12.9144 16.6043 13.0025 16.155 13.1258C15.8203 13.2139 15.6353 13.4957 15.6882 13.8745C15.741 14.2621 15.97 14.4911 16.34 14.5352C16.8949 14.6056 17.4499 14.6497 17.996 14.7113C20.2598 14.9668 20.8148 17.7591 19.9427 18.8866C19.837 19.0276 19.7313 19.1773 19.5992 19.283C19.3173 19.4856 19.1588 19.6706 19.2733 20.067C19.379 20.4281 19.0619 20.8157 18.6831 20.9302C18.3131 21.0447 17.8727 20.8862 17.7318 20.4986C17.6084 20.1463 17.397 20.1286 17.0799 20.0846C16.6307 20.0141 16.1638 19.882 15.7586 19.6706C15.327 19.4416 15.2301 18.9835 15.4151 18.5695C15.6177 18.1115 16.0141 17.9793 16.5074 18.2612C17.0183 18.5607 17.5292 18.5871 18.0665 18.3669C18.4276 18.2172 18.7095 17.9969 18.7007 17.5565C18.6831 17.0985 18.5598 16.6668 18.0929 16.4731C17.811 16.3585 17.5027 16.3321 17.1944 16.2881C16.7452 16.2264 16.2871 16.2 15.8467 16.1207C14.8866 15.9445 14.3669 15.2927 14.129 14.3854C13.8912 13.4781 14.1202 12.7118 14.8337 12.0864C14.9394 11.9983 15.0275 11.8045 15.0099 11.6724C14.913 11.0381 15.0804 10.6241 15.556 10.492C16.0141 10.3599 16.3752 10.5801 16.6219 11.1526C16.6219 11.2143 16.6571 11.2495 16.6659 11.2583Z" fill="#F99B2A"/>
<path d="M13.0808 34.0461C12.6492 34.0373 12.429 33.8347 12.3673 33.4911C12.3057 33.1212 12.4818 32.8657 12.843 32.7512C13.6534 32.4958 14.4638 32.2491 15.283 32.0025C20.6651 30.3729 26.0471 28.7345 31.4292 27.1049C31.5173 27.0785 31.5966 27.052 31.6847 27.0344C32.1603 26.9023 32.4951 27.0432 32.6184 27.4132C32.7505 27.8096 32.5567 28.1443 32.0722 28.3029C30.0022 28.9371 27.9234 29.5713 25.8533 30.1967C21.775 31.4387 17.6966 32.6719 13.6182 33.9052C13.4068 33.9668 13.2042 34.0109 13.0808 34.0461Z" fill="#F99B2A"/>
<path d="M11.9533 30.4081C11.5922 30.3817 11.3367 30.2232 11.2662 29.8708C11.1958 29.4832 11.3719 29.2102 11.7419 29.0957C12.6932 28.7962 13.6446 28.5055 14.5959 28.2236C19.8194 26.6381 25.0517 25.0525 30.2753 23.467C30.4162 23.4229 30.5571 23.3789 30.6981 23.3524C31.1033 23.282 31.4468 23.467 31.5173 23.8281C31.5965 24.2157 31.4292 24.4888 31.0592 24.6121C30.4602 24.8059 29.8612 24.9908 29.2535 25.1758C23.6335 26.8847 18.0136 28.5848 12.3937 30.2848C12.244 30.3289 12.0942 30.3641 11.9533 30.4081Z" fill="#F99B2A"/>
<path d="M10.8875 26.7349C10.4735 26.7349 10.2268 26.5676 10.1564 26.224C10.0771 25.8364 10.2532 25.5634 10.632 25.4489C11.3455 25.2286 12.059 25.0084 12.7725 24.7882C18.2691 23.1234 23.7657 21.4585 29.2535 19.7937C29.8965 19.5999 30.2665 19.7056 30.3986 20.1196C30.5395 20.5777 30.3017 20.8684 29.6322 21.071C23.5807 22.9032 17.5204 24.7442 11.4688 26.5764C11.2574 26.638 11.046 26.6909 10.8875 26.7349Z" fill="#F99B2A"/>
<path d="M14.1379 37.7105C13.7767 37.6665 13.5477 37.5079 13.486 37.1732C13.4156 36.7856 13.5741 36.5126 13.9529 36.3892C14.7809 36.1338 15.6089 35.8872 16.4369 35.6405C21.8014 34.0109 27.1746 32.3813 32.5391 30.7517C32.6624 30.7165 32.7946 30.6724 32.9179 30.646C33.3055 30.5756 33.6226 30.7429 33.7283 31.0776C33.834 31.43 33.6666 31.7735 33.279 31.9057C32.7946 32.073 32.3013 32.214 31.808 32.3637C26.0736 34.1078 20.3479 35.8431 14.6135 37.5784C14.4462 37.6313 14.27 37.6753 14.1379 37.7105Z" fill="#F99B2A"/>
</g>
<defs>
<clipPath id="clip0_0_393">
<rect width="40" height="45.1002" fill="white" transform="translate(0 0.449951)"/>
</clipPath>
</defs>
</svg>
