<svg width="48" height="44" viewBox="0 0 48 44" fill="none" xmlns="http://www.w3.org/2000/svg">
<g clip-path="url(#clip0_0_423)">
<path d="M0.538208 2.47448C0.574867 2.37367 0.611526 2.27286 0.63902 2.17205C1.0331 0.843158 2.12371 0.00916476 3.52592 0.00916476C6.55945 0 9.60215 0 12.6449 0C19.271 0 25.8971 0 32.5324 0C34.5486 0 35.74 1.20058 35.74 3.22599C35.74 10.6494 35.74 18.0729 35.74 25.4964C35.74 25.7713 35.74 26.0462 35.74 26.3945C35.9142 26.3945 36.0791 26.3945 36.2349 26.3945C38.6911 26.3945 41.1564 26.3945 43.6126 26.3945C45.0973 26.3945 45.9862 27.3018 46.0137 28.7957C46.0229 29.5105 45.9679 30.1979 45.4455 30.7844C46.1695 31.6642 46.0504 32.6632 45.9221 33.708C46.4628 33.7721 47.1043 33.5613 47.4709 34.1845C47.4709 36.6315 47.4709 39.0694 47.4709 41.5163C46.7194 43.4959 46.0137 43.9908 43.8875 43.9908C35.5476 43.9908 27.2168 43.9908 18.8769 43.9908C13.7904 43.9908 8.70401 43.9908 3.62673 43.9908C2.40782 43.9908 1.48218 43.4776 0.895634 42.4053C0.748997 42.1304 0.666515 41.8096 0.556538 41.5163C0.538208 28.5024 0.538208 15.4884 0.538208 2.47448ZM30.1954 42.5245C30.0762 42.0754 29.8929 41.6813 29.8838 41.2872C29.8563 39.0144 29.8654 36.7323 29.8746 34.4595C29.8746 34.0196 30.1587 33.7538 30.5986 33.7263C30.8736 33.708 31.1393 33.7263 31.4143 33.7263C31.2951 32.6724 31.1485 31.6642 31.8725 30.8027C31.176 29.813 31.1302 28.7315 31.5426 27.6867C32.0191 26.5045 33.1006 26.3029 34.237 26.3762C34.237 20.9781 34.237 15.6351 34.237 10.2829C23.4868 10.2829 12.764 10.2829 2.00457 10.2829C2.00457 10.4753 2.00457 10.6403 2.00457 10.8144C2.00457 20.7857 2.00457 30.7661 2.00457 40.7373C2.00457 41.9838 2.53613 42.5153 3.7917 42.5153C11.5542 42.5153 19.3076 42.5153 27.0702 42.5153C28.1058 42.5245 29.1506 42.5245 30.1954 42.5245ZM34.2645 8.789C34.2645 6.8644 34.2645 4.98563 34.2645 3.11602C34.2645 2.06207 33.678 1.47553 32.6149 1.47553C22.9644 1.47553 13.3139 1.47553 3.66339 1.47553C2.60028 1.47553 2.01373 2.06207 2.01373 3.10685C2.01373 4.86649 2.01373 6.61695 2.01373 8.37659C2.01373 8.5049 2.03206 8.64237 2.04123 8.789C12.7732 8.789 23.4959 8.789 34.2645 8.789ZM31.3318 35.211C31.3318 37.1264 31.3318 38.9869 31.3318 40.8473C31.3318 41.9471 31.9 42.5245 32.9906 42.5245C36.7757 42.5245 40.5607 42.5245 44.3457 42.5245C45.4089 42.5245 45.9862 41.9379 45.9862 40.8748C45.9862 39.1335 45.9862 37.3922 45.9862 35.6509C45.9862 35.5043 45.9771 35.3576 45.9679 35.211C41.0831 35.211 36.2349 35.211 31.3318 35.211ZM38.7094 30.0604C40.3591 30.0604 42.0087 30.0604 43.6584 30.0604C44.2541 30.0604 44.5199 29.7855 44.529 29.1898C44.529 29.0065 44.5382 28.8232 44.529 28.6399C44.5015 28.1541 44.2358 27.87 43.75 27.87C40.3591 27.8609 36.9681 27.8609 33.5772 27.87C33.0914 27.87 32.8256 28.1541 32.7982 28.6399C32.789 28.7957 32.7982 28.9423 32.7982 29.0981C32.8073 29.813 33.0456 30.0604 33.7605 30.0604C35.4101 30.0604 37.0598 30.0604 38.7094 30.0604ZM38.6178 33.7263C40.2949 33.7263 41.9812 33.7263 43.6584 33.7263C44.2541 33.7263 44.5199 33.4514 44.529 32.8557C44.529 32.6724 44.5382 32.4891 44.529 32.3058C44.5015 31.82 44.2358 31.5359 43.75 31.5359C40.3591 31.5268 36.9681 31.5268 33.5772 31.5359C33.0914 31.5359 32.8256 31.82 32.7982 32.3149C32.789 32.4707 32.7982 32.6174 32.7982 32.7732C32.7982 33.488 33.0456 33.7355 33.7605 33.7355C35.3826 33.7263 36.9956 33.7263 38.6178 33.7263Z" fill="#EE2E24"/>
<path d="M29.8654 25.6797C29.8563 32.15 24.5682 37.4106 18.0887 37.3922C11.6459 37.3739 6.39447 32.095 6.40364 25.643C6.4128 19.1727 11.7009 13.9121 18.1804 13.9305C24.6323 13.958 29.8746 19.2277 29.8654 25.6797ZM28.3991 25.6614C28.3991 20.0067 23.7983 15.406 18.1437 15.406C12.4982 15.406 7.87916 20.0067 7.87 25.6522C7.86083 31.3252 12.4799 35.9442 18.1529 35.935C23.8075 35.9167 28.3991 31.316 28.3991 25.6614Z" fill="#F99B2A"/>
<path d="M22.5244 7.33174C21.8096 7.33174 21.0856 7.3409 20.3707 7.33174C19.1151 7.31341 18.1437 6.36027 18.1345 5.14136C18.1345 3.92245 19.0968 2.95098 20.3524 2.93265C21.8004 2.92349 23.2485 2.92349 24.7057 2.93265C25.9704 2.94182 26.9327 3.89495 26.9419 5.12303C26.951 6.34194 25.9796 7.31341 24.724 7.33174C23.9816 7.3409 23.2485 7.33174 22.5244 7.33174ZM22.5336 5.86538C23.221 5.86538 23.9083 5.86538 24.5957 5.86538C25.1272 5.86538 25.4663 5.5721 25.4663 5.1322C25.4663 4.69229 25.1364 4.40818 24.5957 4.39902C23.221 4.38985 21.8462 4.38985 20.4715 4.39902C19.9308 4.39902 19.61 4.68312 19.61 5.1322C19.61 5.5721 19.94 5.85621 20.4807 5.86538C21.1589 5.87454 21.8462 5.86538 22.5336 5.86538Z" fill="#F99B2A"/>
<path d="M7.87003 5.13216C7.87003 6.34191 6.87107 7.34087 5.65216 7.3317C4.46074 7.3317 3.48011 6.34191 3.47095 5.14133C3.47095 3.92241 4.46991 2.93262 5.68882 2.93262C6.88024 2.94178 7.87003 3.93158 7.87003 5.13216ZM6.40367 5.14133C6.40367 4.74724 6.0829 4.40814 5.67965 4.40814C5.28557 4.40814 4.94647 4.72891 4.94647 5.13216C4.94647 5.52625 5.26724 5.86534 5.67049 5.86534C6.05541 5.86534 6.3945 5.53541 6.40367 5.14133Z" fill="#F99B2A"/>
<path d="M32.7981 5.14133C32.7981 6.35108 31.7808 7.35004 30.5711 7.33171C29.3797 7.31338 28.399 6.32359 28.4082 5.123C28.4082 3.90409 29.4163 2.91429 30.6352 2.93262C31.8267 2.95095 32.8073 3.94991 32.7981 5.14133ZM31.3318 5.11384C31.3226 4.71975 30.9835 4.38982 30.5802 4.39899C30.1862 4.40815 29.8562 4.74725 29.8654 5.1505C29.8746 5.54458 30.2137 5.87451 30.6169 5.86535C31.011 5.85618 31.3409 5.50792 31.3318 5.11384Z" fill="#F99B2A"/>
<path d="M18.1437 17.5964C22.5886 17.5964 26.1996 21.2348 26.1904 25.6889C26.1812 30.1338 22.552 33.7447 18.0888 33.7264C13.6622 33.7172 10.0604 30.088 10.0604 25.6614C10.0696 21.2165 13.6988 17.5964 18.1437 17.5964ZM24.7332 25.6889C24.7424 22.0413 21.7913 19.0811 18.1346 19.072C14.5328 19.0628 11.5543 22.0138 11.5451 25.5973C11.5268 29.2632 14.4595 32.2509 18.0979 32.26C21.7455 32.2784 24.724 29.3273 24.7332 25.6889Z" fill="#F99B2A"/>
<path d="M23.2576 25.8814C23.1843 28.475 20.9756 30.6929 18.3728 30.7845C17.7679 30.8028 17.4105 30.5462 17.4013 30.0788C17.3921 29.6297 17.7129 29.3548 18.2995 29.3273C20.2149 29.2173 21.6904 27.7418 21.8004 25.808C21.8279 25.2398 22.1212 24.9099 22.5702 24.9374C23.0285 24.9557 23.2759 25.304 23.2576 25.8814Z" fill="#F99B2A"/>
</g>
<defs>
<clipPath id="clip0_0_423">
<rect width="46.9236" height="44" fill="white" transform="translate(0.538208)"/>
</clipPath>
</defs>
</svg>
