<svg width="50" height="32" viewBox="0 0 50 32" fill="none" xmlns="http://www.w3.org/2000/svg">
<path d="M0 20.4982C0.292969 19.0333 0.537109 17.5587 0.888672 16.1134C1.57227 13.3204 2.25586 10.5275 3.05664 7.76379C4.24805 3.66223 7.92969 0.830195 12.1875 0.664179C19.6094 0.371211 27.0215 0.351679 34.4434 0.556757C36.0645 0.605586 37.7246 0.556757 39.3066 0.869257C43.1836 1.64074 45.7812 4.03332 46.9531 7.80285C48.1836 11.7286 49.1211 15.7325 49.8633 19.7853C49.9023 20.0196 49.9512 20.2638 50 20.4982C50 21.1134 50 21.7384 50 22.3536C49.873 22.9493 49.7852 23.5646 49.6094 24.1505C48.0078 29.8146 42.3438 32.4415 37.4219 31.3282C36.9141 31.2111 36.6406 30.8497 36.7285 30.4396C36.8262 29.9806 37.2266 29.795 37.8125 29.9122C40.7129 30.4884 43.3398 29.8829 45.5469 27.9298C48.1055 25.6739 49.0234 22.7833 48.2812 19.463C47.4609 15.7716 46.5723 12.09 45.5859 8.43762C44.5801 4.71691 41.5332 2.3634 37.6855 2.12902C37.1582 2.09973 36.6211 2.08019 36.0547 2.0509C36.0156 2.48059 35.9863 2.86144 35.9375 3.2423C35.6836 5.26379 34.1016 6.77746 32.0605 6.80676C27.9297 6.85559 23.7793 6.84582 19.6289 6.85559C19.5312 6.85559 19.4336 6.85559 19.3359 6.84582C18.8965 6.79699 18.6328 6.52355 18.6426 6.12316C18.6426 5.72277 18.916 5.4298 19.3555 5.40051C19.707 5.38098 20.0684 5.4298 20.4297 5.42004C24.2871 5.40051 28.1445 5.39074 32.002 5.34191C33.3301 5.32238 34.3262 4.39465 34.5117 3.06652C34.5605 2.74426 34.5605 2.42199 34.5996 2.01184C28.2129 1.83605 21.8652 1.84582 15.5176 2.00207C15.2441 3.10559 15.7324 4.29699 16.6797 4.95129C16.8652 5.07824 17.1094 5.24426 17.1387 5.42004C17.1777 5.67394 17.1094 6.00598 16.9629 6.21105C16.7676 6.48449 16.4258 6.49426 16.123 6.31848C14.9707 5.67394 14.2676 4.70715 14.0625 3.39855C13.9941 2.96887 13.9746 2.52941 13.9355 2.09973C9.53125 1.74816 5.71289 4.00402 4.41406 8.3009C3.26172 12.129 2.30469 16.0157 1.5918 19.9513C0.742187 24.6486 3.96484 29.1505 8.7207 29.9611C13.0273 30.7032 17.1777 28.2814 18.4961 24.2579C18.5156 24.1798 18.5352 24.1114 18.5547 24.0431C16.0156 22.7345 15.0879 21.1134 15.6348 18.9747C16.1035 17.1583 17.8613 15.8497 19.7363 15.9181C21.9238 16.006 23.2422 17.3829 23.75 20.1368C24.5801 20.1368 25.4102 20.1368 26.2402 20.1368C26.8457 17.2755 28.1836 15.9181 30.3906 15.9083C32.3145 15.9083 33.9648 17.2364 34.3945 19.1407C34.8633 21.2208 33.8574 22.8907 31.4355 24.0236C31.7578 25.1661 32.3047 26.1915 33.1055 27.0607C33.6719 27.6759 34.3457 28.2032 35.0098 28.7208C35.4785 29.0919 35.6348 29.4825 35.3613 29.8634C35.1074 30.2247 34.6875 30.2638 34.1992 29.9415C32.1777 28.6232 30.7715 26.8263 30.0586 24.5118C29.9609 24.1896 29.8047 24.0626 29.4727 23.9845C28.3008 23.7208 27.4023 23.0568 26.8359 21.9923C26.6797 21.7091 26.5137 21.6114 26.1914 21.6212C25.3613 21.6407 24.5312 21.6114 23.7012 21.6407C23.5352 21.6505 23.3105 21.7775 23.2227 21.9239C22.5781 23.0275 21.6699 23.7306 20.4199 24.0236C20.2441 24.0626 20.0391 24.2579 19.9805 24.4337C18.6035 28.4181 15.8398 30.84 11.6992 31.4552C6.24023 32.2755 0.957031 28.6329 0.0976562 22.8126C0.078125 22.6857 0.0390625 22.5685 0 22.4415C0 21.797 0 21.1427 0 20.4982ZM33.0273 20.0392C33.0371 18.5841 31.8652 17.3829 30.4199 17.3829C28.9844 17.3732 27.7734 18.5743 27.7734 20.0196C27.7734 21.4454 28.9551 22.6368 30.3711 22.6466C31.8359 22.6564 33.0176 21.504 33.0273 20.0392ZM19.6094 22.6466C21.0352 22.6466 22.2168 21.4747 22.2363 20.0489C22.2559 18.6134 21.0547 17.3927 19.6191 17.3829C18.1641 17.3732 16.9824 18.5548 16.9824 20.0196C16.9727 21.4845 18.1348 22.6466 19.6094 22.6466Z" fill="#EE2E24"/>
<path d="M7.72462 9.93164C8.12501 7.92969 9.09181 6.99219 10.7227 6.99219C12.3438 7.00195 13.3496 7.97852 13.711 9.92188C15.7617 10.4199 16.6797 11.3672 16.6602 12.959C16.6406 14.5508 15.6738 15.5273 13.711 15.9375C13.3496 17.8711 12.3438 18.8672 10.7324 18.877C9.13087 18.8867 8.10548 17.9004 7.72462 15.918C6.76759 15.8398 5.91798 15.498 5.32228 14.668C4.90236 14.0918 4.74611 13.4473 4.7754 12.7344C4.84376 11.25 5.76173 10.3613 7.72462 9.93164ZM6.24025 12.9102C6.23048 13.7207 6.76759 14.3164 7.59767 14.4141C7.87111 14.4434 8.15431 14.4238 8.42775 14.4434C8.91603 14.4727 9.16994 14.7168 9.19923 15.1953C9.21876 15.4883 9.209 15.7812 9.24806 16.0742C9.34572 16.8945 9.92189 17.4121 10.7129 17.4121C11.5137 17.4121 12.1192 16.8457 12.1973 16.0254C12.2168 15.8203 12.207 15.6055 12.2168 15.3906C12.2363 14.6875 12.461 14.4531 13.1543 14.4336C13.457 14.4238 13.7793 14.4238 14.0723 14.3555C14.7656 14.209 15.2149 13.6035 15.2051 12.9004C15.1953 12.1875 14.7266 11.6113 14.0235 11.4844C13.711 11.4258 13.3789 11.4258 13.0567 11.416C12.4902 11.3867 12.2363 11.1426 12.2168 10.5664C12.207 10.293 12.2266 10.0098 12.1875 9.73633C12.0899 8.95508 11.4942 8.44727 10.7227 8.44727C9.94142 8.44727 9.36525 8.94531 9.25783 9.72656C9.21876 10.0293 9.21876 10.3418 9.19923 10.6543C9.16017 11.1426 8.91603 11.377 8.42775 11.416C8.08595 11.4355 7.74415 11.4258 7.41212 11.4844C6.69923 11.6211 6.25001 12.1973 6.24025 12.9102Z" fill="#F99B2A"/>
<path d="M25.127 13.6624C24.4141 13.6624 23.6914 13.6722 22.9785 13.6624C21.8262 13.6526 20.9277 12.8128 20.8691 11.7191C20.8106 10.5569 21.582 9.58038 22.7539 9.52179C24.3262 9.45343 25.9082 9.45343 27.4805 9.53156C28.5938 9.58038 29.4043 10.5765 29.3652 11.6409C29.3164 12.7737 28.4277 13.6429 27.2754 13.6624C26.5625 13.6722 25.8496 13.6624 25.127 13.6624ZM25.1074 12.1976C25.791 12.1976 26.4746 12.1878 27.1484 12.1976C27.5684 12.2073 27.8418 12.0218 27.8906 11.6019C27.9297 11.2405 27.6367 10.9671 27.1875 10.9671C25.8106 10.9573 24.4336 10.9573 23.0469 10.9671C22.5781 10.9671 22.334 11.2112 22.334 11.5921C22.334 11.973 22.5879 12.1976 23.0566 12.1976C23.75 12.2073 24.4238 12.1976 25.1074 12.1976Z" fill="#F99B2A"/>
<path d="M41.1816 7.90045C42.7246 7.89068 44.0137 9.17974 44.0039 10.7325C44.0039 12.2852 42.7246 13.5645 41.1719 13.5547C39.6387 13.5547 38.3691 12.295 38.3594 10.7715C38.3496 9.16998 39.5996 7.90045 41.1816 7.90045ZM41.1621 9.36529C40.4102 9.37506 39.8242 9.99029 39.834 10.752C39.8437 11.4844 40.4492 12.0801 41.1719 12.0801C41.9141 12.0801 42.5391 11.4551 42.5293 10.7129C42.5293 9.97076 41.9141 9.35552 41.1621 9.36529Z" fill="#F99B2A"/>
<path d="M39.5801 15.1465C39.5801 16.7187 38.3301 17.9687 36.7578 17.959C35.1953 17.959 33.9258 16.6895 33.9355 15.1367C33.9453 13.5742 35.2051 12.3145 36.7676 12.3047C38.3105 12.3047 39.5801 13.584 39.5801 15.1465ZM38.1055 15.1172C38.0957 14.3848 37.5 13.7891 36.7773 13.7793C36.0352 13.7695 35.4199 14.3848 35.4199 15.1465C35.4199 15.9082 36.0156 16.5039 36.7773 16.4941C37.5391 16.4844 38.1152 15.8887 38.1055 15.1172Z" fill="#F99B2A"/>
</svg>
