<svg width="50" height="38" viewBox="0 0 50 38" fill="none" xmlns="http://www.w3.org/2000/svg">
<path d="M15.7322 10.9436H7.32539C6.31162 10.9436 5.48682 11.7684 5.48682 12.7822V19.4191C5.48682 20.4329 6.31162 21.2577 7.32539 21.2577H15.7321C16.7459 21.2577 17.5707 20.4329 17.5707 19.4191V12.7822C17.5707 11.7684 16.746 10.9436 15.7322 10.9436ZM16.1059 12.7822V15.3682H12.2611V12.4084H15.7321C15.9383 12.4084 16.1059 12.5761 16.1059 12.7822ZM6.95166 19.4191V12.7822C6.95166 12.5761 7.11934 12.4084 7.32539 12.4084H10.7963V19.7928H7.32539C7.11934 19.7928 6.95166 19.6251 6.95166 19.4191ZM15.7322 19.7928H12.2612V16.8331H16.106V19.419C16.1059 19.6251 15.9383 19.7928 15.7322 19.7928Z" fill="#F99B2A"/>
<path d="M5.48682 29.7197C5.48682 30.1243 5.81475 30.4521 6.21924 30.4521H27.7722C28.1767 30.4521 28.5046 30.1243 28.5046 29.7197C28.5046 29.3151 28.1767 28.9873 27.7722 28.9873H6.21924C5.81475 28.9873 5.48682 29.3151 5.48682 29.7197Z" fill="#F99B2A"/>
<path d="M6.21924 31.7766C5.81475 31.7766 5.48682 32.1044 5.48682 32.509C5.48682 32.9136 5.81475 33.2415 6.21924 33.2415H16.9957C17.4002 33.2415 17.7281 32.9136 17.7281 32.509C17.7281 32.1044 17.4002 31.7766 16.9957 31.7766H6.21924Z" fill="#F99B2A"/>
<path d="M19.2264 26.225V24.4543C19.2264 24.0498 18.8984 23.7219 18.494 23.7219C18.0895 23.7219 17.7615 24.0498 17.7615 24.4543V26.225C17.7615 26.6296 18.0895 26.9575 18.494 26.9575C18.8984 26.9575 19.2264 26.6296 19.2264 26.225Z" fill="#EE2E24"/>
<path d="M22.5741 26.225V24.4543C22.5741 24.0498 22.2462 23.7219 21.8417 23.7219C21.4372 23.7219 21.1093 24.0498 21.1093 24.4543V26.225C21.1093 26.6296 21.4372 26.9575 21.8417 26.9575C22.2462 26.9575 22.5741 26.6296 22.5741 26.225Z" fill="#EE2E24"/>
<path d="M25.9217 26.225V24.4543C25.9217 24.0498 25.5937 23.7219 25.1893 23.7219C24.7848 23.7219 24.4568 24.0498 24.4568 24.4543V26.225C24.4568 26.6296 24.7848 26.9575 25.1893 26.9575C25.5937 26.9575 25.9217 26.6296 25.9217 26.225Z" fill="#EE2E24"/>
<path d="M29.2694 26.225V24.4543C29.2694 24.0498 28.9415 23.7219 28.537 23.7219C28.1325 23.7219 27.8046 24.0498 27.8046 24.4543V26.225C27.8046 26.6296 28.1325 26.9575 28.537 26.9575C28.9415 26.9575 29.2694 26.6296 29.2694 26.225Z" fill="#EE2E24"/>
<path d="M33.384 24.4543V26.225C33.384 26.6296 33.7119 26.9575 34.1164 26.9575C34.5209 26.9575 34.8488 26.6296 34.8488 26.225V24.4543C34.8488 24.0498 34.5209 23.7219 34.1164 23.7219C33.7119 23.7219 33.384 24.0499 33.384 24.4543Z" fill="#EE2E24"/>
<path d="M36.7316 24.4543V26.225C36.7316 26.6296 37.0596 26.9575 37.4641 26.9575C37.8685 26.9575 38.1965 26.6296 38.1965 26.225V24.4543C38.1965 24.0498 37.8685 23.7219 37.4641 23.7219C37.0596 23.7219 36.7316 24.0499 36.7316 24.4543Z" fill="#EE2E24"/>
<path d="M40.0793 24.4543V26.225C40.0793 26.6296 40.4072 26.9575 40.8117 26.9575C41.2162 26.9575 41.5442 26.6296 41.5442 26.225V24.4543C41.5442 24.0498 41.2162 23.7219 40.8117 23.7219C40.4072 23.7219 40.0793 24.0499 40.0793 24.4543Z" fill="#EE2E24"/>
<path d="M6.21924 26.9575C6.62373 26.9575 6.95166 26.6296 6.95166 26.225V24.4543C6.95166 24.0498 6.62373 23.7219 6.21924 23.7219C5.81475 23.7219 5.48682 24.0498 5.48682 24.4543V26.225C5.48682 26.6296 5.81475 26.9575 6.21924 26.9575Z" fill="#EE2E24"/>
<path d="M10.2993 26.225V24.4543C10.2993 24.0498 9.97142 23.7219 9.56693 23.7219C9.16243 23.7219 8.8345 24.0498 8.8345 24.4543V26.225C8.8345 26.6296 9.16243 26.9575 9.56693 26.9575C9.97142 26.9575 10.2993 26.6296 10.2993 26.225Z" fill="#EE2E24"/>
<path d="M13.647 26.225V24.4543C13.647 24.0498 13.319 23.7219 12.9145 23.7219C12.5101 23.7219 12.1821 24.0498 12.1821 24.4543V26.225C12.1821 26.6296 12.5101 26.9575 12.9145 26.9575C13.319 26.9575 13.647 26.6296 13.647 26.225Z" fill="#EE2E24"/>
<path d="M50 7.85C50 3.74707 46.662 0.40918 42.5592 0.40918C38.8843 0.40918 35.8252 3.08769 35.2265 6.59453H16.2744C15.8699 6.59453 15.542 6.92236 15.542 7.32695C15.542 7.73154 15.8699 8.05937 16.2744 8.05937H35.1213C35.2333 12.0915 38.5612 15.2893 42.5563 15.2907C42.5573 15.2907 42.5582 15.2908 42.5592 15.2908C42.5602 15.2908 42.5592 15.2908 42.5592 15.2908C42.56 15.2908 42.5607 15.2907 42.5616 15.2907C43.6315 15.2903 44.6688 15.055 45.5661 14.658V26.9751C45.5661 27.3797 45.894 27.7075 46.2985 27.7075C46.703 27.7075 47.031 27.3797 47.031 26.9751V13.7928C48.8328 12.4336 50 10.2757 50 7.85ZM42.5592 1.87402C45.8544 1.87402 48.5352 4.55488 48.5352 7.85C48.5352 11.1515 45.8468 13.8259 42.5592 13.8259C39.1995 13.8259 36.4521 11.0295 36.5894 7.60791C36.7427 4.31689 39.4308 1.87402 42.5592 1.87402Z" fill="#EE2E24"/>
<path d="M40.5331 10.6688C40.7811 11.0706 41.3396 11.1366 41.6743 10.8021L46.4116 6.06475C46.6976 5.77861 46.6976 5.31494 46.4116 5.02891C46.1256 4.74297 45.6618 4.74297 45.3759 5.02891L41.2934 9.11152L39.7137 6.55176C39.5014 6.20752 39.05 6.10078 38.7058 6.31309C38.3615 6.52559 38.2547 6.97686 38.4671 7.321L40.5331 10.6688Z" fill="#F99B2A"/>
<path d="M46.2985 29.6608C45.894 29.6608 45.5661 29.9887 45.5661 30.3933V33.414C45.5661 34.9094 44.3495 36.126 42.854 36.126H4.17695C2.68145 36.126 1.46484 34.9094 1.46484 33.414V10.7717C1.46484 9.27627 2.68145 8.05957 4.17695 8.05957H12.8564C13.2609 8.05957 13.5889 7.73174 13.5889 7.32715C13.5889 6.92256 13.2609 6.59473 12.8564 6.59473H4.17695C1.87383 6.59473 0 8.46846 0 10.7717V33.4139C0 35.717 1.87383 37.5907 4.17695 37.5907H42.854C45.1571 37.5907 47.031 35.7169 47.031 33.4139V30.3932C47.031 29.9887 46.703 29.6608 46.2985 29.6608Z" fill="#EE2E24"/>
<path d="M42.4302 20.1317V17.9666C42.4302 17.3458 41.925 16.8406 41.3041 16.8406H33.8246C33.2037 16.8406 32.6985 17.3458 32.6985 17.9666V20.1317C32.6985 20.7526 33.2037 21.2578 33.8246 21.2578H41.3041C41.925 21.2578 42.4302 20.7526 42.4302 20.1317ZM40.9653 19.7929H34.1633V18.3054H40.9653V19.7929Z" fill="#EE2E24"/>
</svg>
