<svg width="34" height="44" viewBox="0 0 34 44" fill="none" xmlns="http://www.w3.org/2000/svg">
<path d="M13.9922 39.6515C13.8547 39.3163 13.5024 39.0929 13.1414 39.1273C12.7805 39.153 12.4797 39.4023 12.3766 39.746C12.2734 40.0898 12.411 40.4679 12.7031 40.6827C12.9867 40.889 13.3906 40.8976 13.6828 40.6999C14.0094 40.4679 14.1469 40.021 13.9922 39.6515Z" fill="#EE2E24"/>
<path d="M17.5758 4.94141H18.2977C18.7703 4.94141 19.1571 4.55469 19.1571 4.08203C19.1571 3.60938 18.7703 3.22266 18.2977 3.22266H17.5758C17.1031 3.22266 16.7164 3.60938 16.7164 4.08203C16.7164 4.55469 17.1031 4.94141 17.5758 4.94141Z" fill="#F99B2A"/>
<path d="M8.09686 4.94141H13.9406C14.4133 4.94141 14.8 4.55469 14.8 4.08203C14.8 3.60938 14.4133 3.22266 13.9406 3.22266H8.09686C7.62421 3.22266 7.23749 3.60938 7.23749 4.08203C7.23749 4.55469 7.62421 4.94141 8.09686 4.94141Z" fill="#F99B2A"/>
<path d="M22.8781 17.8494C21.4945 17.8494 20.3773 18.9751 20.3773 20.3501C20.3773 21.7251 21.4945 22.8595 22.8781 22.8595C24.2617 22.8595 25.3789 21.7337 25.3789 20.3587C25.3789 18.9837 24.2531 17.8494 22.8781 17.8494ZM22.8781 21.1408C22.4484 21.1408 22.0961 20.7884 22.0961 20.3587C22.0961 19.9291 22.4484 19.5767 22.8781 19.5767C23.3078 19.5767 23.6601 19.9291 23.6601 20.3587C23.6601 20.7884 23.3078 21.1408 22.8781 21.1408Z" fill="#F99B2A"/>
<path d="M14.6797 19.6367C14.5937 19.6109 14.5164 19.5765 14.4391 19.5507V17.6C14.5851 17.6687 14.6797 17.7546 14.7398 17.832C15.0148 18.2187 15.5476 18.3132 15.9344 18.0382C16.3211 17.7632 16.4156 17.2304 16.1406 16.8437C15.8055 16.3625 15.2039 15.9585 14.4305 15.8039V15.7781C14.4305 15.3054 14.0437 14.9187 13.5711 14.9187C13.0984 14.9187 12.7117 15.3054 12.7117 15.7781V15.864C12.6344 15.8812 12.5656 15.8984 12.4883 15.9242C11.543 16.2078 10.8211 17.1273 10.7437 18.1585C10.6664 19.1812 11.2078 20.0664 12.1961 20.5304C12.3164 20.582 12.4883 20.6593 12.7117 20.7453V23.1601C12.4453 23.057 12.2133 22.9109 12.0586 22.7132C11.7578 22.3437 11.2164 22.2835 10.8469 22.5843C10.4773 22.8851 10.4172 23.4265 10.718 23.796C11.2336 24.432 11.9726 24.7843 12.7117 24.9562C12.7203 25.4203 13.107 25.7898 13.5711 25.7898C14.018 25.7898 14.3875 25.446 14.4305 25.0164C15.7367 24.8015 16.6562 23.9507 16.8023 22.7734C16.9828 21.4328 16.1062 20.1437 14.6797 19.6367ZM12.4711 18.2875C12.4883 18.0812 12.5828 17.8835 12.7203 17.746V18.846C12.5398 18.7 12.4539 18.5109 12.4711 18.2875ZM15.1094 22.5585C15.0664 22.8851 14.8344 23.1257 14.4476 23.2546V21.4156C14.9547 21.7164 15.1523 22.189 15.1094 22.5585Z" fill="#F99B2A"/>
<path d="M30.7414 7.81172H26.118V5.55156C26.118 2.49219 23.6258 0 20.5664 0H5.82811C2.76874 0 0.27655 2.49219 0.27655 5.55156V38.4484C0.27655 41.5078 2.76874 44 5.82811 44H20.5664C23.6258 44 26.118 41.5078 26.118 38.4484V32.8969H30.7414C32.3828 32.8969 33.7234 31.5562 33.7234 29.9148V10.7937C33.7234 9.14375 32.3914 7.81172 30.7414 7.81172ZM20.5664 42.2812H5.82811C3.71405 42.2812 1.9953 40.5625 1.9953 38.4484V37.632H24.3992V38.4484C24.3992 40.5625 22.6805 42.2812 20.5664 42.2812ZM24.3992 35.9133H1.9953V5.55156C1.9953 3.4375 3.71405 1.71875 5.82811 1.71875H20.5664C22.6805 1.71875 24.3992 3.4375 24.3992 5.55156V7.81172H8.95624V7.46797C8.95624 6.99531 8.56952 6.60859 8.09686 6.60859C7.62421 6.60859 7.23749 6.99531 7.23749 7.46797V33.1375C7.23749 33.6102 7.62421 33.9969 8.09686 33.9969C8.56952 33.9969 8.95624 33.6102 8.95624 33.1375V32.9055H24.3992V35.9133ZM8.95624 13.3117H24.7601C25.1125 15.0477 26.4875 16.4055 28.232 16.732V23.9852C26.4875 24.3031 25.1125 25.6695 24.7601 27.4055H8.95624V13.3117ZM32.0047 29.9148C32.0047 30.6109 31.4375 31.1781 30.7414 31.1781H8.95624V29.1156H25.5336C26.0062 29.1156 26.393 28.7289 26.393 28.2562C26.393 26.8039 27.5703 25.6266 29.0226 25.6266C29.0398 25.6266 29.057 25.6266 29.0742 25.6266C29.2976 25.6352 29.5297 25.5406 29.693 25.3773C29.8562 25.2141 29.9508 24.9906 29.9508 24.7672V15.9414C29.9508 15.7094 29.8562 15.4859 29.693 15.3312C29.5297 15.168 29.3062 15.082 29.0742 15.082C29.057 15.082 29.0398 15.082 29.0226 15.082C27.5703 15.082 26.393 13.9047 26.393 12.4523C26.393 11.9797 26.0062 11.593 25.5336 11.593H8.95624V9.53047H30.75C31.4461 9.53047 32.0133 10.0977 32.0133 10.7937L32.0047 29.9148Z" fill="#EE2E24"/>
</svg>
