<svg width="80" height="80" viewBox="0 0 80 80" fill="none" xmlns="http://www.w3.org/2000/svg">
<g filter="url(#filter0_d_1_562)">
<rect x="10" y="10" width="60" height="60" rx="30" fill="white"/>
<g clip-path="url(#clip0_1_562)">
<path d="M26.7221 57C26.6623 56.9735 26.6092 56.9469 26.5494 56.927C25.54 56.6215 24.9225 55.8047 24.9225 54.7489C24.9225 50.6981 24.9225 46.6473 24.9225 42.5965C24.9225 38.7383 24.9291 34.8735 24.9291 31.0153C24.9291 30.3313 25.135 29.7137 25.6795 29.2754C25.9451 29.0563 26.2771 28.9035 26.6025 28.784C26.8482 28.6977 26.9412 28.6047 26.9478 28.3258C26.981 26.659 28.017 25.4039 29.5908 25.0918C30.8459 24.8395 32.1541 25.3973 32.8779 26.4797C32.9377 26.5727 32.9975 26.6657 33.0639 26.7852C33.1768 26.7586 33.2896 26.7387 33.4025 26.7055C36.2779 25.8356 39.1533 24.959 42.0287 24.0891C42.135 24.0559 42.2412 24.0227 42.3475 23.9961C42.6529 23.9364 42.9053 24.0758 42.9783 24.3414C43.0514 24.6137 42.9119 24.866 42.6131 24.959C41.9955 25.1582 41.3646 25.3375 40.7404 25.5301C37.7455 26.4399 34.7572 27.343 31.7623 28.2528C31.7025 28.2727 31.6361 28.2993 31.5564 28.3325C31.5564 29.3352 31.5564 30.3379 31.5564 31.3473C31.5564 32.2106 31.5564 33.0739 31.5564 33.9371C31.5564 35.0528 30.9787 35.916 30.0158 36.2614C29.0463 36.6067 28.0768 36.2946 27.3662 35.418C27.3396 35.3848 27.3064 35.3582 27.2068 35.252C27.3131 35.6106 27.3861 35.8828 27.4658 36.1551C28.1564 38.4395 28.8537 40.7239 29.5443 43.0016C29.5443 43.0149 29.551 43.0215 29.551 43.0348C29.6771 43.4532 29.5709 43.7254 29.2521 43.825C28.9467 43.918 28.7143 43.7453 28.5814 43.3137C28.4154 42.7758 28.256 42.2313 28.0967 41.6934C27.4193 39.4621 26.742 37.2309 26.0646 34.9996C26.0314 34.9 25.9982 34.8004 25.9119 34.7075C25.9119 34.8137 25.9119 34.9133 25.9119 35.0196C25.9119 41.5739 25.9119 48.1215 25.9119 54.6758C25.9119 55.5059 26.3967 55.9973 27.2268 55.9973C33.7014 55.9973 40.176 55.9973 46.6506 55.9973C47.3611 55.9973 47.7795 55.6653 47.9521 54.968C48.0385 54.6227 48.2709 54.4633 48.5764 54.5364C48.8553 54.6028 49.0014 54.8618 48.9283 55.1871C48.7557 56.0106 48.2775 56.575 47.4873 56.8739C47.3744 56.9137 47.2615 56.9602 47.1553 57C40.3553 57 33.542 57 26.7221 57ZM32.0678 27.1106C31.5299 26.2473 30.5471 25.8688 29.5908 26.1278C28.6279 26.3868 27.9705 27.2235 27.9572 28.2926C27.9373 30.2051 27.9439 32.1243 27.9572 34.0368C27.9639 34.827 28.515 35.3848 29.2521 35.3848C29.9959 35.3848 30.5603 34.8004 30.5603 34.0102C30.567 32.1508 30.5603 30.2914 30.5603 28.4321C30.5603 28.0801 30.4209 27.9008 30.1553 27.9008C29.8896 27.9008 29.7568 28.0735 29.7568 28.4321C29.7568 29.5278 29.7568 30.6235 29.7568 31.7192C29.7568 32.2172 29.7635 32.7153 29.7502 33.2133C29.7369 33.625 29.4049 33.8707 29.0596 33.7313C28.7939 33.6184 28.7408 33.3926 28.7408 33.1336C28.7475 31.5399 28.7541 29.9461 28.7541 28.3524C28.7541 27.7481 28.9865 27.2965 29.531 27.0375C30.0822 26.7785 30.6002 26.8516 31.085 27.2368C31.1646 27.2965 31.3041 27.3297 31.4037 27.3098C31.6295 27.2633 31.8353 27.1836 32.0678 27.1106ZM26.9279 29.7934C26.2041 29.8664 25.7924 30.5571 26.0182 31.3274C26.2771 32.2039 26.5494 33.0805 26.815 33.9571C26.835 34.0168 26.8682 34.0766 26.9279 34.2028C26.9279 32.6821 26.9279 31.2344 26.9279 29.7934Z" fill="#EE2E24"/>
<path d="M46.3119 23C46.3385 23.0133 46.365 23.0398 46.3982 23.0465C47.2947 23.2523 47.8326 23.8168 48.0982 24.6867C50.3228 32.0246 52.5475 39.3559 54.7721 46.6937C54.8916 47.0855 55.0311 47.4773 55.0709 47.8824C55.1705 48.9383 54.5396 49.8281 53.4838 50.1602C52.1025 50.5918 50.7146 51.0102 49.3268 51.4152C49.0545 51.4949 48.9549 51.6078 48.9748 51.8934C49.0014 52.2586 48.9881 52.6238 48.9748 52.9891C48.9682 53.3078 48.7756 53.5004 48.49 53.5004C48.2111 53.5004 47.9986 53.3078 47.9853 52.9957C47.9721 52.6238 47.9853 52.2453 47.9853 51.8336C47.1486 52.0859 46.3451 52.325 45.5482 52.5707C41.9889 53.6531 38.4228 54.7289 34.8635 55.8113C33.4889 56.223 32.3467 55.6188 31.9349 54.2574C31.0584 51.3621 30.1818 48.4668 29.3119 45.5648C29.2588 45.3988 29.2389 45.1664 29.3185 45.0336C29.3916 44.9008 29.6306 44.768 29.7635 44.7945C29.9295 44.8277 30.142 44.9937 30.2084 45.1531C30.3943 45.6113 30.5139 46.0961 30.6599 46.5742C31.4037 49.0246 32.1474 51.4816 32.8912 53.932C33.1568 54.802 33.7146 55.1074 34.5912 54.8484C40.0697 53.1949 45.5416 51.5348 51.0201 49.8746C51.7174 49.6621 52.4146 49.4563 53.1119 49.2371C53.9353 48.9781 54.2475 48.3871 54.0018 47.5703C51.724 40.0664 49.4529 32.5625 47.1752 25.0586C46.9029 24.1621 46.3252 23.8566 45.4221 24.1355C45.1564 24.2152 44.8975 24.3016 44.6252 24.3746C44.3064 24.4609 44.0475 24.3281 43.9611 24.0492C43.8748 23.777 44.0275 23.518 44.3396 23.4117C44.758 23.2723 45.1764 23.1461 45.5947 23.0133C45.8271 23 46.0662 23 46.3119 23Z" fill="#EE2E24"/>
<path d="M37.4865 31.1481C37.8053 31.168 38.1174 31.1614 38.4162 31.2212C38.8146 31.3008 38.9873 31.593 38.9076 31.945C38.8213 32.3169 38.5822 32.4231 38.1572 32.4098C37.8053 32.3965 37.44 32.463 37.1014 32.5559C36.849 32.6223 36.7096 32.8348 36.7494 33.1204C36.7893 33.4126 36.9619 33.5852 37.2408 33.6184C37.6592 33.6715 38.0775 33.7047 38.4893 33.7512C40.1959 33.9438 40.6142 36.0489 39.9568 36.8989C39.8771 37.0051 39.7975 37.118 39.6978 37.1977C39.4853 37.3505 39.3658 37.4899 39.4521 37.7887C39.5318 38.061 39.2928 38.3532 39.0072 38.4395C38.7283 38.5258 38.3963 38.4063 38.29 38.1141C38.1971 37.8485 38.0377 37.8352 37.7986 37.802C37.46 37.7489 37.108 37.6493 36.8025 37.4899C36.4771 37.3172 36.4041 36.9719 36.5436 36.6598C36.6963 36.3145 36.9951 36.2149 37.367 36.4274C37.7521 36.6532 38.1373 36.6731 38.5424 36.5071C38.8146 36.3942 39.0271 36.2282 39.0205 35.8962C39.0072 35.5508 38.9143 35.2255 38.5623 35.0794C38.3498 34.993 38.1174 34.9731 37.885 34.9399C37.5463 34.8934 37.201 34.8735 36.8689 34.8137C36.1451 34.6809 35.7533 34.1895 35.574 33.5055C35.3947 32.8215 35.5674 32.2438 36.1053 31.7723C36.185 31.7059 36.2514 31.5598 36.2381 31.4602C36.165 30.9821 36.2912 30.67 36.6498 30.5704C36.9951 30.4708 37.2674 30.6368 37.4533 31.0684C37.4533 31.1149 37.4799 31.1415 37.4865 31.1481Z" fill="#F99B2A"/>
<path d="M34.7838 48.3273C34.4584 48.3207 34.2924 48.1679 34.2459 47.909C34.1994 47.6301 34.3322 47.4375 34.6045 47.3512C35.2154 47.1586 35.8264 46.9726 36.4439 46.7867C40.5013 45.5582 44.5588 44.323 48.6162 43.0945C48.6826 43.0746 48.7424 43.0547 48.8088 43.0414C49.1674 42.9418 49.4197 43.048 49.5127 43.3269C49.6123 43.6258 49.4662 43.8781 49.101 43.9976C47.5404 44.4758 45.9732 44.9539 44.4127 45.4254C41.3381 46.3617 38.2635 47.2914 35.1889 48.2211C35.0295 48.2676 34.8767 48.3008 34.7838 48.3273Z" fill="#F99B2A"/>
<path d="M33.9338 45.5848C33.6615 45.5649 33.4689 45.4454 33.4158 45.1797C33.3627 44.8875 33.4955 44.6817 33.7744 44.5954C34.4916 44.3696 35.2088 44.1504 35.926 43.9379C39.8639 42.7426 43.8084 41.5473 47.7463 40.352C47.8525 40.3188 47.9588 40.2856 48.065 40.2657C48.3705 40.2125 48.6295 40.352 48.6826 40.6243C48.7424 40.9165 48.6162 41.1223 48.3373 41.2153C47.8857 41.3614 47.4342 41.5008 46.976 41.6403C42.7392 42.9286 38.5025 44.2102 34.2658 45.4918C34.1529 45.525 34.04 45.5516 33.9338 45.5848Z" fill="#F99B2A"/>
<path d="M33.1303 42.8156C32.8182 42.8156 32.6322 42.6894 32.5791 42.4304C32.5193 42.1382 32.6522 41.9324 32.9377 41.846C33.4756 41.68 34.0135 41.514 34.5514 41.348C38.6951 40.0929 42.8389 38.8378 46.976 37.5828C47.4608 37.4367 47.7397 37.5164 47.8393 37.8285C47.9455 38.1738 47.7662 38.3929 47.2615 38.5457C42.6994 39.9269 38.1307 41.3148 33.5686 42.6961C33.4092 42.7425 33.2498 42.7824 33.1303 42.8156Z" fill="#F99B2A"/>
<path d="M35.5807 51.0898C35.3084 51.0566 35.1357 50.9371 35.0892 50.6848C35.0361 50.3926 35.1557 50.1867 35.4412 50.0937C36.0654 49.9012 36.6896 49.7152 37.3139 49.5293C41.358 48.3008 45.4088 47.0723 49.4529 45.8437C49.5459 45.8172 49.6455 45.784 49.7385 45.7641C50.0307 45.7109 50.2697 45.8371 50.3494 46.0895C50.4291 46.3551 50.3029 46.6141 50.0107 46.7137C49.6455 46.8398 49.2736 46.9461 48.9018 47.059C44.5787 48.3738 40.2623 49.682 35.9392 50.9902C35.8131 51.0301 35.6803 51.0633 35.5807 51.0898Z" fill="#F99B2A"/>
</g>
</g>
<defs>
<filter id="filter0_d_1_562" x="0" y="0" width="80" height="80" filterUnits="userSpaceOnUse" color-interpolation-filters="sRGB">
<feFlood flood-opacity="0" result="BackgroundImageFix"/>
<feColorMatrix in="SourceAlpha" type="matrix" values="0 0 0 0 0 0 0 0 0 0 0 0 0 0 0 0 0 0 127 0" result="hardAlpha"/>
<feOffset/>
<feGaussianBlur stdDeviation="5"/>
<feComposite in2="hardAlpha" operator="out"/>
<feColorMatrix type="matrix" values="0 0 0 0 0 0 0 0 0 0 0 0 0 0 0 0 0 0 0.1 0"/>
<feBlend mode="normal" in2="BackgroundImageFix" result="effect1_dropShadow_1_562"/>
<feBlend mode="normal" in="SourceGraphic" in2="effect1_dropShadow_1_562" result="shape"/>
</filter>
<clipPath id="clip0_1_562">
<rect width="30.1551" height="34" fill="white" transform="translate(24.9225 23)"/>
</clipPath>
</defs>
</svg>
