<svg width="81" height="80" viewBox="0 0 81 80" fill="none" xmlns="http://www.w3.org/2000/svg">
<g filter="url(#filter0_d_1_541)">
<rect x="10.6667" y="10" width="60" height="60" rx="30" fill="white"/>
<path d="M33.189 33.4996H26.4059C25.5879 33.4996 24.9224 34.1651 24.9224 34.9831V40.3381C24.9224 41.156 25.5879 41.8215 26.4059 41.8215H33.1889C34.0068 41.8215 34.6723 41.156 34.6723 40.3381V34.9831C34.6723 34.1651 34.0069 33.4996 33.189 33.4996ZM33.4904 34.9831V37.0696H30.3883V34.6815H33.1889C33.3552 34.6815 33.4904 34.8168 33.4904 34.9831ZM26.1043 40.3381V34.9831C26.1043 34.8168 26.2396 34.6815 26.4059 34.6815H29.2064V40.6396H26.4059C26.2396 40.6396 26.1043 40.5043 26.1043 40.3381ZM33.189 40.6396H30.3884V38.2515H33.4905V40.338C33.4904 40.5043 33.3552 40.6396 33.189 40.6396Z" fill="#F99B2A"/>
<path d="M24.9224 48.6492C24.9224 48.9756 25.187 49.2401 25.5134 49.2401H42.9034C43.2298 49.2401 43.4943 48.9756 43.4943 48.6492C43.4943 48.3227 43.2298 48.0582 42.9034 48.0582H25.5134C25.187 48.0582 24.9224 48.3227 24.9224 48.6492Z" fill="#F99B2A"/>
<path d="M25.5134 50.3087C25.187 50.3087 24.9224 50.5732 24.9224 50.8997C24.9224 51.2261 25.187 51.4906 25.5134 51.4906H34.2084C34.5348 51.4906 34.7993 51.2261 34.7993 50.8997C34.7993 50.5732 34.5348 50.3087 34.2084 50.3087H25.5134Z" fill="#F99B2A"/>
<path d="M36.0082 45.8297V44.401C36.0082 44.0746 35.7436 43.8101 35.4173 43.8101C35.0909 43.8101 34.8263 44.0746 34.8263 44.401V45.8297C34.8263 46.1561 35.0909 46.4207 35.4173 46.4207C35.7436 46.4207 36.0082 46.1561 36.0082 45.8297Z" fill="#EE2E24"/>
<path d="M38.7093 45.8297V44.401C38.7093 44.0746 38.4447 43.8101 38.1184 43.8101C37.792 43.8101 37.5274 44.0746 37.5274 44.401V45.8297C37.5274 46.1561 37.792 46.4207 38.1184 46.4207C38.4447 46.4207 38.7093 46.1561 38.7093 45.8297Z" fill="#EE2E24"/>
<path d="M41.4103 45.8297V44.401C41.4103 44.0746 41.1457 43.8101 40.8194 43.8101C40.493 43.8101 40.2284 44.0746 40.2284 44.401V45.8297C40.2284 46.1561 40.493 46.4207 40.8194 46.4207C41.1457 46.4207 41.4103 46.1561 41.4103 45.8297Z" fill="#EE2E24"/>
<path d="M44.1115 45.8297V44.401C44.1115 44.0746 43.8469 43.8101 43.5205 43.8101C43.1942 43.8101 42.9296 44.0746 42.9296 44.401V45.8297C42.9296 46.1561 43.1942 46.4207 43.5205 46.4207C43.8469 46.4207 44.1115 46.1561 44.1115 45.8297Z" fill="#EE2E24"/>
<path d="M47.4313 44.401V45.8297C47.4313 46.1561 47.6959 46.4207 48.0222 46.4207C48.3486 46.4207 48.6132 46.1561 48.6132 45.8297V44.401C48.6132 44.0746 48.3486 43.8101 48.0222 43.8101C47.6959 43.8101 47.4313 44.0746 47.4313 44.401Z" fill="#EE2E24"/>
<path d="M50.1323 44.401V45.8297C50.1323 46.1561 50.3969 46.4207 50.7233 46.4207C51.0497 46.4207 51.3142 46.1561 51.3142 45.8297V44.401C51.3142 44.0746 51.0497 43.8101 50.7233 43.8101C50.3969 43.8101 50.1323 44.0746 50.1323 44.401Z" fill="#EE2E24"/>
<path d="M52.8334 44.401V45.8297C52.8334 46.1561 53.098 46.4207 53.4244 46.4207C53.7507 46.4207 54.0153 46.1561 54.0153 45.8297V44.401C54.0153 44.0746 53.7507 43.8101 53.4244 43.8101C53.098 43.8101 52.8334 44.0746 52.8334 44.401Z" fill="#EE2E24"/>
<path d="M25.5134 46.4207C25.8398 46.4207 26.1043 46.1561 26.1043 45.8297V44.401C26.1043 44.0746 25.8398 43.8101 25.5134 43.8101C25.187 43.8101 24.9224 44.0746 24.9224 44.401V45.8297C24.9224 46.1561 25.187 46.4207 25.5134 46.4207Z" fill="#EE2E24"/>
<path d="M28.8054 45.8297V44.401C28.8054 44.0746 28.5408 43.8101 28.2145 43.8101C27.8881 43.8101 27.6235 44.0746 27.6235 44.401V45.8297C27.6235 46.1561 27.8881 46.4207 28.2145 46.4207C28.5408 46.4207 28.8054 46.1561 28.8054 45.8297Z" fill="#EE2E24"/>
<path d="M31.5065 45.8297V44.401C31.5065 44.0746 31.2419 43.8101 30.9155 43.8101C30.5891 43.8101 30.3246 44.0746 30.3246 44.401V45.8297C30.3246 46.1561 30.5891 46.4207 30.9155 46.4207C31.2419 46.4207 31.5065 46.1561 31.5065 45.8297Z" fill="#EE2E24"/>
<path d="M60.8379 31.0036C60.8379 27.6932 58.1447 25 54.8343 25C51.8692 25 49.401 27.1612 48.9179 29.9907H33.6264C33.3001 29.9907 33.0355 30.2552 33.0355 30.5816C33.0355 30.9081 33.3001 31.1726 33.6264 31.1726H48.833C48.9234 34.4259 51.6086 37.006 54.832 37.0072C54.8328 37.0072 54.8335 37.0073 54.8343 37.0073C54.8351 37.0073 54.8343 37.0073 54.8343 37.0073C54.8349 37.0073 54.8356 37.0072 54.8363 37.0072C55.6995 37.0069 56.5365 36.817 57.2604 36.4967V46.4347C57.2604 46.7612 57.525 47.0257 57.8514 47.0257C58.1778 47.0257 58.4424 46.7612 58.4424 46.4347V35.7986C59.8962 34.7019 60.8379 32.9608 60.8379 31.0036ZM54.8343 26.1819C57.493 26.1819 59.656 28.345 59.656 31.0036C59.656 33.6674 57.4869 35.8253 54.8343 35.8253C52.1235 35.8253 49.9068 33.569 50.0175 30.8083C50.1412 28.1529 52.3101 26.1819 54.8343 26.1819Z" fill="#EE2E24"/>
<path d="M53.1996 33.2781C53.3996 33.6022 53.8503 33.6555 54.1204 33.3856L57.9427 29.5632C58.1734 29.3324 58.1734 28.9583 57.9427 28.7275C57.7119 28.4968 57.3377 28.4968 57.107 28.7275L53.813 32.0215L52.5384 29.9562C52.3671 29.6784 52.0029 29.5923 51.7252 29.7636C51.4474 29.9351 51.3612 30.2992 51.5326 30.5768L53.1996 33.2781Z" fill="#F99B2A"/>
<path d="M57.8514 48.6018C57.525 48.6018 57.2604 48.8663 57.2604 49.1927V51.63C57.2604 52.8365 56.2788 53.8182 55.0722 53.8182H23.8656C22.6589 53.8182 21.6773 52.8365 21.6773 51.63V33.361C21.6773 32.1544 22.6589 31.1728 23.8656 31.1728H30.8686C31.195 31.1728 31.4596 30.9082 31.4596 30.5818C31.4596 30.2554 31.195 29.9908 30.8686 29.9908H23.8656C22.0073 29.9908 20.4954 31.5027 20.4954 33.361V51.6299C20.4954 53.4882 22.0073 55 23.8656 55H55.0722C56.9305 55 58.4424 53.4881 58.4424 51.6299V49.1926C58.4424 48.8663 58.1778 48.6018 57.8514 48.6018Z" fill="#EE2E24"/>
<path d="M54.7302 40.9131V39.1662C54.7302 38.6653 54.3226 38.2577 53.8216 38.2577H47.7868C47.2858 38.2577 46.8782 38.6653 46.8782 39.1662V40.9131C46.8782 41.4141 47.2858 41.8217 47.7868 41.8217H53.8216C54.3226 41.8217 54.7302 41.4141 54.7302 40.9131ZM53.5483 40.6398H48.06V39.4396H53.5483V40.6398Z" fill="#EE2E24"/>
</g>
<defs>
<filter id="filter0_d_1_541" x="0.666668" y="0" width="80" height="80" filterUnits="userSpaceOnUse" color-interpolation-filters="sRGB">
<feFlood flood-opacity="0" result="BackgroundImageFix"/>
<feColorMatrix in="SourceAlpha" type="matrix" values="0 0 0 0 0 0 0 0 0 0 0 0 0 0 0 0 0 0 127 0" result="hardAlpha"/>
<feOffset/>
<feGaussianBlur stdDeviation="5"/>
<feComposite in2="hardAlpha" operator="out"/>
<feColorMatrix type="matrix" values="0 0 0 0 0 0 0 0 0 0 0 0 0 0 0 0 0 0 0.1 0"/>
<feBlend mode="normal" in2="BackgroundImageFix" result="effect1_dropShadow_1_541"/>
<feBlend mode="normal" in="SourceGraphic" in2="effect1_dropShadow_1_541" result="shape"/>
</filter>
</defs>
</svg>
