<svg width="81" height="80" viewBox="0 0 81 80" fill="none" xmlns="http://www.w3.org/2000/svg">
<g filter="url(#filter0_d_1_573)">
<rect x="10.3333" y="10" width="60" height="60" rx="30" fill="white"/>
<path d="M21.077 43.4648C21.3026 42.3365 21.4907 41.2007 21.7615 40.0874C22.288 37.9361 22.8145 35.7848 23.4313 33.6561C24.349 30.4968 27.1848 28.3155 30.4644 28.1876C36.1812 27.9619 41.8904 27.9469 47.6071 28.1048C48.8558 28.1424 50.1345 28.1048 51.3531 28.3455C54.3394 28.9398 56.3402 30.7827 57.2429 33.6862C58.1906 36.71 58.9128 39.7941 59.4844 42.9157C59.5145 43.0962 59.5521 43.2843 59.5897 43.4648C59.5897 43.9387 59.5897 44.4201 59.5897 44.894C59.492 45.3528 59.4243 45.8267 59.2889 46.2781C58.0552 50.6408 53.6925 52.6643 49.9014 51.8067C49.5102 51.7165 49.2996 51.4382 49.3673 51.1222C49.4425 50.7687 49.7509 50.6258 50.2022 50.7161C52.4363 51.1599 54.4597 50.6935 56.1597 49.1891C58.1305 47.4515 58.8375 45.225 58.2659 42.6675C57.634 39.8242 56.9495 36.9883 56.1898 34.1751C55.415 31.3092 53.0681 29.4964 50.1045 29.3159C49.6983 29.2933 49.2846 29.2783 48.8483 29.2557C48.8182 29.5867 48.7956 29.88 48.758 30.1734C48.5624 31.7305 47.3439 32.8964 45.7718 32.9189C42.59 32.9565 39.3931 32.949 36.1962 32.9565C36.121 32.9565 36.0458 32.9565 35.9706 32.949C35.6321 32.9114 35.429 32.7008 35.4365 32.3924C35.4365 32.084 35.6471 31.8583 35.9856 31.8358C36.2564 31.8207 36.5347 31.8583 36.813 31.8508C39.7842 31.8358 42.7554 31.8282 45.7266 31.7906C46.7496 31.7756 47.5169 31.061 47.6598 30.038C47.6974 29.7898 47.6974 29.5415 47.7275 29.2256C42.8081 29.0902 37.9188 29.0977 33.0295 29.2181C32.8188 30.0681 33.1949 30.9858 33.9246 31.4897C34.0675 31.5875 34.2555 31.7154 34.2781 31.8508C34.3082 32.0464 34.2555 32.3021 34.1427 32.4601C33.9923 32.6707 33.729 32.6782 33.4958 32.5428C32.6082 32.0464 32.0666 31.3017 31.9087 30.2937C31.856 29.9628 31.841 29.6243 31.8109 29.2933C28.4184 29.0225 25.4773 30.7601 24.4769 34.0698C23.5893 37.0184 22.8521 40.0122 22.303 43.0436C21.6486 46.6617 24.1309 50.1293 27.7941 50.7537C31.1113 51.3253 34.3082 49.4599 35.3237 46.3608C35.3387 46.3006 35.3538 46.248 35.3688 46.1953C33.4131 45.1874 32.6985 43.9387 33.1197 42.2914C33.4808 40.8923 34.8347 39.8843 36.279 39.937C37.9639 40.0047 38.9794 41.0653 39.3705 43.1865C40.0099 43.1865 40.6493 43.1865 41.2886 43.1865C41.755 40.9825 42.7855 39.937 44.4855 39.9295C45.9673 39.9295 47.2386 40.9525 47.5695 42.4193C47.9306 44.0214 47.1558 45.3077 45.2904 46.1803C45.5386 47.0603 45.9598 47.8502 46.5766 48.5196C47.0129 48.9935 47.5319 49.3997 48.0434 49.7984C48.4045 50.0842 48.5248 50.3851 48.3142 50.6784C48.1186 50.9568 47.7952 50.9868 47.4191 50.7386C45.862 49.7231 44.7789 48.3391 44.2298 46.5564C44.1545 46.3081 44.0342 46.2104 43.7784 46.1502C42.8758 45.9471 42.1838 45.4356 41.7475 44.6157C41.6271 44.3975 41.4993 44.3223 41.251 44.3298C40.6117 44.3449 39.9723 44.3223 39.3329 44.3449C39.205 44.3524 39.032 44.4502 38.9643 44.563C38.4679 45.413 37.7683 45.9546 36.8055 46.1803C36.6701 46.2104 36.5122 46.3608 36.467 46.4962C35.4064 49.5652 33.2777 51.4306 30.0883 51.9045C25.8835 52.5364 21.8141 49.7307 21.1522 45.2475C21.1371 45.1497 21.107 45.0595 21.077 44.9617C21.077 44.4652 21.077 43.9613 21.077 43.4648ZM46.5165 43.1113C46.524 41.9905 45.6213 41.0653 44.5081 41.0653C43.4023 41.0578 42.4696 41.983 42.4696 43.0962C42.4696 44.1945 43.3798 45.1121 44.4705 45.1197C45.5988 45.1272 46.5089 44.2396 46.5165 43.1113ZM36.1812 45.1197C37.2794 45.1197 38.1896 44.217 38.2046 43.1188C38.2197 42.0131 37.2944 41.0728 36.1887 41.0653C35.0679 41.0578 34.1578 41.9679 34.1578 43.0962C34.1502 44.2245 35.0454 45.1197 36.1812 45.1197Z" fill="#EE2E24"/>
<path d="M27.0269 35.326C27.3353 33.784 28.08 33.0619 29.3362 33.0619C30.5848 33.0694 31.3596 33.8216 31.6379 35.3185C33.2175 35.7021 33.9246 36.4318 33.9095 37.6578C33.8945 38.8839 33.1498 39.6361 31.6379 39.9521C31.3596 41.4414 30.5848 42.2087 29.3437 42.2162C28.1101 42.2237 27.3202 41.464 27.0269 39.937C26.2897 39.8768 25.6353 39.6136 25.1765 38.9742C24.853 38.5304 24.7327 38.034 24.7552 37.4848C24.8079 36.3415 25.515 35.657 27.0269 35.326ZM25.8835 37.6202C25.876 38.2446 26.2897 38.7034 26.9291 38.7786C27.1397 38.8012 27.3579 38.7862 27.5685 38.8012C27.9446 38.8238 28.1401 39.0118 28.1627 39.3804C28.1778 39.6061 28.1702 39.8317 28.2003 40.0574C28.2755 40.6892 28.7193 41.0879 29.3286 41.0879C29.9454 41.0879 30.4118 40.6516 30.472 40.0198C30.487 39.8618 30.4795 39.6963 30.487 39.5308C30.5021 38.9892 30.6751 38.8087 31.2091 38.7937C31.4423 38.7862 31.6905 38.7862 31.9162 38.7335C32.4503 38.6207 32.7963 38.1543 32.7888 37.6127C32.7812 37.0636 32.4202 36.6198 31.8786 36.522C31.6379 36.4769 31.3821 36.4769 31.1339 36.4694C30.6976 36.4468 30.5021 36.2588 30.487 35.815C30.4795 35.6043 30.4945 35.3862 30.4645 35.1756C30.3892 34.5738 29.9304 34.1827 29.3362 34.1827C28.7344 34.1827 28.2906 34.5663 28.2078 35.1681C28.1778 35.4012 28.1778 35.6419 28.1627 35.8827C28.1326 36.2588 27.9446 36.4393 27.5685 36.4694C27.3052 36.4844 27.0419 36.4769 26.7862 36.522C26.2371 36.6273 25.8911 37.0711 25.8835 37.6202Z" fill="#F99B2A"/>
<path d="M40.4311 38.1995C39.882 38.1995 39.3254 38.207 38.7763 38.1995C37.8887 38.192 37.1967 37.5451 37.1515 36.7026C37.1064 35.8075 37.7006 35.0553 38.6033 35.0102C39.8143 34.9575 41.0329 34.9575 42.2439 35.0177C43.1015 35.0553 43.7258 35.8225 43.6957 36.6424C43.6581 37.515 42.9736 38.1845 42.086 38.1995C41.5369 38.207 40.9878 38.1995 40.4311 38.1995ZM40.4161 37.0712C40.9426 37.0712 41.4692 37.0637 41.9882 37.0712C42.3116 37.0787 42.5223 36.9358 42.5599 36.6123C42.59 36.334 42.3643 36.1234 42.0183 36.1234C40.9577 36.1159 39.8971 36.1159 38.8289 36.1234C38.4679 36.1234 38.2798 36.3115 38.2798 36.6048C38.2798 36.8982 38.4754 37.0712 38.8365 37.0712C39.3705 37.0787 39.8895 37.0712 40.4161 37.0712Z" fill="#F99B2A"/>
<path d="M52.7973 33.7614C53.9858 33.7539 54.9787 34.7468 54.9712 35.9428C54.9712 37.1388 53.9858 38.1242 52.7898 38.1167C51.6089 38.1167 50.631 37.1463 50.6235 35.9729C50.616 34.7393 51.5788 33.7614 52.7973 33.7614ZM52.7823 34.8897C52.2031 34.8972 51.7518 35.3711 51.7593 35.9578C51.7668 36.522 52.2332 36.9808 52.7898 36.9808C53.3615 36.9808 53.8429 36.4994 53.8354 35.9277C53.8354 35.3561 53.3615 34.8822 52.7823 34.8897Z" fill="#F99B2A"/>
<path d="M51.5637 39.3427C51.5637 40.5538 50.6009 41.5166 49.3899 41.5091C48.1863 41.5091 47.2085 40.5312 47.216 39.3352C47.2235 38.1317 48.1939 37.1613 49.3974 37.1538C50.5859 37.1538 51.5637 38.1392 51.5637 39.3427ZM50.4279 39.3202C50.4204 38.756 49.9615 38.2972 49.4049 38.2896C48.8332 38.2821 48.3593 38.756 48.3593 39.3427C48.3593 39.9294 48.8182 40.3883 49.4049 40.3808C49.9916 40.3732 50.4354 39.9144 50.4279 39.3202Z" fill="#F99B2A"/>
</g>
<defs>
<filter id="filter0_d_1_573" x="0.333344" y="0" width="80" height="80" filterUnits="userSpaceOnUse" color-interpolation-filters="sRGB">
<feFlood flood-opacity="0" result="BackgroundImageFix"/>
<feColorMatrix in="SourceAlpha" type="matrix" values="0 0 0 0 0 0 0 0 0 0 0 0 0 0 0 0 0 0 127 0" result="hardAlpha"/>
<feOffset/>
<feGaussianBlur stdDeviation="5"/>
<feComposite in2="hardAlpha" operator="out"/>
<feColorMatrix type="matrix" values="0 0 0 0 0 0 0 0 0 0 0 0 0 0 0 0 0 0 0.1 0"/>
<feBlend mode="normal" in2="BackgroundImageFix" result="effect1_dropShadow_1_573"/>
<feBlend mode="normal" in="SourceGraphic" in2="effect1_dropShadow_1_573" result="shape"/>
</filter>
</defs>
</svg>
