<svg width="81" height="80" viewBox="0 0 81 80" fill="none" xmlns="http://www.w3.org/2000/svg">
<g filter="url(#filter0_d_1_582)">
<rect x="10.6667" y="10" width="60" height="60" rx="30" fill="white"/>
<path d="M38.6159 52.0352C38.5221 51.8067 38.2819 51.6544 38.0358 51.6778C37.7897 51.6954 37.5846 51.8653 37.5143 52.0997C37.444 52.334 37.5377 52.5919 37.737 52.7383C37.9303 52.879 38.2057 52.8848 38.4049 52.7501C38.6276 52.5919 38.7213 52.2872 38.6159 52.0352Z" fill="#EE2E24"/>
<path d="M41.0593 28.3691H41.5515C41.8737 28.3691 42.1374 28.1055 42.1374 27.7832C42.1374 27.4609 41.8737 27.1973 41.5515 27.1973H41.0593C40.737 27.1973 40.4734 27.4609 40.4734 27.7832C40.4734 28.1055 40.737 28.3691 41.0593 28.3691Z" fill="#F99B2A"/>
<path d="M34.5964 28.3691H38.5808C38.903 28.3691 39.1667 28.1055 39.1667 27.7832C39.1667 27.4609 38.903 27.1973 38.5808 27.1973H34.5964C34.2741 27.1973 34.0105 27.4609 34.0105 27.7832C34.0105 28.1055 34.2741 28.3691 34.5964 28.3691Z" fill="#F99B2A"/>
<path d="M44.6745 37.17C43.7311 37.17 42.9694 37.9376 42.9694 38.8751C42.9694 39.8126 43.7311 40.5861 44.6745 40.5861C45.6178 40.5861 46.3795 39.8185 46.3795 38.881C46.3795 37.9435 45.612 37.17 44.6745 37.17ZM44.6745 39.4142C44.3815 39.4142 44.1413 39.1739 44.1413 38.881C44.1413 38.588 44.3815 38.3478 44.6745 38.3478C44.9674 38.3478 45.2077 38.588 45.2077 38.881C45.2077 39.1739 44.9674 39.4142 44.6745 39.4142Z" fill="#F99B2A"/>
<path d="M39.0847 38.3887C39.0261 38.3711 38.9734 38.3477 38.9206 38.3301V37C39.0202 37.0469 39.0847 37.1055 39.1257 37.1582C39.3132 37.4219 39.6765 37.4863 39.9402 37.2988C40.2038 37.1113 40.2683 36.748 40.0808 36.4844C39.8523 36.1562 39.4421 35.8809 38.9148 35.7754V35.7578C38.9148 35.4355 38.6511 35.1719 38.3288 35.1719C38.0066 35.1719 37.7429 35.4355 37.7429 35.7578V35.8164C37.6902 35.8281 37.6433 35.8398 37.5906 35.8574C36.946 36.0508 36.4538 36.6777 36.4011 37.3809C36.3484 38.0781 36.7175 38.6816 37.3913 38.998C37.4734 39.0332 37.5906 39.0859 37.7429 39.1445V40.791C37.5613 40.7207 37.4031 40.6211 37.2976 40.4863C37.0925 40.2344 36.7234 40.1934 36.4714 40.3984C36.2195 40.6035 36.1784 40.9727 36.3835 41.2246C36.7351 41.6582 37.239 41.8984 37.7429 42.0156C37.7488 42.332 38.0124 42.584 38.3288 42.584C38.6335 42.584 38.8855 42.3496 38.9148 42.0566C39.8054 41.9102 40.4324 41.3301 40.532 40.5273C40.655 39.6133 40.0574 38.7344 39.0847 38.3887ZM37.5788 37.4687C37.5906 37.3281 37.655 37.1934 37.7488 37.0996V37.8496C37.6257 37.75 37.5671 37.6211 37.5788 37.4687ZM39.3777 40.3809C39.3484 40.6035 39.1902 40.7676 38.9265 40.8555V39.6016C39.2722 39.8066 39.407 40.1289 39.3777 40.3809Z" fill="#F99B2A"/>
<path d="M50.0358 30.3262H46.8835V28.7852C46.8835 26.6992 45.1842 25 43.0983 25H33.0495C30.9635 25 29.2643 26.6992 29.2643 28.7852V51.2148C29.2643 53.3008 30.9635 55 33.0495 55H43.0983C45.1842 55 46.8835 53.3008 46.8835 51.2148V47.4297H50.0358C51.1549 47.4297 52.069 46.5156 52.069 45.3965V32.3594C52.069 31.2344 51.1608 30.3262 50.0358 30.3262ZM43.0983 53.8281H33.0495C31.6081 53.8281 30.4362 52.6562 30.4362 51.2148V50.6582H45.7116V51.2148C45.7116 52.6562 44.5397 53.8281 43.0983 53.8281ZM45.7116 49.4863H30.4362V28.7852C30.4362 27.3438 31.6081 26.1719 33.0495 26.1719H43.0983C44.5397 26.1719 45.7116 27.3438 45.7116 28.7852V30.3262H35.1823V30.0918C35.1823 29.7695 34.9186 29.5059 34.5963 29.5059C34.2741 29.5059 34.0104 29.7695 34.0104 30.0918V47.5938C34.0104 47.916 34.2741 48.1797 34.5963 48.1797C34.9186 48.1797 35.1823 47.916 35.1823 47.5938V47.4355H45.7116V49.4863ZM35.1823 34.0762H45.9577C46.1979 35.2598 47.1354 36.1855 48.3249 36.4082V41.3535C47.1354 41.5703 46.1979 42.502 45.9577 43.6855H35.1823V34.0762ZM50.8971 45.3965C50.8971 45.8711 50.5104 46.2578 50.0358 46.2578H35.1823V44.8516H46.485C46.8073 44.8516 47.071 44.5879 47.071 44.2656C47.071 43.2754 47.8737 42.4727 48.8639 42.4727C48.8756 42.4727 48.8874 42.4727 48.8991 42.4727C49.0514 42.4785 49.2096 42.4141 49.321 42.3027C49.4323 42.1914 49.4967 42.0391 49.4967 41.8867V35.8691C49.4967 35.7109 49.4323 35.5586 49.321 35.4531C49.2096 35.3418 49.0573 35.2832 48.8991 35.2832C48.8874 35.2832 48.8756 35.2832 48.8639 35.2832C47.8737 35.2832 47.071 34.4805 47.071 33.4902C47.071 33.168 46.8073 32.9043 46.485 32.9043H35.1823V31.498H50.0417C50.5163 31.498 50.903 31.8848 50.903 32.3594L50.8971 45.3965Z" fill="#EE2E24"/>
</g>
<defs>
<filter id="filter0_d_1_582" x="0.666656" y="0" width="80" height="80" filterUnits="userSpaceOnUse" color-interpolation-filters="sRGB">
<feFlood flood-opacity="0" result="BackgroundImageFix"/>
<feColorMatrix in="SourceAlpha" type="matrix" values="0 0 0 0 0 0 0 0 0 0 0 0 0 0 0 0 0 0 127 0" result="hardAlpha"/>
<feOffset/>
<feGaussianBlur stdDeviation="5"/>
<feComposite in2="hardAlpha" operator="out"/>
<feColorMatrix type="matrix" values="0 0 0 0 0 0 0 0 0 0 0 0 0 0 0 0 0 0 0.1 0"/>
<feBlend mode="normal" in2="BackgroundImageFix" result="effect1_dropShadow_1_582"/>
<feBlend mode="normal" in="SourceGraphic" in2="effect1_dropShadow_1_582" result="shape"/>
</filter>
</defs>
</svg>
