<svg width="40" height="40" viewBox="0 0 40 40" fill="none" xmlns="http://www.w3.org/2000/svg">
<rect width="40" height="40" rx="20" fill="#F99B2A"/>
<path d="M25.4056 29.6889C25.2187 29.6884 25.0325 29.6679 24.85 29.6278C21.3759 28.9091 18.1753 27.2241 15.6167 24.7667C13.1126 22.3038 11.3759 19.1681 10.6167 15.7389C10.5271 15.3115 10.5491 14.8683 10.6805 14.4518C10.8118 14.0354 11.0481 13.6598 11.3667 13.3611L13.5889 11.2222C13.7024 11.1149 13.8373 11.0327 13.9847 10.981C14.1321 10.9293 14.2888 10.9093 14.4444 10.9222C14.6059 10.9391 14.7616 10.9911 14.9008 11.0746C15.04 11.1581 15.1592 11.271 15.25 11.4056L18.0278 15.5111C18.1319 15.6704 18.1822 15.8589 18.1712 16.049C18.1602 16.239 18.0885 16.4204 17.9667 16.5667L16.5722 18.2333C17.1276 19.4625 17.9141 20.5734 18.8889 21.5056C19.8574 22.4716 21.0021 23.2429 22.2611 23.7778L23.9889 22.4056C24.134 22.2909 24.3106 22.2231 24.4952 22.2112C24.6797 22.1992 24.8636 22.2438 25.0222 22.3389L29.2167 25.05C29.3606 25.1359 29.4832 25.2533 29.5754 25.3934C29.6675 25.5335 29.7267 25.6926 29.7486 25.8588C29.7705 26.025 29.7546 26.194 29.7019 26.3531C29.6492 26.5123 29.5612 26.6575 29.4444 26.7778L27.2778 28.9222C27.0317 29.1671 26.7395 29.3609 26.4182 29.4925C26.0969 29.6241 25.7528 29.6908 25.4056 29.6889ZM14.3556 12.0222L12.1333 14.1611C11.9541 14.3281 11.8215 14.5388 11.7484 14.7726C11.6754 15.0064 11.6644 15.2551 11.7167 15.4944C12.4226 18.7123 14.0454 21.6568 16.3889 23.9722C18.7968 26.2842 21.8087 27.8691 25.0778 28.5444C25.3252 28.5962 25.5816 28.5857 25.824 28.5139C26.0664 28.4422 26.2872 28.3114 26.4667 28.1333L28.6333 25.9889L24.5833 23.3722L22.7278 24.85C22.6567 24.9062 22.573 24.9442 22.484 24.9607C22.3949 24.9771 22.3031 24.9716 22.2167 24.9444C20.6759 24.3768 19.2797 23.4757 18.1278 22.3056C16.9363 21.1929 16.0115 19.8256 15.4222 18.3056C15.3973 18.2135 15.3965 18.1166 15.4198 18.0242C15.4432 17.9318 15.4899 17.8469 15.5556 17.7778L17.0556 15.9833L14.3556 12.0222Z" fill="white"/>
</svg>
