<svg width="40" height="40" viewBox="0 0 40 40" fill="none" xmlns="http://www.w3.org/2000/svg">
<rect width="40" height="40" rx="20" fill="#F99B2A"/>
<path d="M13.3475 24.8675C13.4772 24.9977 13.5767 25.155 13.6387 25.3281C13.7007 25.5011 13.7238 25.6857 13.7062 25.8687C13.6184 26.7157 13.4518 27.5527 13.2087 28.3687C14.9525 27.965 16.0175 27.4975 16.5013 27.2525C16.7756 27.1135 17.0916 27.0806 17.3887 27.16C18.2405 27.3871 19.1185 27.5014 20 27.5C24.995 27.5 28.75 23.9913 28.75 20C28.75 16.01 24.995 12.5 20 12.5C15.005 12.5 11.25 16.01 11.25 20C11.25 21.835 12.0213 23.5375 13.3475 24.8675ZM12.7312 29.7487C12.4351 29.8075 12.138 29.8612 11.84 29.91C11.59 29.95 11.4 29.69 11.4987 29.4575C11.6097 29.1957 11.7115 28.9302 11.8037 28.6612L11.8075 28.6488C12.1175 27.7487 12.37 26.7138 12.4625 25.75C10.9288 24.2125 10 22.2 10 20C10 15.1675 14.4775 11.25 20 11.25C25.5225 11.25 30 15.1675 30 20C30 24.8325 25.5225 28.75 20 28.75C19.0096 28.7513 18.0232 28.6227 17.0662 28.3675C16.4162 28.6963 15.0175 29.295 12.7312 29.7487Z" fill="white"/>
</svg>
