<svg width="70" height="70" viewBox="0 0 70 70" fill="none" xmlns="http://www.w3.org/2000/svg">
<rect width="70" height="70" rx="35" fill="#EE2E24"/>
<path d="M34.9997 27.3634C28.4664 27.3634 23.151 32.3662 23.151 38.5151C23.151 38.7828 23.3818 39 23.6662 39C23.9505 39 24.1813 38.7828 24.1813 38.5151C24.1813 32.9005 29.0342 28.3331 34.9997 28.3331C40.9653 28.3331 45.8181 32.9005 45.8181 38.5151C45.8181 38.7828 46.0489 39 46.3333 39C46.6177 39 46.8485 38.7828 46.8485 38.5151C46.8484 32.3652 41.533 27.3634 34.9997 27.3634Z" fill="white"/>
<path d="M37.0083 17.8452L39.7474 14.1294H36.9337L34.3981 17.6871V14.1294H31.9375V21.8568H34.3981V18.299L38.7748 23.9498C37.6396 24.6461 36.332 25.0095 35.0008 24.9986C34.0765 25.0171 33.158 24.8486 32.3004 24.5029C31.4429 24.1573 30.6639 23.6419 30.0102 22.9874C29.3565 22.333 28.8416 21.553 28.4964 20.6945C28.1512 19.8359 27.9829 18.9163 28.0014 17.991C28.0057 16.1354 28.745 14.3572 30.0572 13.0466C31.3693 11.736 33.1471 11 35.0006 11C36.854 11 38.6318 11.736 39.944 13.0466C41.2561 14.3572 41.9954 16.1354 41.9997 17.991C42.0129 19.5571 41.5073 21.0833 40.5619 22.3311L37.0083 17.8452Z" fill="white"/>
<path d="M14.6196 49.69H12.5316V48.7H17.8776V49.69H15.7896V55H14.6196V49.69ZM20.2288 50.14C20.9368 50.14 21.4768 50.311 21.8488 50.653C22.2268 50.989 22.4158 51.499 22.4158 52.183V55H21.3538V54.415C21.2158 54.625 21.0178 54.787 20.7598 54.901C20.5078 55.009 20.2018 55.063 19.8418 55.063C19.4818 55.063 19.1668 55.003 18.8968 54.883C18.6268 54.757 18.4168 54.586 18.2668 54.37C18.1228 54.148 18.0508 53.899 18.0508 53.623C18.0508 53.191 18.2098 52.846 18.5278 52.588C18.8518 52.324 19.3588 52.192 20.0488 52.192H21.2908V52.12C21.2908 51.784 21.1888 51.526 20.9848 51.346C20.7868 51.166 20.4898 51.076 20.0938 51.076C19.8238 51.076 19.5568 51.118 19.2928 51.202C19.0348 51.286 18.8158 51.403 18.6358 51.553L18.1948 50.734C18.4468 50.542 18.7498 50.395 19.1038 50.293C19.4578 50.191 19.8328 50.14 20.2288 50.14ZM20.0758 54.244C20.3578 54.244 20.6068 54.181 20.8228 54.055C21.0448 53.923 21.2008 53.737 21.2908 53.497V52.939H20.1298C19.4818 52.939 19.1578 53.152 19.1578 53.578C19.1578 53.782 19.2388 53.944 19.4008 54.064C19.5628 54.184 19.7878 54.244 20.0758 54.244ZM18.5458 48.304H19.8688L21.0838 49.537H20.1118L18.5458 48.304ZM23.8596 50.194H24.9846V55H23.8596V50.194ZM24.4266 49.402C24.2226 49.402 24.0516 49.339 23.9136 49.213C23.7756 49.081 23.7066 48.919 23.7066 48.727C23.7066 48.535 23.7756 48.376 23.9136 48.25C24.0516 48.118 24.2226 48.052 24.4266 48.052C24.6306 48.052 24.8016 48.115 24.9396 48.241C25.0776 48.361 25.1466 48.514 25.1466 48.7C25.1466 48.898 25.0776 49.066 24.9396 49.204C24.8076 49.336 24.6366 49.402 24.4266 49.402ZM30.9104 52.939L30.0734 53.731V55H28.9484V48.322H30.0734V52.354L32.4044 50.194H33.7544L31.7474 52.21L33.9434 55H32.5754L30.9104 52.939ZM37.3971 50.14C38.0031 50.14 38.4891 50.317 38.8551 50.671C39.2211 51.025 39.4041 51.55 39.4041 52.246V55H38.2791V52.39C38.2791 51.97 38.1801 51.655 37.9821 51.445C37.7841 51.229 37.5021 51.121 37.1361 51.121C36.7221 51.121 36.3951 51.247 36.1551 51.499C35.9151 51.745 35.7951 52.102 35.7951 52.57V55H34.6701V48.322H35.7951V50.752C35.9811 50.554 36.2091 50.404 36.4791 50.302C36.7551 50.194 37.0611 50.14 37.3971 50.14ZM43.0352 55.063C42.5492 55.063 42.1112 54.958 41.7212 54.748C41.3312 54.538 41.0252 54.247 40.8032 53.875C40.5872 53.497 40.4792 53.071 40.4792 52.597C40.4792 52.123 40.5872 51.7 40.8032 51.328C41.0252 50.956 41.3312 50.665 41.7212 50.455C42.1112 50.245 42.5492 50.14 43.0352 50.14C43.5272 50.14 43.9682 50.245 44.3582 50.455C44.7482 50.665 45.0512 50.956 45.2672 51.328C45.4892 51.7 45.6002 52.123 45.6002 52.597C45.6002 53.071 45.4892 53.497 45.2672 53.875C45.0512 54.247 44.7482 54.538 44.3582 54.748C43.9682 54.958 43.5272 55.063 43.0352 55.063ZM43.0352 54.1C43.4492 54.1 43.7912 53.962 44.0612 53.686C44.3312 53.41 44.4662 53.047 44.4662 52.597C44.4662 52.147 44.3312 51.784 44.0612 51.508C43.7912 51.232 43.4492 51.094 43.0352 51.094C42.6212 51.094 42.2792 51.232 42.0092 51.508C41.7452 51.784 41.6132 52.147 41.6132 52.597C41.6132 53.047 41.7452 53.41 42.0092 53.686C42.2792 53.962 42.6212 54.1 43.0352 54.1ZM48.4505 50.14C49.1585 50.14 49.6985 50.311 50.0705 50.653C50.4485 50.989 50.6375 51.499 50.6375 52.183V55H49.5755V54.415C49.4375 54.625 49.2395 54.787 48.9815 54.901C48.7295 55.009 48.4235 55.063 48.0635 55.063C47.7035 55.063 47.3885 55.003 47.1185 54.883C46.8485 54.757 46.6385 54.586 46.4885 54.37C46.3445 54.148 46.2725 53.899 46.2725 53.623C46.2725 53.191 46.4315 52.846 46.7495 52.588C47.0735 52.324 47.5805 52.192 48.2705 52.192H49.5125V52.12C49.5125 51.784 49.4105 51.526 49.2065 51.346C49.0085 51.166 48.7115 51.076 48.3155 51.076C48.0455 51.076 47.7785 51.118 47.5145 51.202C47.2565 51.286 47.0375 51.403 46.8575 51.553L46.4165 50.734C46.6685 50.542 46.9715 50.395 47.3255 50.293C47.6795 50.191 48.0545 50.14 48.4505 50.14ZM48.2975 54.244C48.5795 54.244 48.8285 54.181 49.0445 54.055C49.2665 53.923 49.4225 53.737 49.5125 53.497V52.939H48.3515C47.7035 52.939 47.3795 53.152 47.3795 53.578C47.3795 53.782 47.4605 53.944 47.6225 54.064C47.7845 54.184 48.0095 54.244 48.2975 54.244ZM48.4055 49.213C48.5795 49.135 48.7025 49.051 48.7745 48.961C48.8525 48.865 48.8915 48.757 48.8915 48.637C48.8915 48.523 48.8495 48.43 48.7655 48.358C48.6815 48.28 48.5735 48.241 48.4415 48.241C48.2555 48.241 48.0755 48.298 47.9015 48.412L47.6585 47.917C47.7785 47.827 47.9165 47.758 48.0725 47.71C48.2285 47.662 48.3905 47.638 48.5585 47.638C48.8465 47.638 49.0835 47.722 49.2695 47.89C49.4555 48.052 49.5485 48.268 49.5485 48.538C49.5485 49.024 49.2905 49.387 48.7745 49.627L48.4055 49.213ZM54.8083 50.14C55.4143 50.14 55.9003 50.317 56.2663 50.671C56.6323 51.025 56.8153 51.55 56.8153 52.246V55H55.6903V52.39C55.6903 51.97 55.5913 51.655 55.3933 51.445C55.1953 51.229 54.9133 51.121 54.5473 51.121C54.1333 51.121 53.8063 51.247 53.5663 51.499C53.3263 51.745 53.2063 52.102 53.2063 52.57V55H52.0813V50.194H53.1523V50.815C53.3383 50.593 53.5723 50.425 53.8543 50.311C54.1363 50.197 54.4543 50.14 54.8083 50.14Z" fill="white"/>
</svg>
