<svg width="29" height="24" viewBox="0 0 29 24" fill="none" xmlns="http://www.w3.org/2000/svg">
<g clip-path="url(#clip0_950_31)">
<path fill-rule="evenodd" clip-rule="evenodd" d="M27.5723 22.4512L25.66 10.9301C25.6099 10.6195 25.4507 10.3369 25.2109 10.1332C24.9712 9.92943 24.6666 9.81784 24.352 9.81848H19.3578V10.7043H24.352C24.5669 10.7043 24.7513 10.8614 24.7873 11.0752L26.7007 22.5985C26.7108 22.6618 26.707 22.7265 26.6898 22.7882C26.6725 22.8499 26.6421 22.9072 26.6007 22.9561C26.5593 23.005 26.5078 23.0443 26.4497 23.0715C26.3917 23.0986 26.3284 23.1129 26.2643 23.1134H2.73453C2.67036 23.1133 2.60698 23.0993 2.54879 23.0722C2.4906 23.0452 2.439 23.0058 2.39757 22.9568C2.35615 22.9078 2.32589 22.8504 2.30891 22.7885C2.29194 22.7266 2.28864 22.6618 2.29926 22.5985L4.21271 11.0752C4.22952 10.9718 4.28252 10.8778 4.36224 10.8098C4.44197 10.7419 4.54324 10.7045 4.64798 10.7043H9.64107V9.81848H4.64907C4.33479 9.81806 4.03063 9.92961 3.79114 10.1331C3.55164 10.3366 3.39247 10.6188 3.34216 10.929L1.42762 22.4523C1.39503 22.6425 1.40441 22.8375 1.45509 23.0237C1.50577 23.21 1.59653 23.3828 1.72102 23.5303C1.84551 23.6777 2.00072 23.7962 2.17578 23.8774C2.35085 23.9586 2.54155 24.0005 2.73453 24.0003L26.2654 23.9992C26.4585 23.9995 26.6493 23.9575 26.8245 23.8762C26.9997 23.795 27.1549 23.6764 27.2794 23.5288C27.4039 23.3813 27.4947 23.2082 27.5453 23.0219C27.5959 22.8356 27.6051 22.6404 27.5723 22.4501V22.4512Z" fill="#EE2E24"/>
<path d="M14.5001 15.2727C14.6201 15.2727 14.7325 15.2182 14.8121 15.1233C15.0227 14.8724 19.9547 8.95309 19.9547 5.83964C19.9547 2.61491 17.5132 0 14.5001 0C11.487 0 9.04556 2.61491 9.04556 5.83964C9.04556 8.95309 13.9776 14.8724 14.1881 15.1233C14.226 15.1695 14.2736 15.2069 14.3275 15.2327C14.3814 15.2585 14.4403 15.2722 14.5001 15.2727ZM14.5001 0.898909C17.0474 0.901091 19.1125 3.11236 19.1147 5.83964C19.1147 7.98109 16.0307 12.2455 14.5001 14.1436C12.9696 12.2455 9.88556 7.98218 9.88556 5.83964C9.88775 3.11236 11.9528 0.901091 14.5001 0.897818V0.898909Z" fill="#EE2E24"/>
<path d="M17.7729 5.45461C17.7729 5.02483 17.6882 4.59926 17.5238 4.20219C17.3593 3.80513 17.1182 3.44435 16.8143 3.14044C16.5104 2.83654 16.1496 2.59548 15.7526 2.43101C15.3555 2.26654 14.9299 2.18188 14.5001 2.18188C14.0704 2.18188 13.6448 2.26654 13.2477 2.43101C12.8507 2.59548 12.4899 2.83654 12.186 3.14044C11.8821 3.44435 11.641 3.80513 11.4765 4.20219C11.3121 4.59926 11.2274 5.02483 11.2274 5.45461C11.2274 6.32259 11.5722 7.15502 12.186 7.76878C12.7997 8.38253 13.6322 8.72734 14.5001 8.72734C15.3681 8.72734 16.2006 8.38253 16.8143 7.76878C17.4281 7.15502 17.7729 6.32259 17.7729 5.45461ZM12.1623 5.45461C12.1623 4.83458 12.4086 4.23995 12.8471 3.80152C13.2855 3.3631 13.8801 3.11679 14.5001 3.11679C15.1202 3.11679 15.7148 3.3631 16.1532 3.80152C16.5917 4.23995 16.838 4.83458 16.838 5.45461C16.838 6.07464 16.5917 6.66927 16.1532 7.1077C15.7148 7.54612 15.1202 7.79243 14.5001 7.79243C13.8801 7.79243 13.2855 7.54612 12.8471 7.1077C12.4086 6.66927 12.1623 6.07464 12.1623 5.45461Z" fill="#F99B2A"/>
<path fill-rule="evenodd" clip-rule="evenodd" d="M14.5001 16.3634H16.682V17.4543H14.5001V16.3634ZM11.2274 16.3634H12.3183V17.4543H11.2274V16.3634ZM17.7729 16.3634H18.8638V17.4543H17.7729V16.3634Z" fill="#9A9A9C"/>
</g>
<defs>
<clipPath id="clip0_950_31">
<rect width="27.2727" height="24" fill="white" transform="translate(0.863647)"/>
</clipPath>
</defs>
</svg>
