<svg width="36" height="36" viewBox="0 0 36 36" fill="none" xmlns="http://www.w3.org/2000/svg">
<rect x="0.750092" y="0.5" width="35" height="35" rx="17.5" fill="#F99B2A"/>
<path d="M24.3438 12.25H12.1563C11.3653 12.25 10.7501 12.8945 10.7501 13.6562V22.0938C10.7501 22.8848 11.3653 23.5 12.1563 23.5H24.3438C25.1056 23.5 25.7501 22.8848 25.7501 22.0938V13.6562C25.7501 12.8945 25.1056 12.25 24.3438 12.25ZM24.3438 13.6562V14.8574C23.67 15.4141 22.6153 16.2344 20.3888 17.9922C19.8907 18.373 18.9239 19.3105 18.2501 19.2812C17.547 19.3105 16.5802 18.373 16.0821 17.9922C13.8556 16.2344 12.8009 15.4141 12.1563 14.8574V13.6562H24.3438ZM12.1563 22.0938V16.6738C12.8009 17.2012 13.7677 17.9629 15.2032 19.1055C15.8477 19.6035 16.9903 20.7168 18.2501 20.6875C19.4806 20.7168 20.5938 19.6035 21.2677 19.1055C22.7032 17.9629 23.67 17.2012 24.3438 16.6738V22.0938H12.1563Z" fill="white"/>
</svg>
