<svg width="36" height="36" viewBox="0 0 36 36" fill="none" xmlns="http://www.w3.org/2000/svg">
<rect x="0.750092" y="0.5" width="35" height="35" rx="17.5" fill="#F99B2A"/>
<path d="M25.8341 14.0371C25.6583 13.334 25.1017 12.7773 24.4278 12.6016C23.1681 12.25 18.1876 12.25 18.1876 12.25C18.1876 12.25 13.1778 12.25 11.9181 12.6016C11.2442 12.7773 10.6876 13.334 10.5118 14.0371C10.1602 15.2676 10.1602 17.9043 10.1602 17.9043C10.1602 17.9043 10.1602 20.5117 10.5118 21.7715C10.6876 22.4746 11.2442 23.002 11.9181 23.1777C13.1778 23.5 18.1876 23.5 18.1876 23.5C18.1876 23.5 23.1681 23.5 24.4278 23.1777C25.1017 23.002 25.6583 22.4746 25.8341 21.7715C26.1856 20.5117 26.1856 17.9043 26.1856 17.9043C26.1856 17.9043 26.1856 15.2676 25.8341 14.0371ZM16.547 20.2773V15.5312L20.7071 17.9043L16.547 20.2773Z" fill="white"/>
</svg>
