<svg width="81" height="80" viewBox="0 0 81 80" fill="none" xmlns="http://www.w3.org/2000/svg">
<g filter="url(#filter0_d_1_330)">
<rect x="10.25" y="10" width="60" height="60" rx="30" fill="white"/>
<path d="M51.6326 24.5273C52.0185 24.7589 52.1728 25.0675 52.1728 25.6077C52.0957 26.6881 52.1728 27.8457 52.0957 28.9261C52.0185 29.6978 51.787 30.4695 51.4783 31.164C50.8609 32.3216 50.6294 33.6335 50.6294 34.9453C50.6294 38.3408 50.6294 41.7363 50.6294 45.1318C50.6294 46.3666 50.8609 47.6013 51.4783 48.7589C52.0185 49.7621 52.25 50.7653 52.25 51.9228C52.25 52.7717 52.25 53.6206 52.25 54.3923C52.25 54.8553 52.0957 55.2412 51.7098 55.4727C44.1471 55.4727 36.5072 55.4727 28.9445 55.4727C28.4043 55.164 28.25 54.8553 28.25 54.3151C28.3272 53.2347 28.25 52.0772 28.3272 50.9968C28.4043 50.2251 28.6359 49.5306 28.9445 48.836C29.5619 47.5241 29.8706 46.2122 29.7934 44.746C29.7934 44.5917 29.7934 44.4373 29.7934 44.3601C29.7934 44.0515 30.0249 43.8971 30.2564 43.8971C30.4879 43.8971 30.7195 44.0515 30.7195 44.3601C30.7966 45.8264 30.7195 47.2926 30.0249 48.6817C29.4076 49.9164 29.0989 51.2283 29.176 52.6174C29.176 53.2347 29.176 53.8521 29.176 54.5466C29.4847 54.5466 29.8706 54.5466 30.1793 54.5466C30.1793 54.238 30.1793 53.9293 30.1793 53.6206C30.1793 53.3119 30.3336 53.0804 30.6423 53.0804C30.951 53.0804 31.1053 53.3119 31.1053 53.6206C31.1053 53.9293 31.1053 54.238 31.1053 54.4695C31.1053 54.4695 31.1053 54.4695 31.1053 54.5466C31.414 54.5466 31.7227 54.5466 32.0314 54.5466C32.0314 54.238 32.0314 53.9293 32.0314 53.6206C32.0314 53.4662 32.1085 53.2347 32.2629 53.1576C32.34 53.0804 32.5715 53.0804 32.7259 53.0804C32.8802 53.0804 32.9574 53.3119 32.9574 53.4662C32.9574 53.7749 32.9574 54.1608 32.9574 54.4695C33.3432 54.4695 33.6519 54.4695 33.9606 54.4695C33.9606 54.1608 33.9606 53.8521 33.9606 53.5434C33.9606 53.1576 34.115 53.0032 34.4236 53.0032C34.7323 53.0032 34.8867 53.2347 34.8867 53.5434C34.8867 53.8521 34.8867 54.1608 34.8867 54.4695C35.1953 54.4695 35.504 54.4695 35.8899 54.4695C35.8899 54.1608 35.8899 53.8521 35.8899 53.5434C35.8899 53.1576 36.0442 53.0032 36.3529 53.0032C36.6616 53.0032 36.8159 53.2347 36.8159 53.5434C36.8159 53.8521 36.8159 54.1608 36.8159 54.4695C37.1246 54.4695 37.5105 54.4695 37.8191 54.4695C37.8191 54.1608 37.8191 53.8521 37.8191 53.5434C37.8191 53.2347 37.9735 53.0032 38.2822 53.0032C38.5137 53.0032 38.7452 53.2347 38.7452 53.5434C38.7452 53.8521 38.7452 54.1608 38.7452 54.4695C39.0539 54.4695 39.3625 54.4695 39.7484 54.4695C39.7484 54.1608 39.7484 53.8521 39.7484 53.5434C39.7484 53.1576 39.9027 53.0032 40.2114 53.0032C40.5201 53.0032 40.6744 53.2347 40.6744 53.5434C40.6744 53.8521 40.6744 54.0836 40.6744 54.3923V54.4695C40.9831 54.4695 41.2918 54.4695 41.6777 54.4695C41.6777 54.1608 41.6777 53.7749 41.6777 53.4662C41.6777 53.3119 41.832 53.1576 41.9863 53.0804C42.0635 53.0032 42.295 53.0804 42.4494 53.1576C42.5265 53.2347 42.6037 53.3891 42.6037 53.5434C42.6037 53.8521 42.6037 54.1608 42.6037 54.5466C42.9124 54.5466 43.2211 54.5466 43.6069 54.5466C43.6069 54.238 43.6069 53.9293 43.6069 53.6206C43.6069 53.2347 43.7613 53.0032 44.0699 53.0804C44.3786 53.0804 44.533 53.3119 44.533 53.6206C44.533 53.9293 44.533 54.1608 44.533 54.4695C44.533 54.4695 44.533 54.4695 44.533 54.5466C44.8416 54.5466 45.1503 54.5466 45.5362 54.5466C45.5362 54.238 45.5362 53.9293 45.5362 53.6206C45.5362 53.2347 45.6905 53.0804 45.9992 53.0804C46.3079 53.0804 46.4622 53.3119 46.4622 53.6978C46.4622 54.0064 46.4622 54.3151 46.4622 54.6238C46.7709 54.6238 47.1568 54.6238 47.4654 54.6238C47.4654 54.3151 47.4654 54.0064 47.4654 53.6206C47.4654 53.3119 47.6198 53.0804 47.9285 53.0804C48.16 53.0804 48.3915 53.2347 48.3915 53.6206C48.3915 53.9293 48.3915 54.238 48.3915 54.6238C48.7002 54.6238 49.086 54.6238 49.3947 54.6238C49.3947 54.3151 49.3947 54.0064 49.3947 53.6978C49.3947 53.3891 49.549 53.1576 49.8577 53.1576C50.0892 53.1576 50.3207 53.3891 50.3207 53.6978C50.3207 54.0064 50.3207 54.3151 50.3207 54.6238C50.7066 54.6238 51.0153 54.6238 51.324 54.6238C51.324 53.7749 51.324 52.9261 51.324 52.0772C51.324 51.074 51.0924 50.0708 50.6294 49.1447C50.0121 47.91 49.7034 46.5981 49.7034 45.2862C49.7034 41.8135 49.7034 38.2637 49.7034 34.791C49.7034 33.4791 49.9349 32.3216 50.5523 31.164C51.0924 30.1608 51.324 29.0804 51.324 28C51.324 27.2283 51.324 26.4566 51.324 25.6077C51.0153 25.6077 50.6294 25.6077 50.3207 25.6077C50.3207 25.9164 50.3207 26.2251 50.3207 26.5338C50.3207 26.9196 50.1664 27.074 49.8577 27.074C49.6262 27.074 49.3947 26.8425 49.3947 26.5338C49.3947 26.2251 49.3947 25.9164 49.3947 25.6077C49.086 25.6077 48.7002 25.6077 48.3915 25.6077C48.3915 25.9164 48.3915 26.2251 48.3915 26.5338C48.3915 26.9196 48.2371 27.074 47.9285 27.074C47.6969 27.074 47.4654 26.8425 47.4654 26.5338C47.4654 26.2251 47.4654 25.9164 47.4654 25.6077C47.1568 25.6077 46.7709 25.6077 46.4622 25.6077C46.4622 25.9164 46.4622 26.2251 46.4622 26.5338C46.4622 26.9196 46.3079 27.074 45.9992 27.074C45.6905 27.074 45.5362 26.8425 45.5362 26.5338C45.5362 26.2251 45.5362 25.9164 45.5362 25.6077C45.2275 25.6077 44.8416 25.6077 44.533 25.6077C44.533 25.9164 44.533 26.2251 44.533 26.5338C44.533 26.8425 44.3786 27.074 44.0699 27.074C43.8384 27.074 43.6069 26.8425 43.6069 26.5338C43.6069 26.2251 43.6069 25.9164 43.6069 25.5306C43.2982 25.5306 42.9124 25.5306 42.6037 25.5306C42.6037 25.8392 42.6037 26.1479 42.6037 26.4566C42.6037 26.7653 42.4494 26.9968 42.1407 26.9968C41.9092 26.9968 41.6777 26.7653 41.6777 26.4566C41.6777 26.1479 41.6777 25.8392 41.6777 25.5306C41.369 25.5306 41.0603 25.5306 40.6744 25.5306C40.6744 25.8392 40.6744 26.1479 40.6744 26.4566C40.6744 26.6109 40.5973 26.7653 40.5201 26.8425C40.4429 26.9196 40.2114 26.9968 40.0571 26.9196C39.9027 26.8425 39.8256 26.6109 39.7484 26.5338C39.6712 26.2251 39.7484 25.8392 39.7484 25.4534C39.4397 25.4534 39.131 25.4534 38.7452 25.4534C38.7452 25.7621 38.7452 26.0708 38.7452 26.4566C38.7452 26.8425 38.3593 27.074 38.0506 26.9196C37.8963 26.8425 37.8963 26.6881 37.8191 26.5338C37.8191 26.3794 37.8191 26.2251 37.8191 26.0708C37.8191 25.9164 37.8191 25.7621 37.8191 25.5306C37.5105 25.5306 37.1246 25.5306 36.8159 25.5306C36.8159 25.7621 36.8159 25.9164 36.8159 26.1479C36.8159 26.7653 36.6616 26.9968 36.3529 26.9968C36.0442 26.9968 35.8899 26.7653 35.8899 26.1479C35.8899 25.9164 35.8899 25.7621 35.8899 25.5306C35.5812 25.5306 35.2725 25.5306 34.8867 25.5306C34.8867 25.8392 34.8867 26.1479 34.8867 26.4566C34.8867 26.8425 34.7323 26.9968 34.4236 26.9968C34.115 26.9968 33.9606 26.7653 33.9606 26.4566C33.9606 26.1479 33.9606 25.8392 33.9606 25.5306C33.6519 25.5306 33.2661 25.5306 32.9574 25.5306C32.9574 25.8392 32.9574 26.1479 32.9574 26.5338C32.9574 26.8425 32.8031 27.074 32.4944 27.074C32.2629 26.9196 32.1085 26.7653 32.1085 26.4566C32.1085 26.1479 32.1085 25.8392 32.1085 25.4534C31.7998 25.4534 31.4912 25.4534 31.1053 25.4534C31.1053 25.7621 31.1053 26.0708 31.1053 26.3023C31.1053 26.6881 30.951 26.9196 30.6423 26.9196C30.3336 26.9196 30.1793 26.6881 30.1793 26.3023C30.1793 25.9936 30.1793 25.6849 30.1793 25.3762C29.8706 25.3762 29.4847 25.3762 29.176 25.3762C29.176 25.5306 29.176 25.6849 29.176 25.8392C29.176 26.8425 29.176 27.8457 29.2532 28.8489C29.3304 29.5434 29.5619 30.1608 29.7934 30.7781C30.4108 32.09 30.7195 33.4019 30.7195 34.8682C30.7195 37.2605 30.7195 39.5756 30.7195 41.9679C30.7195 42.045 30.7195 42.1994 30.7195 42.2765C30.6423 42.5081 30.4879 42.6624 30.2564 42.6624C30.0249 42.6624 29.8706 42.5081 29.8706 42.2765C29.8706 42.1994 29.8706 42.045 29.8706 41.9679C29.8706 39.4984 29.8706 37.029 29.8706 34.6367C29.8706 33.4791 29.6391 32.3987 29.0989 31.3955C28.4815 30.238 28.25 29.0804 28.25 27.7685C28.25 26.9968 28.25 26.3023 28.25 25.5306C28.25 25.0675 28.4043 24.7589 28.7902 24.5273C36.4301 24.5273 43.9928 24.5273 51.6326 24.5273Z" fill="#EE2E24"/>
<path d="M35.5812 35.6399C36.4301 35.5627 37.2018 35.4856 37.8963 35.3312C39.2854 35.0225 40.6744 34.6367 42.1407 34.328C42.6037 34.2508 43.0667 34.1737 43.5297 34.0965C43.6069 34.0965 43.6841 34.0965 43.8384 34.0193C43.0667 33.2476 42.2178 32.7074 41.2146 32.5531C39.9027 32.2444 38.668 32.5531 37.5104 33.2476C37.2018 33.4791 36.8931 33.402 36.7387 33.1704C36.5844 32.9389 36.6616 32.7074 36.9703 32.4759C39.5169 30.8553 42.9124 31.3955 44.6873 33.7878C44.8416 33.9421 44.996 34.0193 45.2275 34.0965C45.9992 34.2508 46.6937 34.4052 47.3883 34.5595C47.6969 34.6367 47.8513 34.8682 47.8513 35.1769C47.8513 36.4888 47.8513 37.7235 47.8513 39.0354C47.8513 39.4984 47.4654 39.7299 47.0024 39.5756C46.6166 39.4984 46.2307 39.3441 45.8449 39.2669C45.6905 39.1897 45.6133 39.2669 45.5362 39.4212C44.6873 41.5048 43.1439 42.8167 40.9059 43.1254C38.668 43.4341 36.8159 42.6624 35.4268 40.8875C35.504 40.7331 35.2725 40.656 35.1953 40.656C34.4236 40.5788 33.6519 40.4245 32.9574 40.1929C32.6487 40.1158 32.4944 39.8843 32.4944 39.4984C32.4944 38.2637 32.4944 36.9518 32.4944 35.7171C32.4944 35.1769 32.8802 34.9454 33.3432 35.0997C33.6519 35.254 34.0378 35.3312 34.4236 35.4084C34.6551 35.4856 34.7323 35.4084 34.8095 35.1769C34.9638 34.8682 35.1182 34.4823 35.2725 34.1737C35.4268 33.865 35.6584 33.7878 35.8899 33.9421C36.1214 34.0965 36.1985 34.328 35.967 34.6367C35.8127 34.8682 35.7355 35.0997 35.6584 35.3312C35.6584 35.4084 35.6584 35.4856 35.5812 35.6399ZM33.3432 36.1801C33.3432 36.3344 33.3432 36.4116 33.3432 36.4888C33.3432 37.1833 33.3432 37.8778 33.3432 38.5724C33.3432 39.4984 33.3432 39.4984 34.2693 39.6528C35.6584 39.9614 37.0474 39.7299 38.4365 39.4212C39.5169 39.1897 40.5973 38.8811 41.6776 38.5724C41.9863 38.4952 42.2178 38.6495 42.295 38.8811C42.3722 39.1126 42.2178 39.3441 41.9092 39.4212C40.8288 39.7299 39.7484 39.9614 38.668 40.2701C37.9735 40.4245 37.3561 40.5016 36.6616 40.656C37.3561 41.582 39.2082 42.5852 41.2918 42.1222C42.9895 41.7364 44.1471 40.7331 44.8416 39.1126C44.7645 39.1126 44.7645 39.1126 44.7645 39.1126C44.6101 39.1126 44.3786 39.1126 44.2243 39.1126C43.9156 39.1126 43.6841 38.9582 43.6841 38.6495C43.6841 38.418 43.8384 38.1865 44.1471 38.1865C44.996 38.1093 45.7677 38.1865 46.5394 38.3409C46.6937 38.3409 46.8481 38.418 47.0796 38.4952C47.0796 37.492 47.0796 36.4888 47.0796 35.5627C47.0796 35.3312 47.0024 35.254 46.8481 35.1769C45.6905 34.791 44.533 34.791 43.2982 35.0225C41.9092 35.254 40.5201 35.6399 39.131 35.9486C37.5876 36.3344 35.967 36.5659 34.3465 36.3344C34.0378 36.2573 33.7291 36.1801 33.3432 36.1801Z" fill="#F99B2A"/>
<path d="M40.2114 28.463C36.9703 28.463 33.7291 28.463 30.4879 28.463C30.4108 28.463 30.2564 28.463 30.1793 28.463C29.9478 28.3859 29.7934 28.2315 29.7934 28C29.7934 27.7685 29.9478 27.6142 30.1793 27.537C30.2564 27.537 30.3336 27.537 30.4108 27.537C36.9703 27.537 43.5297 27.537 50.0892 27.537C50.3207 27.537 50.5523 27.537 50.6294 27.8457C50.7066 28 50.6294 28.2315 50.5523 28.3087C50.4751 28.3859 50.2436 28.463 50.0892 28.463C46.7709 28.463 43.4526 28.463 40.2114 28.463Z" fill="#EE2E24"/>
<path d="M39.7484 52.3859C36.6616 52.3859 33.5748 52.3859 30.4879 52.3859C30.4108 52.3859 30.2564 52.3859 30.1793 52.3859C29.9478 52.3087 29.7934 52.1543 29.7934 51.9228C29.7934 51.6913 29.9478 51.537 30.1793 51.4598C30.2564 51.4598 30.3336 51.4598 30.4879 51.4598C36.6616 51.4598 42.9124 51.4598 49.086 51.4598C49.1632 51.4598 49.3175 51.4598 49.3947 51.4598C49.6262 51.537 49.7805 51.6913 49.7805 51.9228C49.7805 52.1543 49.6262 52.3087 49.3947 52.3087C49.3175 52.3087 49.2404 52.3087 49.086 52.3087C45.922 52.3859 42.8352 52.3859 39.7484 52.3859Z" fill="#EE2E24"/>
<path d="M40.2114 45.5949C41.9863 45.5949 43.7613 45.5949 45.5362 45.5949C45.6133 45.5949 45.7677 45.5949 45.8449 45.5949C46.0764 45.5949 46.2307 45.7492 46.2307 45.9807C46.2307 46.2122 46.1535 46.3666 45.922 46.4437C45.8449 46.4437 45.6905 46.4437 45.5362 46.4437C41.9092 46.4437 38.3593 46.4437 34.7323 46.4437C34.6551 46.4437 34.5008 46.4437 34.4236 46.4437C34.1921 46.3666 34.0378 46.2122 34.0378 45.9807C34.0378 45.7492 34.1921 45.5949 34.4236 45.5177C34.578 45.5177 34.6551 45.5177 34.8095 45.5177C36.6616 45.5949 38.4365 45.5949 40.2114 45.5949Z" fill="#F99B2A"/>
<path d="M40.2114 48.373C39.131 48.373 38.0506 48.373 36.8931 48.373C36.5844 48.373 36.3529 48.2187 36.3529 47.91C36.3529 47.6013 36.5072 47.447 36.8931 47.447C37.3561 47.447 37.8963 47.447 38.3593 47.447C40.0571 47.447 41.7548 47.447 43.4526 47.447C43.6841 47.447 43.9156 47.5241 43.9928 47.7556C44.0699 48.0643 43.8384 48.2958 43.5297 48.2958C42.6037 48.2958 41.6776 48.2958 40.7516 48.2958C40.5201 48.373 40.3658 48.373 40.2114 48.373Z" fill="#F99B2A"/>
</g>
<defs>
<filter id="filter0_d_1_330" x="0.25" y="0" width="80" height="80" filterUnits="userSpaceOnUse" color-interpolation-filters="sRGB">
<feFlood flood-opacity="0" result="BackgroundImageFix"/>
<feColorMatrix in="SourceAlpha" type="matrix" values="0 0 0 0 0 0 0 0 0 0 0 0 0 0 0 0 0 0 127 0" result="hardAlpha"/>
<feOffset/>
<feGaussianBlur stdDeviation="5"/>
<feComposite in2="hardAlpha" operator="out"/>
<feColorMatrix type="matrix" values="0 0 0 0 0 0 0 0 0 0 0 0 0 0 0 0 0 0 0.1 0"/>
<feBlend mode="normal" in2="BackgroundImageFix" result="effect1_dropShadow_1_330"/>
<feBlend mode="normal" in="SourceGraphic" in2="effect1_dropShadow_1_330" result="shape"/>
</filter>
</defs>
</svg>
