<svg width="81" height="80" viewBox="0 0 81 80" fill="none" xmlns="http://www.w3.org/2000/svg">
<g filter="url(#filter0_d_1_374)">
<rect x="10.25" y="10" width="60" height="60" rx="30" fill="white"/>
<g clip-path="url(#clip0_1_374)">
<path d="M50.75 25H45.75C45.4739 25 45.25 25.2239 45.25 25.5V27C45.25 27.2375 45.4172 27.4424 45.6499 27.49L46.1284 27.5859C46.5361 27.6687 46.9197 27.8433 47.25 28.0959V28.196C47.251 29.1553 46.7715 30.0513 45.9724 30.5825L46.5276 31.4146C47.3103 30.8928 47.8755 30.1033 48.1165 29.1941C48.1782 29.3313 48.2285 29.4736 48.2666 29.6194C48.3213 29.8423 48.5208 29.999 48.75 30H49.75V31.4265L48.396 35.9395L49.354 36.2271L50.6221 32H52.8325L53.75 37.0449V48.5C53.75 49.3284 53.0784 50 52.25 50H50.9585V51H52.25C53.6301 50.9983 54.7483 49.8801 54.75 48.5V37C54.75 36.97 54.7471 36.9399 54.7415 36.9104L53.75 31.4565V30H54.75C55.0261 30 55.25 29.7761 55.25 29.5C55.2473 27.0159 53.2341 25.0027 50.75 25ZM52.75 31H50.75V30H52.75V31ZM53.25 29H49.1184C48.666 27.7717 47.6094 26.8655 46.3264 26.6055L46.25 26.5901V26H50.75C52.489 26.0022 53.9636 27.2791 54.2146 29H53.25Z" fill="#EE2E24"/>
<path d="M27.75 51H31.25V50H27.75C26.9216 50 26.25 49.3284 26.25 48.5V41.3406C26.25 40.8293 26.3213 40.3208 26.4619 39.8296L27.2309 37.1375C27.2588 37.0405 27.2563 36.9375 27.2241 36.842L26.3459 34.208C26.102 33.4741 26.3323 32.666 26.9265 32.1709L28.9309 30.5H33.5691L35.019 31.709L35.6594 30.9409L34.25 29.7654V28.5C34.25 28.3674 34.1973 28.2402 34.1035 28.1465L33.25 27.293V25.5C33.25 25.2239 33.0261 25 32.75 25H29.75C29.4739 25 29.25 25.2239 29.25 25.5V27.293L28.3965 28.1465C28.3027 28.2402 28.25 28.3674 28.25 28.5V29.7654L26.2859 31.4026C25.376 32.1614 25.0244 33.4006 25.3999 34.5244L26.2285 37.0115L25.5 39.5544C25.334 40.1353 25.2497 40.7363 25.25 41.3406V48.5C25.2517 49.8801 26.3699 50.9983 27.75 51ZM30.25 26H32.25V27H30.25V26ZM29.25 28.707L29.957 28H32.543L33.25 28.707V29.5H29.25V28.707Z" fill="#EE2E24"/>
<path d="M34.25 33.5C34.25 32.3784 32.9319 31.5 31.25 31.5C29.5681 31.5 28.25 32.3784 28.25 33.5C28.25 34.6216 29.5681 35.5 31.25 35.5C32.9319 35.5 34.25 34.6216 34.25 33.5ZM29.25 33.5C29.25 33.0281 30.1055 32.5 31.25 32.5C32.3945 32.5 33.25 33.0281 33.25 33.5C33.25 33.9719 32.3945 34.5 31.25 34.5C30.1055 34.5 29.25 33.9719 29.25 33.5Z" fill="#F99B2A"/>
<path d="M30.7 41.584L31.0359 40.6426L27.918 39.529C27.7649 39.4743 27.5947 39.4975 27.4619 39.5913C27.3291 39.685 27.25 39.8374 27.25 40V46C27.2517 47.3801 28.3699 48.4983 29.75 48.5H30.75V47.5H29.75C28.9216 47.5 28.25 46.8284 28.25 46V40.7095L30.7 41.584Z" fill="#F99B2A"/>
<path d="M44.1609 41.2024C45.5464 43.0305 45.9939 45.4028 45.3694 47.6101C45.1304 48.3874 45.562 49.2122 46.3369 49.459C47.1118 49.7058 47.9409 49.2825 48.1955 48.51C49.3171 45.3337 48.7319 41.8044 46.6455 39.1599L46.4455 38.9045C45.9016 38.2087 44.8977 38.0833 44.1992 38.6235C43.5005 39.1641 43.3699 40.1672 43.9065 40.8684L44.1609 41.2024ZM44.5911 39.7549C44.6435 39.5281 44.8218 39.3516 45.0493 39.301C45.2766 39.2507 45.5127 39.3352 45.6565 39.5186L45.8564 39.7739C47.7319 42.1501 48.258 45.322 47.25 48.1765C47.1831 48.3369 47.0376 48.4509 46.8657 48.4778C46.6941 48.5046 46.5207 48.4404 46.4079 48.3081C46.3166 48.187 46.2873 48.03 46.3296 47.8845C47.0395 45.374 46.5305 42.6758 44.9546 40.5964L44.697 40.2585C44.5884 40.115 44.5493 39.9302 44.5911 39.7549Z" fill="#EE2E24"/>
<path d="M34.334 54.7776C34.4268 54.9165 34.5828 55 34.75 55H46.75C46.9019 55 47.0457 54.9312 47.1404 54.8125L48.3904 53.2495C50.564 50.5315 51.562 47.0581 51.1624 43.6011C50.7629 40.1438 48.999 36.9895 46.2629 34.8391L44.25 33.2571V31.5C44.25 31.2239 44.0261 31 43.75 31H43.25V29C43.25 28.4478 42.8023 28 42.25 28H38.25C37.6978 28 37.25 28.4478 37.25 29V31H36.75C36.4739 31 36.25 31.2239 36.25 31.5V33.3149L35.583 34.0935C30.6003 39.938 30.0908 48.3757 34.334 54.7776ZM38.25 29H42.25V31H38.25V29ZM36.342 34.7439L37.1294 33.8254C37.2073 33.7349 37.25 33.6194 37.25 33.5V32H43.25V33H38.25V34H43.5769L45.6455 35.625C48.1721 37.6108 49.8008 40.5234 50.1697 43.7158C50.5386 46.908 49.617 50.1152 47.6101 52.625L46.51 54H35.02C31.1773 47.9893 31.7139 40.1731 36.342 34.7439Z" fill="#EE2E24"/>
<path d="M39.5 51C41.4292 51.0012 43.23 50.0332 44.293 48.4236C44.3633 48.3176 44.3906 48.1892 44.3694 48.064C43.7634 44.4641 42.4026 41.6379 40.323 39.6641C40.2412 39.5862 40.1355 39.5381 40.0229 39.5281C39.8501 39.5105 39.677 39.5 39.5 39.5C36.3245 39.5 33.75 42.0745 33.75 45.25C33.75 48.4255 36.3245 51 39.5 51ZM39.5 40.5C39.5874 40.5 39.6746 40.5034 39.7605 40.509C41.5715 42.291 42.7776 44.8196 43.3491 48.031C42.0349 49.8508 39.6262 50.5022 37.574 49.5928C35.5217 48.6834 34.3862 46.4617 34.8513 44.2656C35.3164 42.0698 37.2554 40.4993 39.5 40.5Z" fill="#F99B2A"/>
</g>
</g>
<defs>
<filter id="filter0_d_1_374" x="0.25" y="0" width="80" height="80" filterUnits="userSpaceOnUse" color-interpolation-filters="sRGB">
<feFlood flood-opacity="0" result="BackgroundImageFix"/>
<feColorMatrix in="SourceAlpha" type="matrix" values="0 0 0 0 0 0 0 0 0 0 0 0 0 0 0 0 0 0 127 0" result="hardAlpha"/>
<feOffset/>
<feGaussianBlur stdDeviation="5"/>
<feComposite in2="hardAlpha" operator="out"/>
<feColorMatrix type="matrix" values="0 0 0 0 0 0 0 0 0 0 0 0 0 0 0 0 0 0 0.1 0"/>
<feBlend mode="normal" in2="BackgroundImageFix" result="effect1_dropShadow_1_374"/>
<feBlend mode="normal" in="SourceGraphic" in2="effect1_dropShadow_1_374" result="shape"/>
</filter>
<clipPath id="clip0_1_374">
<rect width="30" height="30" fill="white" transform="translate(25.25 25)"/>
</clipPath>
</defs>
</svg>
