<svg width="81" height="80" viewBox="0 0 81 80" fill="none" xmlns="http://www.w3.org/2000/svg">
<g filter="url(#filter0_d_1_306)">
<rect x="10.25" y="10" width="60" height="60" rx="30" fill="#EE2E24"/>
<g clip-path="url(#clip0_1_306)">
<path d="M33.3564 58C33.0618 57.8232 32.9439 57.5875 32.9439 57.234C32.9439 55.1718 32.9439 53.0507 32.9439 50.9885C32.9439 50.8707 32.9439 50.7529 33.0029 50.635C33.0618 50.3993 33.2385 50.2815 33.5331 50.2815C33.7688 50.2815 33.9456 50.3993 34.0045 50.6939C34.0634 50.8118 34.0634 50.9885 34.0634 51.1064C34.0634 52.815 34.0634 54.5237 34.0634 56.2913C34.0634 56.4091 34.0634 56.527 34.0634 56.7037C34.1813 56.6448 34.2991 56.6448 34.358 56.5859C36.1256 55.82 37.9521 55.1129 39.7197 54.347C40.0732 54.1702 40.4268 54.1702 40.7803 54.347C42.6657 55.1718 44.5511 55.9378 46.4366 56.7037C46.4366 56.527 46.4366 56.4091 46.4366 56.2913C46.4366 54.5826 46.4366 52.815 46.4366 51.1064C46.4366 50.9885 46.4366 50.8118 46.4366 50.6939C46.4955 50.4583 46.6723 50.2815 46.9079 50.2815C47.2025 50.2815 47.3793 50.3993 47.4382 50.635C47.4971 50.7529 47.4971 50.8707 47.4971 50.9885C47.4971 53.0507 47.4971 55.1718 47.4971 57.234C47.4971 57.5286 47.3793 57.7643 47.1436 57.9411C47.0258 57.9411 46.9079 57.9411 46.7901 57.9411C44.8457 57.1162 42.9014 56.3502 40.957 55.4664C40.4268 55.2308 39.9554 55.2308 39.4251 55.4664C37.4808 56.2913 35.5364 57.1162 33.5921 57.9411C33.5331 58 33.4742 58 33.3564 58Z" fill="white"/>
<path d="M53.507 30.6612C53.507 30.838 53.448 31.0147 53.448 31.1915C53.2713 31.8985 53.448 32.4288 54.0372 32.9002C54.4497 33.1948 54.7443 33.6661 54.921 34.1964C55.0978 34.7856 55.0389 35.4337 54.6854 35.964C54.214 36.671 54.214 37.2602 54.6854 37.9673C55.2745 38.9689 55.0389 40.2062 54.1551 40.9722C53.8016 41.2668 53.448 41.5614 53.448 42.0327C53.448 42.2684 53.448 42.5041 53.507 42.7398C53.7426 43.9182 53.0945 45.0376 51.975 45.3912C51.2091 45.6268 50.7966 46.0982 50.6788 46.9231C50.561 48.0425 49.5004 48.8674 48.3809 48.8674C48.0863 48.8674 47.8507 48.8674 47.5561 48.9263C47.0847 49.0442 46.849 49.3977 46.6133 49.7512C46.0831 50.6939 45.1993 51.1064 44.1387 50.9885C44.0209 50.9885 43.8441 50.9296 43.7263 50.8707C43.0192 50.5172 42.3711 50.635 41.7819 51.1653C41.3106 51.5777 40.7214 51.7545 40.1322 51.7545C39.6019 51.7545 39.1305 51.5777 38.777 51.2242C38.1878 50.635 37.5397 50.5761 36.7737 50.8707C35.7132 51.2831 34.4759 50.8707 33.9456 49.8691C33.5331 49.1031 33.0029 48.8085 32.178 48.8674C31.0585 48.9263 30.0569 48.0425 29.8801 46.9231C29.7623 46.0982 29.3498 45.6268 28.5839 45.3912C27.4644 45.0376 26.8163 43.8592 27.052 42.7398C27.2287 41.9738 26.993 41.4435 26.4038 40.9132C25.4611 40.1473 25.2254 38.91 25.8736 37.8494C26.286 37.2013 26.286 36.6121 25.8736 35.9051C25.2254 34.9034 25.4611 33.6072 26.4038 32.9002C27.052 32.4288 27.2287 31.8396 27.052 31.0736C26.8163 29.9542 27.4644 28.7758 28.525 28.4222C29.3498 28.1866 29.7034 27.6563 29.8212 26.8314C29.998 25.7709 31.0585 24.946 32.1191 24.946C32.3547 24.946 32.5904 24.946 32.8261 24.8871C33.2975 24.7692 33.5921 24.4746 33.8277 24.0622C34.5348 22.8249 35.5953 22.4713 36.8916 22.9427C37.5397 23.1784 38.07 23.0605 38.6002 22.6481C39.6608 21.7643 40.8392 21.7643 41.8408 22.6481C42.3711 23.1195 42.9014 23.2373 43.6084 22.9427C44.8457 22.4713 45.9652 22.8838 46.6723 24.0622C47.0258 24.6514 47.4971 24.946 48.2042 24.946C49.6182 24.946 50.502 25.653 50.6788 27.0671C50.7966 27.7741 51.2091 28.1866 51.8572 28.4222C52.8588 28.7168 53.448 29.6006 53.507 30.6612ZM32.4137 26.0065C31.4709 26.0065 30.9996 26.3601 30.8817 27.2439C30.705 28.3633 30.1158 29.0114 29.0552 29.365C28.2893 29.6006 27.9358 30.1898 28.1125 30.9558C28.3482 32.0164 28.0536 32.9002 27.1698 33.6072C26.5217 34.1375 26.4038 34.7856 26.8163 35.5515C27.4055 36.4943 27.4055 37.3781 26.8163 38.3208C26.3449 39.0278 26.4628 39.6759 27.1698 40.2062C28.0536 40.9132 28.3482 41.7381 28.1125 42.7987C27.9358 43.5646 28.2893 44.2128 29.0552 44.4484C30.1158 44.802 30.705 45.4501 30.8817 46.5695C30.9996 47.5123 31.5299 47.8658 32.4137 47.8069C33.4742 47.8069 34.2402 48.2193 34.7115 49.1031C34.8294 49.2799 34.9472 49.5155 35.124 49.6334C35.5364 49.9869 36.0667 49.9869 36.597 49.8101C37.5397 49.3977 38.4235 49.5155 39.1894 50.2226C39.9554 50.8707 40.5446 50.8707 41.3106 50.2226C42.0765 49.5745 42.9014 49.4566 43.7852 49.8101C44.7279 50.1637 45.2582 49.9869 45.7885 49.1031C46.2598 48.2193 47.0258 47.8069 48.0274 47.8658C48.9701 47.8658 49.4415 47.5123 49.6182 46.5695C49.795 45.509 50.3842 44.8609 51.3858 44.5074C52.2107 44.2717 52.5642 43.6825 52.3286 42.7987C52.0929 41.7381 52.3875 40.9132 53.2713 40.2062C53.9783 39.6759 54.0962 39.0278 53.6248 38.2619C53.0945 37.3781 53.0945 36.4943 53.6248 35.6105C54.0962 34.8445 53.9783 34.1964 53.2713 33.6072C52.4464 32.9591 52.1518 32.1342 52.3875 31.0736C52.5642 30.1898 52.2696 29.6596 51.3858 29.365C50.3842 29.0114 49.795 28.3633 49.6182 27.3028C49.4415 26.3601 49.0291 25.9476 48.0274 26.0065C47.0258 26.0065 46.2598 25.5941 45.7295 24.7103C45.2582 23.8854 44.669 23.6497 43.7852 24.0033C42.9014 24.3568 42.0176 24.18 41.2516 23.5319C40.5446 22.8838 39.9554 22.8838 39.2484 23.5319C38.4824 24.2389 37.5986 24.3568 36.597 24.0033C35.7721 23.6497 35.124 23.8854 34.7115 24.7103C34.2402 25.5941 33.4742 26.0065 32.4137 26.0065Z" fill="white"/>
<path d="M40.0732 25.7708C45.3171 25.7708 49.795 29.2471 51.0913 34.1964C51.2091 34.6677 51.268 35.1391 51.3858 35.6104C51.4448 35.964 51.268 36.1996 50.9145 36.2586C50.6199 36.3175 50.3842 36.1407 50.3253 35.7872C50.1485 34.7267 49.9129 33.725 49.4415 32.7234C48.0274 29.7774 45.7295 27.892 42.5479 27.126C37.4219 25.8887 32.1191 28.9525 30.5872 34.0196C30.4104 34.6088 30.3515 35.198 30.2336 35.7872C30.1747 36.1996 29.939 36.3764 29.6444 36.3175C29.2909 36.2586 29.1731 36.0229 29.232 35.6104C29.5855 32.9591 30.705 30.6612 32.7083 28.8347C34.4169 27.2438 36.4202 26.3011 38.777 25.9476C39.1894 25.8298 39.7197 25.7708 40.0732 25.7708Z" fill="white"/>
<path d="M40.25 48.1015C35.4186 48.1015 31.1174 44.9787 29.6444 40.3241C29.4088 39.6759 29.3498 39.0278 29.232 38.3208C29.1731 37.9673 29.3498 37.7316 29.6444 37.6727C29.939 37.6137 30.2336 37.7905 30.2926 38.144C30.4693 39.3224 30.7639 40.4419 31.3531 41.5025C32.9439 44.5074 35.4775 46.3339 38.8359 46.8642C41.8998 47.3355 44.6101 46.5106 46.9669 44.5663C48.8523 42.9754 49.9718 40.9133 50.3842 38.4386C50.3842 38.3208 50.4431 38.2029 50.4431 38.0851C50.502 37.7905 50.7377 37.6137 51.0912 37.6727C51.3858 37.7316 51.5626 37.9673 51.5037 38.2619C51.3858 39.3224 51.0912 40.383 50.6788 41.3257C49.4415 44.0949 47.3793 46.0982 44.6101 47.2177C43.2549 47.7479 41.6052 48.1015 40.25 48.1015Z" fill="white"/>
<path d="M37.4808 42.4452C36.8916 42.4452 36.6559 41.9738 36.8916 41.5025C38.2467 38.7332 39.6608 35.964 41.016 33.1948C41.4284 32.3699 41.8408 31.545 42.2533 30.7201C42.4889 30.2488 42.7246 30.1309 43.1371 30.3077C43.4906 30.4845 43.5495 30.7791 43.3138 31.3093C41.6641 34.6088 40.0143 37.9083 38.3646 41.2079C38.1878 41.5025 38.07 41.856 37.8932 42.0917C37.7164 42.2684 37.5397 42.3863 37.4808 42.4452Z" fill="white"/>
<path d="M41.3695 38.9689C41.3695 38.5565 41.3695 38.144 41.3695 37.7316C41.4284 36.7299 41.8998 36.1997 42.8425 36.0818C43.3138 36.0229 43.8441 36.0818 44.3155 36.1997C44.9636 36.3764 45.3171 36.8478 45.376 37.4959C45.4349 38.4975 45.4349 39.5581 45.376 40.5597C45.376 41.2079 44.9636 41.6203 44.3744 41.856C43.7263 42.0917 43.0782 42.0917 42.43 41.856C41.7819 41.6203 41.4284 41.1489 41.3695 40.5008C41.3695 39.9705 41.3695 39.4403 41.3695 38.9689ZM44.3155 38.9689C44.3155 38.5565 44.3155 38.144 44.3155 37.7316C44.3155 37.2602 44.0209 37.0245 43.4906 36.9656C42.9014 36.9067 42.489 37.1424 42.489 37.6137C42.43 38.4975 42.43 39.3813 42.489 40.2651C42.489 40.7365 42.9014 40.9722 43.4317 40.9722C44.0209 40.9722 44.3155 40.6776 44.3155 40.2062C44.3744 39.7938 44.3155 39.3813 44.3155 38.9689Z" fill="white"/>
<path d="M38.7181 33.8429C38.7181 34.3142 38.7181 34.7267 38.7181 35.198C38.6592 36.0818 38.1878 36.671 37.304 36.7888C36.7737 36.8478 36.2435 36.7888 35.7721 36.671C35.124 36.4942 34.7705 36.0229 34.7115 35.3748C34.6526 34.3731 34.6526 33.3715 34.7115 32.3699C34.7705 31.6039 35.2418 31.1325 35.9489 30.9558C36.5381 30.8379 37.1272 30.8379 37.6575 31.0147C38.3056 31.2504 38.6592 31.7217 38.7181 32.4288C38.7181 32.8412 38.7181 33.3126 38.7181 33.8429ZM35.7721 33.7839C35.7721 34.1964 35.7721 34.5499 35.7721 34.9623C35.7721 35.5515 36.0667 35.7872 36.7148 35.8461C37.304 35.8461 37.6575 35.5515 37.6575 34.9623C37.6575 34.1964 37.6575 33.4304 37.6575 32.6645C37.6575 32.0753 37.304 31.8396 36.7148 31.8396C36.1256 31.8396 35.7721 32.1342 35.7721 32.6645C35.7721 33.018 35.7721 33.4304 35.7721 33.7839Z" fill="white"/>
</g>
</g>
<defs>
<filter id="filter0_d_1_306" x="0.25" y="0" width="80" height="80" filterUnits="userSpaceOnUse" color-interpolation-filters="sRGB">
<feFlood flood-opacity="0" result="BackgroundImageFix"/>
<feColorMatrix in="SourceAlpha" type="matrix" values="0 0 0 0 0 0 0 0 0 0 0 0 0 0 0 0 0 0 127 0" result="hardAlpha"/>
<feOffset/>
<feGaussianBlur stdDeviation="5"/>
<feComposite in2="hardAlpha" operator="out"/>
<feColorMatrix type="matrix" values="0 0 0 0 0 0 0 0 0 0 0 0 0 0 0 0 0 0 0.1 0"/>
<feBlend mode="normal" in2="BackgroundImageFix" result="effect1_dropShadow_1_306"/>
<feBlend mode="normal" in="SourceGraphic" in2="effect1_dropShadow_1_306" result="shape"/>
</filter>
<clipPath id="clip0_1_306">
<rect width="29.4599" height="36" fill="white" transform="translate(25.52 22)"/>
</clipPath>
</defs>
</svg>
