<svg width="81" height="80" viewBox="0 0 81 80" fill="none" xmlns="http://www.w3.org/2000/svg">
<g filter="url(#filter0_d_1_318)">
<rect x="10.75" y="10" width="60" height="60" rx="30" fill="white"/>
<g clip-path="url(#clip0_1_318)">
<path d="M36.52 58C35.8 57.73 35.26 57.28 35.17 56.56C35.17 56.38 35.17 56.29 35.17 56.11C35.17 53.41 35.17 50.71 35.17 48.01C35.17 47.38 35.35 46.93 35.8 46.48C35.89 46.39 35.89 46.3 35.89 46.12C35.89 44.41 35.89 42.79 35.89 41.08C35.89 40.99 35.8 40.81 35.71 40.72C35.35 40.36 35.17 39.91 35.17 39.28C35.17 37.57 35.17 35.86 35.17 34.15C35.17 32.98 35.71 32.08 36.79 31.54C37.69 31.09 37.96 30.37 37.96 29.29C37.96 29.2 37.87 29.11 37.78 29.11C37.33 28.84 37.15 28.57 37.15 28.03C37.15 27.76 37.15 27.4 37.15 27.13C37.15 26.59 37.6 26.14 38.14 26.14C39.94 26.14 41.74 26.14 43.54 26.14C44.08 26.14 44.53 26.59 44.53 27.13C44.53 27.4 44.53 27.67 44.53 27.94C44.53 28.48 44.35 28.84 43.9 29.11C43.81 29.11 43.72 29.29 43.72 29.38C43.72 30.28 43.99 31.09 44.89 31.63C45.88 32.17 46.42 33.07 46.42 34.24C46.42 35.95 46.42 37.66 46.42 39.37C46.42 39.91 46.24 40.36 45.88 40.72C45.79 40.81 45.7 40.99 45.7 41.08C45.7 42.7 45.7 44.41 45.7 46.03C45.7 46.21 45.79 46.3 45.88 46.48C46.24 46.84 46.42 47.29 46.42 47.83C46.42 50.62 46.42 53.41 46.42 56.2C46.42 57.19 45.88 57.73 44.98 58C42.19 58 39.4 58 36.52 58ZM45.43 52.42C45.25 52.42 45.16 52.42 44.98 52.42C43.54 52.42 42.1 52.42 40.66 52.42C40.48 52.42 40.21 52.42 40.03 52.42C39.76 52.42 39.58 52.24 39.58 51.97C39.58 51.7 39.76 51.52 40.03 51.43C40.12 51.43 40.3 51.43 40.39 51.43C41.92 51.43 43.54 51.43 45.07 51.43C45.16 51.43 45.34 51.43 45.43 51.43C45.43 51.07 45.43 50.71 45.43 50.44C42.37 50.44 39.31 50.44 36.25 50.44C36.25 50.8 36.25 51.07 36.25 51.43C36.7 51.43 37.15 51.43 37.6 51.43C38.05 51.43 38.32 51.88 38.05 52.24C37.96 52.33 37.69 52.42 37.51 52.51C37.06 52.51 36.7 52.51 36.25 52.51C36.25 53.86 36.25 55.12 36.25 56.38C36.25 56.74 36.52 57.01 36.97 57.01C39.58 57.01 42.19 57.01 44.71 57.01C45.16 57.01 45.43 56.74 45.43 56.38C45.43 55.03 45.43 53.68 45.43 52.42ZM45.34 34.87C45.52 33.79 45.16 32.98 44.26 32.53C43.45 32.08 43 31.45 42.82 30.55C42.73 30.19 42.73 29.74 42.64 29.38C41.38 29.38 40.21 29.38 38.95 29.38C38.95 29.56 38.95 29.65 38.95 29.83C38.86 31.09 38.41 32.08 37.24 32.62C36.43 33.07 36.07 33.97 36.25 34.96C39.31 34.87 42.28 34.87 45.34 34.87ZM44.62 41.17C42.01 41.17 39.49 41.17 36.88 41.17C36.88 42.88 36.88 44.5 36.88 46.21C39.49 46.21 42.01 46.21 44.62 46.21C44.62 44.5 44.62 42.79 44.62 41.17ZM45.43 38.02C42.37 38.02 39.31 38.02 36.25 38.02C36.25 38.47 36.25 38.92 36.25 39.46C36.25 39.91 36.52 40.09 36.88 40.09C39.49 40.09 42.19 40.09 44.8 40.09C45.25 40.09 45.43 39.91 45.43 39.46C45.43 39.01 45.43 38.56 45.43 38.02ZM45.34 49.18C45.34 48.64 45.34 48.19 45.34 47.74C45.34 47.38 45.07 47.2 44.71 47.2C42.01 47.2 39.4 47.2 36.7 47.2C36.34 47.2 36.16 47.38 36.16 47.65C36.16 48.19 36.16 48.64 36.16 49.18C39.31 49.18 42.28 49.18 45.34 49.18ZM45.34 35.95C42.28 35.95 39.22 35.95 36.16 35.95C36.16 36.31 36.16 36.67 36.16 36.94C39.22 36.94 42.28 36.94 45.34 36.94C45.34 36.58 45.34 36.31 45.34 35.95ZM38.14 28.21C39.94 28.21 41.65 28.21 43.45 28.21C43.45 27.85 43.45 27.58 43.45 27.31C41.65 27.31 39.94 27.31 38.14 27.31C38.14 27.58 38.14 27.85 38.14 28.21Z" fill="#EE2E24"/>
<path d="M31.12 22C31.66 22.27 31.84 22.72 31.75 23.26C31.75 23.8 31.75 24.34 31.75 24.88C31.75 25.24 31.66 25.42 31.39 25.69C31.3 25.69 31.21 25.87 31.21 25.96C31.21 27.04 31.21 28.21 31.21 29.29C31.21 29.92 31.39 30.46 31.75 31C32.2 31.63 32.65 32.26 33.19 32.89C33.91 33.88 34.18 34.96 34.18 36.13C34.18 42.79 34.18 49.45 34.18 56.02C34.18 57.1 33.91 57.46 32.92 57.91C30.04 57.91 27.16 57.91 24.28 57.91C23.56 57.73 23.11 57.19 23.11 56.29C23.11 49.45 23.11 42.61 23.11 35.77C23.11 35.23 23.2 34.6 23.47 34.06C24.01 33.07 24.64 32.17 25.36 31.27C25.54 31 25.81 31 26.08 31.18C26.35 31.36 26.35 31.63 26.26 31.9C26.17 31.99 26.08 32.17 25.99 32.26C25.63 32.8 25.27 33.25 24.91 33.79C24.19 34.78 24.19 35.86 24.28 37.03C27.25 37.03 30.22 37.03 33.19 37.03C33.37 35.68 33.19 34.51 32.38 33.43C31.93 32.8 31.48 32.26 31.03 31.63C30.49 31 30.22 30.37 30.22 29.74C30.22 28.75 30.22 27.76 30.22 26.77C30.22 26.5 30.22 26.14 30.22 25.78C29.23 25.78 28.24 25.78 27.16 25.78C27.16 26.41 27.16 26.95 27.16 27.58C27.16 28.21 27.16 28.75 27.16 29.38C27.16 29.65 26.98 29.83 26.71 29.92C26.44 29.92 26.17 29.74 26.17 29.47C26.17 29.38 26.17 29.2 26.17 29.11C26.17 28.12 26.17 27.04 26.17 26.05C26.17 25.87 26.08 25.78 25.99 25.6C25.81 25.33 25.63 25.06 25.54 24.88C25.45 24.34 25.54 23.8 25.54 23.26C25.54 22.72 25.72 22.27 26.17 22C27.88 22 29.5 22 31.12 22ZM24.19 50.26C24.19 50.35 24.19 50.53 24.19 50.62C24.19 52.51 24.19 54.31 24.19 56.2C24.19 56.74 24.37 56.92 24.91 56.92C27.43 56.92 29.95 56.92 32.47 56.92C33.1 56.92 33.19 56.83 33.19 56.2C33.19 54.31 33.19 52.51 33.19 50.62C33.19 50.53 33.19 50.35 33.19 50.26C30.13 50.26 27.16 50.26 24.19 50.26ZM33.1 39.91C30.13 39.91 27.16 39.91 24.19 39.91C24.19 42.34 24.19 44.86 24.19 47.29C27.16 47.29 30.13 47.29 33.1 47.29C33.1 44.86 33.1 42.43 33.1 39.91ZM24.19 38.83C27.16 38.83 30.13 38.83 33.1 38.83C33.1 38.56 33.1 38.29 33.1 38.02C30.13 38.02 27.16 38.02 24.19 38.02C24.19 38.29 24.19 38.56 24.19 38.83ZM33.1 48.37C30.13 48.37 27.16 48.37 24.19 48.37C24.19 48.64 24.19 48.91 24.19 49.18C27.16 49.18 30.13 49.18 33.1 49.18C33.1 48.91 33.1 48.73 33.1 48.37ZM26.62 23.08C26.62 23.62 26.62 24.16 26.62 24.7C27.97 24.7 29.32 24.7 30.67 24.7C30.67 24.16 30.67 23.62 30.67 23.08C29.32 23.08 27.97 23.08 26.62 23.08Z" fill="#EE2E24"/>
<path d="M48.4 58C47.59 57.73 47.32 57.19 47.32 56.29C47.32 50.35 47.32 44.32 47.32 38.38C47.32 37.84 47.5 37.39 47.95 37.03C48.04 36.94 48.04 36.85 48.04 36.76C48.04 36.4 48.04 36.13 48.04 35.77C48.04 35.23 48.4 34.87 48.94 34.78C49.21 34.78 49.57 34.78 49.84 34.78C50.11 34.78 50.38 35.05 50.38 35.32C50.38 35.59 50.2 35.86 49.84 35.86C49.57 35.86 49.39 35.86 49.12 35.86C49.12 36.22 49.12 36.49 49.12 36.85C51.55 36.85 53.98 36.85 56.5 36.85C56.5 36.49 56.5 36.22 56.5 35.86C56.32 35.86 56.23 35.86 56.14 35.86C54.97 35.86 53.71 35.86 52.54 35.86C52.45 35.86 52.36 35.86 52.18 35.86C51.82 35.86 51.64 35.59 51.64 35.32C51.64 35.05 51.82 34.78 52.18 34.78C52.63 34.78 53.08 34.78 53.44 34.78C54.43 34.78 55.42 34.78 56.32 34.78C57.04 34.78 57.49 35.14 57.49 35.95C57.49 36.13 57.49 36.22 57.49 36.4C57.49 36.76 57.49 36.94 57.85 37.21C58.21 37.48 58.21 37.84 58.21 38.29C58.21 41.35 58.21 44.41 58.21 47.56C58.21 50.44 58.21 53.32 58.21 56.2C58.21 57.01 57.94 57.64 57.13 58C54.34 58 51.37 58 48.4 58ZM57.31 47.83C56.77 47.83 56.23 47.83 55.69 47.83C55.6 47.83 55.51 47.92 55.51 48.01C54.16 49.63 51.64 49.63 50.38 48.01C50.29 47.92 50.2 47.83 50.2 47.83C49.66 47.83 49.12 47.83 48.58 47.83C48.58 50.26 48.58 52.6 48.58 54.94C51.55 54.94 54.52 54.94 57.49 54.94C57.31 52.51 57.31 50.17 57.31 47.83ZM48.4 43.87C48.94 43.87 49.48 43.87 50.02 43.87C50.11 43.87 50.2 43.78 50.29 43.69C51.73 42.16 53.98 42.16 55.42 43.69C55.51 43.78 55.6 43.87 55.69 43.87C56.23 43.87 56.77 43.87 57.31 43.87C57.31 43.78 57.31 43.78 57.31 43.69C57.31 41.89 57.31 40.09 57.31 38.29C57.31 38.02 57.13 37.93 56.86 37.93C54.16 37.93 51.46 37.93 48.76 37.93C48.4 37.93 48.31 38.02 48.31 38.38C48.31 40.09 48.31 41.8 48.31 43.51C48.4 43.6 48.4 43.69 48.4 43.87ZM52.9 43.6C51.64 43.6 50.65 44.59 50.65 45.85C50.65 47.11 51.64 48.1 52.9 48.1C54.16 48.1 55.15 47.11 55.15 45.85C55.15 44.59 54.16 43.6 52.9 43.6ZM48.4 56.02C48.4 56.11 48.4 56.2 48.4 56.29C48.4 56.92 48.4 56.92 49.03 56.92C50.92 56.92 52.72 56.92 54.61 56.92C55.33 56.92 56.14 56.92 56.86 56.92C57.04 56.92 57.22 56.83 57.22 56.65C57.22 56.47 57.22 56.2 57.22 56.02C54.34 56.02 51.37 56.02 48.4 56.02ZM57.31 46.75C57.31 46.12 57.31 45.49 57.31 44.95C56.86 44.95 56.5 44.95 56.14 44.95C56.14 45.58 56.14 46.12 56.14 46.75C56.5 46.75 56.86 46.75 57.31 46.75ZM48.4 44.95C48.4 45.58 48.4 46.21 48.4 46.75C48.85 46.75 49.21 46.75 49.57 46.75C49.57 46.12 49.57 45.58 49.57 44.95C49.21 44.95 48.85 44.95 48.4 44.95Z" fill="#F99B2A"/>
<path d="M40.75 43.33C40.39 43.33 39.94 43.33 39.58 43.33C39.22 43.33 38.95 43.15 38.95 42.79C38.95 42.52 39.13 42.25 39.49 42.25C40.3 42.25 41.11 42.25 41.92 42.25C42.28 42.25 42.55 42.43 42.46 42.79C42.46 43.06 42.28 43.24 41.83 43.33C41.56 43.33 41.2 43.33 40.75 43.33Z" fill="#F99B2A"/>
<path d="M40.75 45.13C40.48 45.13 40.3 45.13 40.03 45.13C39.76 45.13 39.58 44.95 39.58 44.68C39.58 44.41 39.76 44.14 40.03 44.14C40.57 44.14 41.02 44.14 41.56 44.14C41.92 44.14 42.1 44.41 42.01 44.68C42.01 44.95 41.83 45.13 41.47 45.22C41.38 45.22 41.2 45.22 41.11 45.22C41.02 45.13 40.93 45.13 40.75 45.13Z" fill="#F99B2A"/>
<path d="M27.61 42.43C28.33 41.98 28.96 41.98 29.59 42.43C30.4 41.98 31.21 41.89 31.84 42.7C32.29 43.24 32.29 44.14 31.75 44.68C31.21 45.31 30.4 45.31 29.59 44.86C28.96 45.31 28.24 45.31 27.61 44.86C26.89 45.4 25.99 45.4 25.36 44.68C24.91 44.14 24.91 43.24 25.45 42.7C26.08 41.98 26.8 41.98 27.61 42.43ZM27.07 43.6C27.07 43.33 26.89 43.15 26.62 43.15C26.35 43.15 26.08 43.33 26.08 43.6C26.08 43.87 26.26 44.05 26.53 44.05C26.89 44.14 27.07 43.87 27.07 43.6ZM29.14 43.6C29.14 43.33 28.87 43.15 28.6 43.15C28.33 43.15 28.15 43.33 28.15 43.6C28.15 43.87 28.42 44.05 28.69 44.05C28.96 44.05 29.14 43.87 29.14 43.6ZM30.22 43.6C30.22 43.87 30.4 44.05 30.67 44.05C30.94 44.05 31.12 43.87 31.12 43.6C31.12 43.33 30.94 43.15 30.67 43.15C30.4 43.15 30.22 43.33 30.22 43.6Z" fill="#F99B2A"/>
<path d="M52.81 51.79C52.27 51.79 51.64 51.79 51.1 51.79C50.65 51.79 50.47 51.61 50.47 51.25C50.47 50.89 50.74 50.71 51.1 50.71C52.27 50.71 53.44 50.71 54.61 50.71C54.97 50.71 55.24 50.89 55.24 51.25C55.24 51.61 54.97 51.79 54.61 51.79C54.07 51.79 53.44 51.79 52.81 51.79Z" fill="#EE2E24"/>
</g>
</g>
<defs>
<filter id="filter0_d_1_318" x="0.75" y="0" width="80" height="80" filterUnits="userSpaceOnUse" color-interpolation-filters="sRGB">
<feFlood flood-opacity="0" result="BackgroundImageFix"/>
<feColorMatrix in="SourceAlpha" type="matrix" values="0 0 0 0 0 0 0 0 0 0 0 0 0 0 0 0 0 0 127 0" result="hardAlpha"/>
<feOffset/>
<feGaussianBlur stdDeviation="5"/>
<feComposite in2="hardAlpha" operator="out"/>
<feColorMatrix type="matrix" values="0 0 0 0 0 0 0 0 0 0 0 0 0 0 0 0 0 0 0.1 0"/>
<feBlend mode="normal" in2="BackgroundImageFix" result="effect1_dropShadow_1_318"/>
<feBlend mode="normal" in="SourceGraphic" in2="effect1_dropShadow_1_318" result="shape"/>
</filter>
<clipPath id="clip0_1_318">
<rect width="35.28" height="36" fill="white" transform="translate(23.11 22)"/>
</clipPath>
</defs>
</svg>
