<svg width="81" height="80" viewBox="0 0 81 80" fill="none" xmlns="http://www.w3.org/2000/svg">
<g filter="url(#filter0_d_1_340)">
<rect x="10.75" y="10" width="60" height="60" rx="30" fill="white"/>
<path d="M44.0312 49.8435C44.1556 49.8435 44.2748 49.7941 44.3627 49.7062C44.4506 49.6183 44.5 49.4991 44.5 49.3747C44.5 48.478 42.625 48.9185 42.625 50.3123C42.625 51.7044 44.5 52.1495 44.5 51.2498C44.5 51.1254 44.4506 51.0062 44.3627 50.9183C44.2748 50.8304 44.1556 50.781 44.0312 50.781C43.9069 50.781 43.7877 50.7316 43.6998 50.6437C43.6119 50.5558 43.5625 50.4366 43.5625 50.3123C43.5625 50.1879 43.6119 50.0687 43.6998 49.9808C43.7877 49.8929 43.9069 49.8435 44.0312 49.8435Z" fill="#F99B2A"/>
<path d="M44.0313 47.031C44.0313 46.7528 43.9488 46.481 43.7943 46.2497C43.6397 46.0184 43.4201 45.8382 43.1632 45.7318C42.9062 45.6253 42.6234 45.5975 42.3507 45.6517C42.0779 45.706 41.8273 45.8399 41.6306 46.0366C41.434 46.2333 41.3 46.4838 41.2458 46.7566C41.1915 47.0294 41.2194 47.3122 41.3258 47.5691C41.4322 47.8261 41.6125 48.0457 41.8437 48.2002C42.075 48.3548 42.3469 48.4372 42.625 48.4372C42.9978 48.4368 43.3553 48.2885 43.6189 48.0249C43.8825 47.7613 44.0308 47.4038 44.0313 47.031ZM42.1563 47.031C42.1563 46.9383 42.1837 46.8476 42.2353 46.7706C42.2868 46.6935 42.36 46.6334 42.4456 46.5979C42.5313 46.5624 42.6255 46.5531 42.7165 46.5712C42.8074 46.5893 42.8909 46.634 42.9565 46.6995C43.022 46.7651 43.0667 46.8486 43.0847 46.9395C43.1028 47.0305 43.0936 47.1247 43.0581 47.2104C43.0226 47.296 42.9625 47.3692 42.8854 47.4207C42.8083 47.4722 42.7177 47.4997 42.625 47.4997C42.5007 47.4996 42.3816 47.4502 42.2937 47.3623C42.2058 47.2744 42.1564 47.1553 42.1563 47.031Z" fill="#F99B2A"/>
<path d="M40.2813 50.3122C40.0031 50.3122 39.7312 50.3947 39.5 50.5492C39.2687 50.7037 39.0885 50.9233 38.982 51.1803C38.8756 51.4373 38.8478 51.72 38.902 51.9928C38.9563 52.2656 39.0902 52.5161 39.2869 52.7128C39.4836 52.9095 39.7341 53.0434 40.0069 53.0977C40.2797 53.1519 40.5624 53.1241 40.8194 53.0177C41.0764 52.9112 41.296 52.731 41.4505 52.4997C41.605 52.2685 41.6875 51.9966 41.6875 51.7184C41.6871 51.3456 41.5388 50.9882 41.2752 50.7245C41.0115 50.4609 40.6541 50.3126 40.2813 50.3122ZM40.2813 52.1872C40.1885 52.1872 40.0979 52.1597 40.0208 52.1082C39.9437 52.0567 39.8837 51.9835 39.8482 51.8978C39.8127 51.8122 39.8034 51.7179 39.8215 51.627C39.8396 51.5361 39.8842 51.4525 39.9498 51.387C40.0154 51.3214 40.0989 51.2768 40.1898 51.2587C40.2807 51.2406 40.375 51.2499 40.4606 51.2854C40.5463 51.3209 40.6195 51.3809 40.671 51.458C40.7225 51.5351 40.75 51.6257 40.75 51.7184C40.7499 51.8427 40.7004 51.9619 40.6126 52.0498C40.5247 52.1376 40.4055 52.1871 40.2813 52.1872Z" fill="#F99B2A"/>
<path d="M44.6235 53.6579C42.0225 54.5373 39.0975 53.9392 37.0824 52.1387L37.4444 51.1983C38.6961 50.8978 39.2538 49.3576 38.5522 48.3213L39.7903 45.1057C41.8144 45.731 43.0188 42.4903 41.1405 41.5985L42.1562 38.9605L43.5352 42.5418C43.7581 43.1209 44.6329 42.7834 44.4101 42.2049L42.839 38.1247H45.1157L45.6438 39.4965C44.2328 40.6763 45.2134 43.32 47.3445 42.744C47.4043 42.7284 47.4605 42.701 47.5097 42.6635C47.5589 42.6261 47.6003 42.5792 47.6313 42.5257C47.6623 42.4722 47.6825 42.4131 47.6905 42.3517C47.6986 42.2904 47.6945 42.2281 47.6783 42.1683C47.6622 42.1086 47.6344 42.0527 47.5965 42.0037C47.5587 41.9548 47.5115 41.9139 47.4578 41.8832C47.404 41.8526 47.3447 41.833 47.2833 41.8254C47.2219 41.8178 47.1596 41.8224 47.1 41.839C45.86 42.1739 45.5453 40.5409 46.427 40.0975C46.5309 40.0453 46.6117 39.9562 46.6536 39.8477C46.6955 39.7391 46.6956 39.6189 46.6538 39.5103L45.875 37.4875C45.8409 37.3991 45.7809 37.3231 45.7028 37.2695C45.6247 37.2159 45.5322 37.1872 45.4375 37.1872C42.0689 37.1891 41.8768 37.0771 41.7188 37.4875C40.1023 41.8569 39.9186 41.7825 40.1171 42.1287C40.1517 42.1892 40.1993 42.2411 40.2565 42.2809C40.3137 42.3206 40.379 42.3471 40.4477 42.3584C41.4617 42.5252 41.2119 43.736 40.6679 44.1195C40.4109 44.3007 40.1137 44.286 39.7847 44.0759C39.7261 44.0385 39.66 44.0146 39.591 44.0059C39.5221 43.9973 39.4521 44.004 39.386 44.0257C39.32 44.0474 39.2597 44.0835 39.2093 44.1314C39.159 44.1793 39.1199 44.2378 39.095 44.3026L37.5803 48.2366C37.5481 48.3202 37.5406 48.4112 37.5585 48.4989C37.5764 48.5866 37.6191 48.6673 37.6814 48.7316C38.185 49.2502 37.8461 50.2623 37.0759 50.309C36.9861 50.3145 36.8999 50.3456 36.8273 50.3987C36.7548 50.4518 36.6991 50.5246 36.6668 50.6085L36.0938 52.0974C36.0608 52.183 36.0537 52.2765 36.0734 52.3662C36.0931 52.4559 36.1386 52.5378 36.2045 52.6018C38.5424 54.8752 41.9431 55.5539 44.9238 54.5462C45.0415 54.5063 45.1386 54.4214 45.1938 54.3099C45.2489 54.1985 45.2575 54.0697 45.2177 53.952C45.1778 53.8342 45.0929 53.7371 44.9814 53.6819C44.87 53.6268 44.7412 53.6182 44.6235 53.6581V53.6579Z" fill="#F99B2A"/>
<path d="M55.2812 43.7497C54.8426 43.7497 46.1982 43.7497 44.9687 43.7497C44.8444 43.7497 44.7252 43.7991 44.6373 43.887C44.5494 43.9749 44.5 44.0941 44.5 44.2184C44.5 44.3428 44.5494 44.462 44.6373 44.5499C44.7252 44.6378 44.8444 44.6872 44.9687 44.6872H45.4785L46.3772 54.5734C46.3878 54.6898 46.4415 54.7981 46.5278 54.877C46.6141 54.9558 46.7268 54.9996 46.8437 54.9997H53.4062C53.5232 54.9997 53.6359 54.956 53.7223 54.8771C53.8087 54.7982 53.8624 54.6899 53.873 54.5734L54.2141 50.8193C54.2205 50.7575 54.2146 50.6951 54.1967 50.6356C54.1788 50.5762 54.1493 50.5209 54.1099 50.4729C54.0705 50.425 54.0219 50.3853 53.967 50.3563C53.9122 50.3273 53.8521 50.3094 53.7902 50.3038C53.7284 50.2982 53.6661 50.3049 53.6069 50.3236C53.5476 50.3423 53.4927 50.3725 53.4453 50.4126C53.3979 50.4526 53.3589 50.5017 53.3306 50.557C53.3023 50.6122 53.2853 50.6726 53.2805 50.7345L52.9781 54.0622H47.2718L46.4195 44.6872H53.8305L53.6203 47.0008C53.6099 47.1242 53.6487 47.2466 53.7282 47.3415C53.8078 47.4363 53.9217 47.4958 54.0449 47.507C54.1682 47.5182 54.2909 47.4802 54.3863 47.4013C54.4816 47.3223 54.5419 47.2089 54.5539 47.0857L54.7718 44.6872H55.2812C55.4055 44.6872 55.5248 44.6378 55.6127 44.5499C55.7006 44.462 55.75 44.3428 55.75 44.2184C55.75 44.0941 55.7006 43.9749 55.6127 43.887C55.5248 43.7991 55.4055 43.7497 55.2812 43.7497Z" fill="#EE2E24"/>
<path d="M42.1566 36.2402C42.2169 36.2525 42.2791 36.2529 42.3395 36.2412C42.4 36.2295 42.4575 36.2061 42.5089 36.1721C42.5603 36.1382 42.6045 36.0945 42.6389 36.0435C42.6734 35.9926 42.6975 35.9353 42.7099 35.875C42.9164 34.8635 43.4866 33.9628 44.3125 33.3435C44.3303 33.3302 44.3471 33.3156 44.3627 33.2999C44.9851 32.6772 45.0767 31.5102 43.875 30.5054C43.6562 30.3224 43.5772 30.0132 43.6406 29.8388C43.6558 29.7971 43.6944 29.6865 43.9628 29.6872C49.6396 29.7953 49.9243 29.5209 50.0434 29.8462C50.1063 30.018 50.0359 30.3187 49.8127 30.5054C49.2196 31.0012 48.9061 31.5397 48.8811 32.1057C48.8561 32.6657 49.1607 33.1825 49.3752 33.3434C49.8979 33.7375 50.3223 34.2473 50.615 34.8329C50.9078 35.4184 51.0609 36.0638 51.0625 36.7185C51.0625 36.8428 51.1119 36.962 51.1998 37.0499C51.2877 37.1378 51.407 37.1872 51.5313 37.1872C51.6556 37.1872 51.7748 37.1378 51.8627 37.0499C51.9507 36.962 52 36.8428 52 36.7185C51.9981 35.9265 51.8147 35.1456 51.4638 34.4356C51.113 33.7256 50.6041 33.1054 49.9763 32.6228C49.5932 32.1478 49.9479 31.6142 50.414 31.2245C51.2625 30.5152 51.2128 29.096 50.125 28.8003V25.4685C50.125 25.3442 50.0757 25.2249 49.9877 25.137C49.8998 25.0491 49.7806 24.9997 49.6563 24.9997H44.0313C43.907 24.9997 43.7877 25.0491 43.6998 25.137C43.6119 25.2249 43.5625 25.3442 43.5625 25.4685V28.7999C42.4637 29.0929 42.4235 30.5138 43.2735 31.2245C43.7459 31.6194 44.0915 32.151 43.7114 32.6228C42.7224 33.3789 42.0404 34.4674 41.7914 35.6872C41.7665 35.809 41.791 35.9356 41.8595 36.0393C41.928 36.143 42.0349 36.2153 42.1566 36.2402ZM44.5 25.9372H49.1875V26.8747H45.9063C45.782 26.8747 45.6627 26.9241 45.5748 27.012C45.4869 27.0999 45.4375 27.2192 45.4375 27.3435C45.4375 27.4678 45.4869 27.587 45.5748 27.6749C45.6627 27.7628 45.782 27.8122 45.9063 27.8122H49.1875V28.7497H44.5V25.9372Z" fill="#EE2E24"/>
<path d="M30.9062 47.031C30.9062 46.9067 30.8569 46.7874 30.769 46.6995C30.681 46.6116 30.5618 46.5622 30.4375 46.5622C29.9404 46.5617 29.4638 46.364 29.1123 46.0124C28.7608 45.6609 28.5631 45.1843 28.5625 44.6872C28.5625 43.9739 29.5977 42.3565 30.4375 41.2347C31.2773 42.3561 32.3125 43.973 32.3125 44.6872C32.3125 44.8116 32.3619 44.9308 32.4498 45.0187C32.5377 45.1066 32.6569 45.156 32.7812 45.156C32.9056 45.156 33.0248 45.1066 33.1127 45.0187C33.2006 44.9308 33.25 44.8116 33.25 44.6872C33.25 43.2693 31.0537 40.4878 30.8033 40.1755C30.7594 40.1207 30.7037 40.0765 30.6404 40.0461C30.5771 40.0157 30.5077 39.9999 30.4375 39.9999C30.3673 39.9999 30.2979 40.0157 30.2346 40.0461C30.1713 40.0765 30.1156 40.1207 30.0717 40.1755C29.8213 40.4878 27.625 43.2693 27.625 44.6872C27.625 47.2717 30.9062 48.1626 30.9062 47.031Z" fill="#F99B2A"/>
<path d="M36.5312 54.0622H35.125V33.0983L37.4746 29.1828L39.8323 33.0987V37.656C39.8323 37.7803 39.8817 37.8995 39.9696 37.9874C40.0575 38.0753 40.1767 38.1247 40.3011 38.1247C40.4254 38.1247 40.5446 38.0753 40.6325 37.9874C40.7204 37.8995 40.7698 37.7803 40.7698 37.656V32.9685C40.7698 32.7299 40.7924 32.921 37.9378 28.1345V25.4685C37.9378 25.3442 37.8884 25.2249 37.8005 25.137C37.7126 25.0491 37.5934 24.9997 37.469 24.9997H29.0312C28.9069 24.9997 28.7877 25.0491 28.6998 25.137C28.6119 25.2249 28.5625 25.3442 28.5625 25.4685V28.1512L28.1875 28.7764C28.1551 28.8292 28.1334 28.8879 28.1238 28.9491C28.1142 29.0104 28.1168 29.0729 28.1316 29.1331C28.1463 29.1933 28.1728 29.25 28.2096 29.2999C28.2463 29.3497 28.2926 29.3919 28.3458 29.4237C28.3989 29.4556 28.4579 29.4766 28.5192 29.4856C28.5805 29.4945 28.643 29.4912 28.703 29.4759C28.7631 29.4605 28.8195 29.4334 28.869 29.3961C28.9185 29.3588 28.9601 29.3121 28.9914 29.2586L29.2967 28.7497H36.6409L34.3909 32.4997H32.7812C32.6569 32.4997 32.5377 32.5491 32.4498 32.637C32.3619 32.7249 32.3125 32.8442 32.3125 32.9685C32.3125 33.0928 32.3619 33.212 32.4498 33.2999C32.5377 33.3878 32.6569 33.4372 32.7812 33.4372H34.1875V37.1872H26.6875V33.4372H30.9062C31.0306 33.4372 31.1498 33.3878 31.2377 33.2999C31.3256 33.212 31.375 33.0928 31.375 32.9685C31.375 32.8442 31.3256 32.7249 31.2377 32.637C31.1498 32.5491 31.0306 32.4997 30.9062 32.4997H27.0466L27.0625 32.4731C27.1249 32.3665 27.1427 32.2397 27.1121 32.1201C27.0815 32.0005 27.005 31.8977 26.8991 31.8342C26.7932 31.7707 26.6666 31.7515 26.5467 31.7809C26.4267 31.8102 26.3232 31.8856 26.2586 31.9908C25.7937 32.7667 25.75 32.7955 25.75 32.9685V54.531C25.75 54.6553 25.7994 54.7745 25.8873 54.8624C25.9752 54.9503 26.0944 54.9997 26.2188 54.9997H36.5312C36.6556 54.9997 36.7748 54.9503 36.8627 54.8624C36.9506 54.7745 37 54.6553 37 54.531C37 54.4067 36.9506 54.2874 36.8627 54.1995C36.7748 54.1116 36.6556 54.0622 36.5312 54.0622ZM29.5 27.8122V25.9372H37V27.8122H29.5ZM34.1875 54.0622H26.6875V50.3122H34.1875V54.0622ZM34.1875 49.3747H26.6875V38.1247H34.1875V49.3747Z" fill="#EE2E24"/>
<path d="M27.625 31.0935C27.8839 31.0935 28.0938 30.8836 28.0938 30.6247C28.0938 30.3658 27.8839 30.156 27.625 30.156C27.3661 30.156 27.1562 30.3658 27.1562 30.6247C27.1562 30.8836 27.3661 31.0935 27.625 31.0935Z" fill="#EE2E24"/>
<path d="M32.3125 47.0309C32.5714 47.0309 32.7812 46.8211 32.7812 46.5622C32.7812 46.3033 32.5714 46.0934 32.3125 46.0934C32.0536 46.0934 31.8438 46.3033 31.8438 46.5622C31.8438 46.8211 32.0536 47.0309 32.3125 47.0309Z" fill="#F99B2A"/>
<path d="M51.5313 39.0622C51.7902 39.0622 52 38.8524 52 38.5935C52 38.3346 51.7902 38.1247 51.5313 38.1247C51.2724 38.1247 51.0625 38.3346 51.0625 38.5935C51.0625 38.8524 51.2724 39.0622 51.5313 39.0622Z" fill="#EE2E24"/>
<path d="M53.875 49.3747C54.1339 49.3747 54.3437 49.1649 54.3437 48.906C54.3437 48.6471 54.1339 48.4372 53.875 48.4372C53.6161 48.4372 53.4062 48.6471 53.4062 48.906C53.4062 49.1649 53.6161 49.3747 53.875 49.3747Z" fill="#EE2E24"/>
<path d="M51.5313 39.9997C51.407 39.9997 51.2877 40.0491 51.1998 40.137C51.1119 40.2249 51.0625 40.3442 51.0625 40.4685V42.3435C51.0625 42.4678 51.1119 42.587 51.1998 42.6749C51.2877 42.7628 51.407 42.8122 51.5313 42.8122C51.6556 42.8122 51.7748 42.7628 51.8627 42.6749C51.9506 42.587 52 42.4678 52 42.3435V40.4685C52 40.3442 51.9506 40.2249 51.8627 40.137C51.7748 40.0491 51.6556 39.9997 51.5313 39.9997Z" fill="#EE2E24"/>
</g>
<defs>
<filter id="filter0_d_1_340" x="0.75" y="0" width="80" height="80" filterUnits="userSpaceOnUse" color-interpolation-filters="sRGB">
<feFlood flood-opacity="0" result="BackgroundImageFix"/>
<feColorMatrix in="SourceAlpha" type="matrix" values="0 0 0 0 0 0 0 0 0 0 0 0 0 0 0 0 0 0 127 0" result="hardAlpha"/>
<feOffset/>
<feGaussianBlur stdDeviation="5"/>
<feComposite in2="hardAlpha" operator="out"/>
<feColorMatrix type="matrix" values="0 0 0 0 0 0 0 0 0 0 0 0 0 0 0 0 0 0 0.1 0"/>
<feBlend mode="normal" in2="BackgroundImageFix" result="effect1_dropShadow_1_340"/>
<feBlend mode="normal" in="SourceGraphic" in2="effect1_dropShadow_1_340" result="shape"/>
</filter>
</defs>
</svg>
