<svg width="81" height="80" viewBox="0 0 81 80" fill="none" xmlns="http://www.w3.org/2000/svg">
<g filter="url(#filter0_d_1_366)">
<rect x="10.75" y="10" width="60" height="60" rx="30" fill="white"/>
<path d="M28.0938 39.5313C28.0937 39.552 28.0951 39.5727 28.0979 39.5933L29.8644 52.8421C29.9103 53.1795 30.0767 53.4889 30.3329 53.7132C30.5891 53.9375 30.9178 54.0616 31.2583 54.0625H51.0625C51.4353 54.0621 51.7928 53.9138 52.0564 53.6502C52.32 53.3865 52.4683 53.0291 52.4688 52.6563V50.8123L54.3396 36.7808C54.3396 36.7787 54.3396 36.7767 54.3401 36.7749C54.3412 36.7654 54.3418 36.7558 54.3424 36.7461C54.3428 36.7391 54.3433 36.7321 54.3435 36.7251C54.3435 36.723 54.3435 36.721 54.3435 36.7192V34.8438C54.3435 34.7194 54.2941 34.6002 54.2062 34.5123C54.1183 34.4244 53.999 34.375 53.8747 34.375H44.5C44.3757 34.375 44.2565 34.4244 44.1685 34.5123C44.0806 34.6002 44.0313 34.7194 44.0313 34.8438V36.7188C44.0313 36.7209 44.0313 36.7229 44.0313 36.7246C44.0313 36.7317 44.0319 36.7386 44.0323 36.7457C44.0329 36.7553 44.0335 36.7649 44.0346 36.7744C44.0346 36.7764 44.0346 36.7784 44.0351 36.7803L44.8993 43.2616C43.9568 43.19 43.6655 42.935 43.5802 42.8154C43.5498 42.7724 43.5295 42.7231 43.5208 42.6712C43.512 42.6193 43.5151 42.5661 43.5297 42.5155C43.5614 42.4461 43.5748 42.3697 43.5686 42.2936C43.5625 42.2176 43.537 42.1443 43.4946 42.0809C43.4506 42.0156 43.3907 41.9624 43.3206 41.9264C43.2506 41.8904 43.1725 41.8727 43.0938 41.875C42.1611 41.875 41.4423 42.0566 40.8502 42.3265L41.2146 39.5933C41.2174 39.5727 41.2188 39.552 41.2188 39.5313C41.2179 38.4081 40.9069 37.3069 40.3201 36.3492C39.7333 35.3915 38.8935 34.6143 37.8933 34.1034C37.9332 34.0179 37.9464 33.9223 37.9311 33.8292L37.4624 31.0167C37.4441 30.9073 37.3876 30.8078 37.303 30.7361C37.2183 30.6644 37.111 30.625 37 30.625H36.5313V28.75H39.8125C39.9368 28.75 40.056 28.7006 40.144 28.6127C40.2319 28.5248 40.2813 28.4056 40.2813 28.2813V26.4063C40.2812 26.3421 40.2681 26.2786 40.2425 26.2197C40.217 26.1608 40.1796 26.1078 40.1327 26.064C40.0859 26.0201 40.0305 25.9864 39.97 25.9648C39.9096 25.9432 39.8454 25.9343 39.7813 25.9386L32.7501 26.4073C32.6572 26.4135 32.5683 26.4472 32.4947 26.5041C32.4211 26.561 32.366 26.6385 32.3366 26.7268L31.8678 28.133C31.8443 28.2035 31.8379 28.2785 31.8491 28.3519C31.8603 28.4254 31.8888 28.4951 31.9322 28.5553C31.9757 28.6156 32.0328 28.6647 32.0989 28.6985C32.165 28.7324 32.2382 28.75 32.3125 28.75H32.7813V30.625H32.3125C32.2015 30.625 32.0942 30.6644 32.0095 30.7361C31.9249 30.8078 31.8684 30.9073 31.8501 31.0167L31.3814 33.8292C31.3661 33.9223 31.3793 34.0179 31.4192 34.1034C30.419 34.6143 29.5792 35.3915 28.9924 36.3492C28.4056 37.3069 28.0946 38.4081 28.0938 39.5313ZM47.3125 53.125H36.002C35.8937 53.1249 35.79 53.0819 35.7134 53.0053C35.6369 52.9288 35.5939 52.825 35.5938 52.7168V47.9082C35.5939 47.8 35.6369 47.6962 35.7134 47.6197C35.79 47.5432 35.8937 47.5001 36.002 47.5H47.373C47.4813 47.5001 47.585 47.5432 47.6616 47.6197C47.7381 47.6962 47.7811 47.8 47.7813 47.9082V52.7168C47.7811 52.825 47.7381 52.9288 47.6616 53.0053C47.585 53.0819 47.4813 53.1249 47.373 53.125H47.3125ZM37 45.625H46.375V46.5625H37V45.625ZM51.5313 52.6563C51.5311 52.7805 51.4817 52.8997 51.3938 52.9876C51.3059 53.0754 51.1868 53.1249 51.0625 53.125H48.6553C48.6974 52.993 48.7188 52.8553 48.7188 52.7168V51.25H51.5313V52.6563ZM51.5898 50.3125H48.7188V47.9082C48.7183 47.5514 48.5764 47.2094 48.3242 46.9571C48.0719 46.7048 47.7298 46.5629 47.373 46.5625H47.3125V45.1563C47.3125 45.1431 47.3116 45.1302 47.3106 45.1173C47.3106 45.1155 47.3101 45.1122 47.3098 45.1093V45.1077C47.2745 44.8005 47.1816 44.5026 47.036 44.2298C46.9185 44.0006 46.7514 43.8004 46.5469 43.6439C46.3424 43.4873 46.1055 43.3783 45.8535 43.3248L45.0354 37.1875H53.3396L51.5898 50.3125ZM44.9688 35.3125H53.4063V36.25H44.9688V35.3125ZM42.796 43.3295C43.1924 43.9196 44.0811 44.2188 45.4375 44.2188C45.7891 44.2188 46.0312 44.3576 46.2004 44.6557C46.2063 44.6663 46.2121 44.6769 46.2175 44.6875H39.1692C39.3692 44.5342 39.5597 44.3733 39.7486 44.2135C40.5118 43.5676 41.2372 42.9537 42.5966 42.8337C42.6268 43.0113 42.6948 43.1804 42.796 43.3295ZM33.1264 27.3218L39.3438 26.9073V27.8125H32.9629L33.1264 27.3218ZM33.7188 28.75H35.5938V30.625H33.7188V28.75ZM32.3971 33.4375L32.7096 31.5625H36.6029L36.9154 33.4375H32.3971ZM34.1875 34.375H35.125C36.4868 34.3765 37.7928 34.9161 38.7586 35.8762C39.7244 36.8362 40.2717 38.139 40.2813 39.5008L39.8216 42.9473C39.5804 43.1278 39.3582 43.3156 39.143 43.4977C38.3887 44.1362 37.7371 44.6875 36.5313 44.6875C36.4069 44.6875 36.2877 44.7369 36.1998 44.8248C36.1119 44.9127 36.0625 45.0319 36.0625 45.1563V46.5625H36.002C35.6452 46.5629 35.3031 46.7048 35.0508 46.9571C34.7986 47.2094 34.6567 47.5514 34.6563 47.9082V52.7168C34.6562 52.8553 34.6776 52.993 34.7197 53.125H31.2583C31.1448 53.1247 31.0352 53.0833 30.9498 53.0086C30.8644 52.9338 30.8089 52.8307 30.7936 52.7182L29.0313 39.5008C29.0408 38.139 29.5881 36.8362 30.5539 35.8762C31.5197 34.9161 32.8257 34.3765 34.1875 34.375Z" fill="#EE2E24"/>
<path d="M41.6875 48.4375C41.3166 48.4375 40.9541 48.5475 40.6458 48.7535C40.3375 48.9595 40.0971 49.2524 39.9552 49.595C39.8133 49.9376 39.7762 50.3146 39.8485 50.6783C39.9209 51.042 40.0994 51.3761 40.3617 51.6383C40.6239 51.9006 40.958 52.0791 41.3217 52.1515C41.6854 52.2238 42.0624 52.1867 42.405 52.0448C42.7476 51.9029 43.0405 51.6625 43.2465 51.3542C43.4525 51.0459 43.5625 50.6833 43.5625 50.3125C43.5619 49.8154 43.3642 49.3388 43.0127 48.9873C42.6612 48.6358 42.1846 48.4381 41.6875 48.4375ZM41.6875 51.25C41.5021 51.25 41.3208 51.195 41.1666 51.092C41.0125 50.989 40.8923 50.8426 40.8214 50.6713C40.7504 50.5 40.7318 50.3115 40.768 50.1296C40.8042 49.9477 40.8935 49.7807 41.0246 49.6496C41.1557 49.5185 41.3227 49.4292 41.5046 49.393C41.6864 49.3568 41.875 49.3754 42.0463 49.4464C42.2176 49.5173 42.364 49.6375 42.467 49.7917C42.57 49.9458 42.625 50.1271 42.625 50.3125C42.6247 50.5611 42.5258 50.7993 42.3501 50.9751C42.1743 51.1508 41.936 51.2497 41.6875 51.25Z" fill="#F99B2A"/>
<path d="M49.1875 41.875C50.5234 41.875 51.5312 41.2705 51.5312 40.4688C51.5312 39.667 50.5234 39.0625 49.1875 39.0625C47.8516 39.0625 46.8438 39.667 46.8438 40.4688C46.8438 41.2705 47.8516 41.875 49.1875 41.875ZM49.1875 40C50.095 40 50.5938 40.3521 50.5938 40.4688C50.5938 40.5854 50.095 40.9375 49.1875 40.9375C48.28 40.9375 47.7812 40.5854 47.7812 40.4688C47.7812 40.3521 48.28 40 49.1875 40Z" fill="#F99B2A"/>
<path d="M31.8438 41.4062H37.4688C37.5931 41.4062 37.7123 41.3569 37.8002 41.269C37.8881 41.181 37.9375 41.0618 37.9375 40.9375V38.125C37.9375 38.0007 37.8881 37.8815 37.8002 37.7935C37.7123 37.7056 37.5931 37.6562 37.4688 37.6562H31.8438C31.7194 37.6562 31.6002 37.7056 31.5123 37.7935C31.4244 37.8815 31.375 38.0007 31.375 38.125V40.9375C31.375 41.0618 31.4244 41.181 31.5123 41.269C31.6002 41.3569 31.7194 41.4062 31.8438 41.4062ZM32.3125 38.5938H37V40.4688H32.3125V38.5938Z" fill="#F99B2A"/>
</g>
<defs>
<filter id="filter0_d_1_366" x="0.75" y="0" width="80" height="80" filterUnits="userSpaceOnUse" color-interpolation-filters="sRGB">
<feFlood flood-opacity="0" result="BackgroundImageFix"/>
<feColorMatrix in="SourceAlpha" type="matrix" values="0 0 0 0 0 0 0 0 0 0 0 0 0 0 0 0 0 0 127 0" result="hardAlpha"/>
<feOffset/>
<feGaussianBlur stdDeviation="5"/>
<feComposite in2="hardAlpha" operator="out"/>
<feColorMatrix type="matrix" values="0 0 0 0 0 0 0 0 0 0 0 0 0 0 0 0 0 0 0.1 0"/>
<feBlend mode="normal" in2="BackgroundImageFix" result="effect1_dropShadow_1_366"/>
<feBlend mode="normal" in="SourceGraphic" in2="effect1_dropShadow_1_366" result="shape"/>
</filter>
</defs>
</svg>
