<svg width="38" height="44" viewBox="0 0 38 44" fill="none" xmlns="http://www.w3.org/2000/svg">
<g clip-path="url(#clip0_1_307)" filter="url(#filter0_d_1_307)">
<path d="M12.3564 36C12.0618 35.8232 11.9439 35.5875 11.9439 35.234C11.9439 33.1718 11.9439 31.0507 11.9439 28.9885C11.9439 28.8707 11.9439 28.7529 12.0029 28.635C12.0618 28.3993 12.2385 28.2815 12.5331 28.2815C12.7688 28.2815 12.9456 28.3993 13.0045 28.6939C13.0634 28.8118 13.0634 28.9885 13.0634 29.1064C13.0634 30.815 13.0634 32.5237 13.0634 34.2913C13.0634 34.4091 13.0634 34.527 13.0634 34.7037C13.1813 34.6448 13.2991 34.6448 13.358 34.5859C15.1256 33.82 16.9521 33.1129 18.7197 32.347C19.0732 32.1702 19.4268 32.1702 19.7803 32.347C21.6657 33.1718 23.5511 33.9378 25.4366 34.7037C25.4366 34.527 25.4366 34.4091 25.4366 34.2913C25.4366 32.5826 25.4366 30.815 25.4366 29.1064C25.4366 28.9885 25.4366 28.8118 25.4366 28.6939C25.4955 28.4583 25.6723 28.2815 25.9079 28.2815C26.2025 28.2815 26.3793 28.3993 26.4382 28.635C26.4971 28.7529 26.4971 28.8707 26.4971 28.9885C26.4971 31.0507 26.4971 33.1718 26.4971 35.234C26.4971 35.5286 26.3793 35.7643 26.1436 35.9411C26.0258 35.9411 25.9079 35.9411 25.7901 35.9411C23.8457 35.1162 21.9014 34.3502 19.957 33.4664C19.4268 33.2308 18.9554 33.2308 18.4251 33.4664C16.4808 34.2913 14.5364 35.1162 12.5921 35.9411C12.5331 36 12.4742 36 12.3564 36Z" fill="white"/>
<path d="M32.507 8.6612C32.507 8.83796 32.448 9.01472 32.448 9.19148C32.2713 9.89852 32.448 10.4288 33.0372 10.9002C33.4497 11.1948 33.7443 11.6661 33.921 12.1964C34.0978 12.7856 34.0389 13.4337 33.6854 13.964C33.214 14.671 33.214 15.2602 33.6854 15.9673C34.2745 16.9689 34.0389 18.2062 33.1551 18.9722C32.8016 19.2668 32.448 19.5614 32.448 20.0327C32.448 20.2684 32.448 20.5041 32.507 20.7398C32.7426 21.9182 32.0945 23.0376 30.975 23.3912C30.2091 23.6268 29.7966 24.0982 29.6788 24.9231C29.561 26.0425 28.5004 26.8674 27.3809 26.8674C27.0863 26.8674 26.8507 26.8674 26.5561 26.9263C26.0847 27.0442 25.849 27.3977 25.6133 27.7512C25.0831 28.6939 24.1993 29.1064 23.1387 28.9885C23.0209 28.9885 22.8441 28.9296 22.7263 28.8707C22.0192 28.5172 21.3711 28.635 20.7819 29.1653C20.3106 29.5777 19.7214 29.7545 19.1322 29.7545C18.6019 29.7545 18.1305 29.5777 17.777 29.2242C17.1878 28.635 16.5397 28.5761 15.7737 28.8707C14.7132 29.2831 13.4759 28.8707 12.9456 27.8691C12.5331 27.1031 12.0029 26.8085 11.178 26.8674C10.0585 26.9263 9.05687 26.0425 8.88011 24.9231C8.76227 24.0982 8.34983 23.6268 7.58388 23.3912C6.4644 23.0376 5.81628 21.8592 6.05196 20.7398C6.22872 19.9738 5.99304 19.4435 5.40384 18.9132C4.46113 18.1473 4.22545 16.91 4.87357 15.8494C5.286 15.2013 5.286 14.6121 4.87357 13.9051C4.22545 12.9034 4.46113 11.6072 5.40384 10.9002C6.05196 10.4288 6.22872 9.8396 6.05196 9.07364C5.81628 7.95416 6.4644 6.77577 7.52496 6.42225C8.34983 6.18657 8.70335 5.65629 8.82119 4.83141C8.99795 3.77086 10.0585 2.94598 11.1191 2.94598C11.3547 2.94598 11.5904 2.94598 11.8261 2.88706C12.2975 2.76922 12.5921 2.47462 12.8277 2.06218C13.5348 0.824867 14.5953 0.471348 15.8916 0.942707C16.5397 1.17839 17.07 1.06055 17.6002 0.648108C18.6608 -0.235689 19.8392 -0.235689 20.8408 0.648108C21.3711 1.11947 21.9014 1.23731 22.6084 0.942707C23.8457 0.471348 24.9652 0.883787 25.6723 2.06218C26.0258 2.65138 26.4971 2.94598 27.2042 2.94598C28.6182 2.94598 29.502 3.65302 29.6788 5.06709C29.7966 5.77413 30.2091 6.18657 30.8572 6.42225C31.8588 6.71685 32.448 7.60064 32.507 8.6612ZM11.4137 4.00654C10.4709 4.00654 9.99959 4.36005 9.88175 5.24385C9.70499 6.36333 9.11579 7.01145 8.05524 7.36497C7.28928 7.60064 6.93576 8.18984 7.11252 8.9558C7.3482 10.0164 7.0536 10.9002 6.1698 11.6072C5.52168 12.1375 5.40384 12.7856 5.81628 13.5515C6.40548 14.4943 6.40548 15.3781 5.81628 16.3208C5.34492 17.0278 5.46276 17.6759 6.1698 18.2062C7.0536 18.9132 7.3482 19.7381 7.11252 20.7987C6.93576 21.5646 7.28928 22.2128 8.05524 22.4484C9.11579 22.802 9.70499 23.4501 9.88175 24.5695C9.99959 25.5123 10.5299 25.8658 11.4137 25.8069C12.4742 25.8069 13.2402 26.2193 13.7115 27.1031C13.8294 27.2799 13.9472 27.5155 14.124 27.6334C14.5364 27.9869 15.0667 27.9869 15.597 27.8101C16.5397 27.3977 17.4235 27.5155 18.1894 28.2226C18.9554 28.8707 19.5446 28.8707 20.3106 28.2226C21.0765 27.5745 21.9014 27.4566 22.7852 27.8101C23.7279 28.1637 24.2582 27.9869 24.7885 27.1031C25.2598 26.2193 26.0258 25.8069 27.0274 25.8658C27.9701 25.8658 28.4415 25.5123 28.6182 24.5695C28.795 23.509 29.3842 22.8609 30.3858 22.5074C31.2107 22.2717 31.5642 21.6825 31.3286 20.7987C31.0929 19.7381 31.3875 18.9132 32.2713 18.2062C32.9783 17.6759 33.0962 17.0278 32.6248 16.2619C32.0945 15.3781 32.0945 14.4943 32.6248 13.6105C33.0962 12.8445 32.9783 12.1964 32.2713 11.6072C31.4464 10.9591 31.1518 10.1342 31.3875 9.07364C31.5642 8.18984 31.2696 7.65956 30.3858 7.36497C29.3842 7.01145 28.795 6.36333 28.6182 5.30277C28.4415 4.36006 28.0291 3.94762 27.0274 4.00654C26.0258 4.00654 25.2598 3.5941 24.7295 2.7103C24.2582 1.88542 23.669 1.64974 22.7852 2.00326C21.9014 2.35678 21.0176 2.18002 20.2516 1.5319C19.5446 0.883787 18.9554 0.883787 18.2484 1.5319C17.4824 2.23894 16.5986 2.35678 15.597 2.00326C14.7721 1.64974 14.124 1.88542 13.7115 2.7103C13.2402 3.5941 12.4742 4.00654 11.4137 4.00654Z" fill="white"/>
<path d="M19.0732 3.77084C24.3171 3.77084 28.795 7.24711 30.0913 12.1964C30.2091 12.6677 30.268 13.1391 30.3858 13.6104C30.4448 13.964 30.268 14.1996 29.9145 14.2586C29.6199 14.3175 29.3842 14.1407 29.3253 13.7872C29.1485 12.7267 28.9129 11.725 28.4415 10.7234C27.0274 7.77739 24.7295 5.89196 21.5479 5.126C16.4219 3.88868 11.1191 6.95251 9.58715 12.0196C9.41039 12.6088 9.35147 13.198 9.23363 13.7872C9.17471 14.1996 8.93903 14.3764 8.64444 14.3175C8.29092 14.2586 8.17308 14.0229 8.232 13.6104C8.58552 10.9591 9.70499 8.66119 11.7083 6.83467C13.4169 5.24384 15.4202 4.30112 17.777 3.9476C18.1894 3.82976 18.7197 3.77084 19.0732 3.77084Z" fill="white"/>
<path d="M19.25 26.1015C14.4186 26.1015 10.1174 22.9787 8.64443 18.3241C8.40876 17.6759 8.34984 17.0278 8.232 16.3208C8.17308 15.9673 8.34984 15.7316 8.64443 15.6727C8.93903 15.6137 9.23363 15.7905 9.29255 16.144C9.46931 17.3224 9.76391 18.4419 10.3531 19.5025C11.9439 22.5074 14.4775 24.3339 17.8359 24.8642C20.8998 25.3355 23.6101 24.5106 25.9669 22.5663C27.8523 20.9754 28.9718 18.9133 29.3842 16.4386C29.3842 16.3208 29.4431 16.2029 29.4431 16.0851C29.502 15.7905 29.7377 15.6137 30.0912 15.6727C30.3858 15.7316 30.5626 15.9673 30.5037 16.2619C30.3858 17.3224 30.0912 18.383 29.6788 19.3257C28.4415 22.0949 26.3793 24.0982 23.6101 25.2177C22.2549 25.7479 20.6052 26.1015 19.25 26.1015Z" fill="white"/>
<path d="M16.4808 20.4452C15.8916 20.4452 15.6559 19.9738 15.8916 19.5025C17.2467 16.7332 18.6608 13.964 20.016 11.1948C20.4284 10.3699 20.8408 9.54501 21.2533 8.72013C21.4889 8.24877 21.7246 8.13093 22.1371 8.30769C22.4906 8.48445 22.5495 8.77905 22.3138 9.30933C20.6641 12.6088 19.0143 15.9083 17.3646 19.2079C17.1878 19.5025 17.07 19.856 16.8932 20.0917C16.7164 20.2684 16.5397 20.3863 16.4808 20.4452Z" fill="white"/>
<path d="M20.3695 16.9689C20.3695 16.5565 20.3695 16.144 20.3695 15.7316C20.4284 14.7299 20.8998 14.1997 21.8425 14.0818C22.3138 14.0229 22.8441 14.0818 23.3155 14.1997C23.9636 14.3764 24.3171 14.8478 24.376 15.4959C24.4349 16.4975 24.4349 17.5581 24.376 18.5597C24.376 19.2079 23.9636 19.6203 23.3744 19.856C22.7263 20.0917 22.0782 20.0917 21.43 19.856C20.7819 19.6203 20.4284 19.1489 20.3695 18.5008C20.3695 17.9705 20.3695 17.4403 20.3695 16.9689ZM23.3155 16.9689C23.3155 16.5565 23.3155 16.144 23.3155 15.7316C23.3155 15.2602 23.0209 15.0245 22.4906 14.9656C21.9014 14.9067 21.489 15.1424 21.489 15.6137C21.43 16.4975 21.43 17.3813 21.489 18.2651C21.489 18.7365 21.9014 18.9722 22.4317 18.9722C23.0209 18.9722 23.3155 18.6776 23.3155 18.2062C23.3744 17.7938 23.3155 17.3813 23.3155 16.9689Z" fill="white"/>
<path d="M17.7181 11.8429C17.7181 12.3142 17.7181 12.7267 17.7181 13.198C17.6592 14.0818 17.1878 14.671 16.304 14.7888C15.7737 14.8478 15.2435 14.7888 14.7721 14.671C14.124 14.4942 13.7705 14.0229 13.7115 13.3748C13.6526 12.3731 13.6526 11.3715 13.7115 10.3699C13.7705 9.6039 14.2418 9.13254 14.9489 8.95578C15.5381 8.83794 16.1272 8.83794 16.6575 9.0147C17.3056 9.25038 17.6592 9.72174 17.7181 10.4288C17.7181 10.8412 17.7181 11.3126 17.7181 11.8429ZM14.7721 11.7839C14.7721 12.1964 14.7721 12.5499 14.7721 12.9623C14.7721 13.5515 15.0667 13.7872 15.7148 13.8461C16.304 13.8461 16.6575 13.5515 16.6575 12.9623C16.6575 12.1964 16.6575 11.4304 16.6575 10.6645C16.6575 10.0753 16.304 9.83958 15.7148 9.83958C15.1256 9.83958 14.7721 10.1342 14.7721 10.6645C14.7721 11.018 14.7721 11.4304 14.7721 11.7839Z" fill="white"/>
</g>
<defs>
<filter id="filter0_d_1_307" x="0.520046" y="0" width="37.4599" height="44" filterUnits="userSpaceOnUse" color-interpolation-filters="sRGB">
<feFlood flood-opacity="0" result="BackgroundImageFix"/>
<feColorMatrix in="SourceAlpha" type="matrix" values="0 0 0 0 0 0 0 0 0 0 0 0 0 0 0 0 0 0 127 0" result="hardAlpha"/>
<feOffset dy="4"/>
<feGaussianBlur stdDeviation="2"/>
<feComposite in2="hardAlpha" operator="out"/>
<feColorMatrix type="matrix" values="0 0 0 0 0 0 0 0 0 0 0 0 0 0 0 0 0 0 0.25 0"/>
<feBlend mode="normal" in2="BackgroundImageFix" result="effect1_dropShadow_1_307"/>
<feBlend mode="normal" in="SourceGraphic" in2="effect1_dropShadow_1_307" result="shape"/>
</filter>
<clipPath id="clip0_1_307">
<rect width="29.4599" height="36" fill="white" transform="translate(4.52005)"/>
</clipPath>
</defs>
</svg>
