<svg width="29" height="30" viewBox="0 0 29 30" fill="none" xmlns="http://www.w3.org/2000/svg">
<g clip-path="url(#clip0_1002_17)">
<path d="M5.62256 11.108L5.2193 9.89819L6.28244 9.53159L6.69792 10.7414L5.62256 11.108ZM7.74883 10.387L7.33335 9.17721L8.39649 8.81061L8.81197 10.0204L7.74883 10.387ZM9.87511 9.66601L9.45963 8.45623L10.5228 8.08963L10.9382 9.29941L9.87511 9.66601Z" fill="#9A9A9C"/>
<path d="M4.60832 12.7699C4.5961 12.7699 4.5961 12.7699 4.58388 12.7699C4.24172 12.7577 3.9851 12.4766 3.99732 12.1344L4.26616 4.85134C3.97288 4.5825 3.56962 4.08148 3.23968 3.1772C2.89752 2.23627 3.4352 1.61305 3.87512 1.42975C3.97288 1.39309 6.30689 0.403272 7.52889 0.0611131C7.91993 -0.0488666 8.29875 0.0122332 8.62869 0.232193C9.52074 0.830971 9.7407 2.49289 9.77736 2.82282C9.77736 2.83504 9.77736 2.84726 9.77736 2.8717L9.78958 3.3605L13.0768 7.88189C13.2723 8.15073 13.2112 8.54177 12.9423 8.73728C12.6735 8.9328 12.2825 8.87171 12.0869 8.60287L8.71423 3.9104C8.64091 3.81264 8.60425 3.69044 8.59203 3.56824L8.56759 2.92058C8.49427 2.33403 8.24987 1.42975 7.95659 1.23423C7.93215 1.22201 7.91993 1.20979 7.87105 1.22201C6.78347 1.52751 4.62054 2.43179 4.37614 2.52955C4.3517 2.54176 4.32726 2.57842 4.38836 2.73728C4.7183 3.64156 5.10934 3.94706 5.17044 3.99594C5.40262 4.0937 5.50038 4.31366 5.50038 4.55806L5.21932 12.1589C5.2071 12.501 4.93826 12.7699 4.60832 12.7699ZM4.37614 2.54176C4.36392 2.54176 4.36392 2.55398 4.36392 2.55398C4.36392 2.55398 4.36392 2.54176 4.37614 2.54176Z" fill="#EE2E24"/>
<path d="M4.93828 5.26681C4.69389 5.26681 4.46171 5.12018 4.37617 4.888C4.25397 4.57028 4.40061 4.2159 4.71833 4.0937L8.44541 2.59064C8.76313 2.46844 9.11751 2.61508 9.23971 2.9328C9.36191 3.25052 9.21527 3.6049 8.89755 3.7271L5.17046 5.21794C5.09714 5.24238 5.02382 5.26681 4.93828 5.26681Z" fill="#EE2E24"/>
<path d="M11.1948 13.0143C11.1459 13.0143 11.0971 13.0143 11.0482 12.9898C10.7183 12.9043 10.5227 12.5743 10.6083 12.2444L11.3292 9.3727C11.3415 9.3116 11.3781 9.2505 11.4148 9.1894L15.1908 3.38492C15.3618 3.0672 15.8629 2.65173 16.7305 2.81058H16.7427C17.4515 2.95722 24.1235 6.15885 26.1521 7.13645C26.1521 7.13645 26.1643 7.13645 26.1643 7.14867C26.4576 7.29531 26.9097 7.77189 26.7508 8.59063C26.6531 9.09164 25.651 12.22 25.5288 12.5743C25.4311 12.8921 25.0767 13.0754 24.759 12.9654C24.4413 12.8676 24.258 12.5132 24.3679 12.1955C24.7834 10.8758 25.48 8.67617 25.5533 8.34623C25.5655 8.27291 25.5655 8.22403 25.5533 8.21181C22.3272 6.65987 17.0726 4.17922 16.4861 4.00814C16.3394 3.9837 16.2539 3.99592 16.2295 4.00814C16.2295 4.00814 16.2295 4.02036 16.2172 4.02036L12.4901 9.76374L11.7936 12.5377C11.7203 12.8187 11.4759 13.0143 11.1948 13.0143Z" fill="#EE2E24"/>
<path d="M23.7325 11.8289L22.706 11.3768L23.2315 10.2159L24.2579 10.668L23.7325 11.8289ZM21.6918 10.9124L20.6653 10.4603L21.1907 9.28716L22.2172 9.7393L21.6918 10.9124ZM19.6388 9.99592L18.6123 9.54378L19.1378 8.38288L20.1643 8.83502L19.6388 9.99592ZM17.5981 9.07942L16.5716 8.62728L17.0971 7.46639L18.1235 7.91853L17.5981 9.07942ZM15.5451 8.16293L14.5186 7.71079L15.0441 6.54989L16.0706 7.00203L15.5451 8.16293Z" fill="#9A9A9C"/>
<path d="M17.9525 30C16.9627 30 15.7529 30 14.2621 29.9878C10.5472 29.9634 6.85677 29.9023 6.82011 29.9023C6.74679 29.9023 6.68569 29.8901 6.62459 29.8656C6.52683 29.829 5.61033 29.4868 5.29261 28.6925C5.07265 28.1548 2.12764 19.5886 1.68772 18.33C1.28446 17.9389 0.404628 17.0469 0.257988 16.3748C0.0991285 15.7149 0.221328 14.3096 0.245768 14.0408C0.245768 14.0163 0.245768 14.0041 0.257988 13.9797C0.355748 13.4542 0.832326 12.4399 1.88324 12.4399L27.3496 12.5133C27.3985 12.5133 27.4474 12.5133 27.4841 12.5255C27.8995 12.6232 28.6327 12.9898 28.7672 13.7475C28.8771 14.3585 28.816 15.6782 28.816 15.8249C28.816 15.8371 28.816 15.8371 28.816 15.8493C28.8038 15.996 28.6938 17.2546 27.8629 17.9267C27.3985 18.5377 25.3333 23.8412 23.5859 28.6803V28.6925C23.5492 28.778 23.2315 29.5601 22.3883 29.8778C22.2173 29.9145 21.9973 30 17.9525 30ZM6.95452 28.6803C12.3802 28.7658 21.093 28.8391 21.9729 28.7047C22.2661 28.5703 22.4128 28.277 22.4372 28.2404C22.5228 28.0204 23.427 25.4909 24.4168 22.9369C26.5309 17.4013 26.8608 17.1569 27.0808 16.9858C27.4474 16.7047 27.5696 15.9715 27.594 15.7638C27.6185 15.2505 27.6307 14.3218 27.5696 13.9674C27.5574 13.8819 27.3985 13.7841 27.2641 13.7353L1.88324 13.6619C1.6144 13.6619 1.4922 14.0896 1.46776 14.1874C1.41888 14.7862 1.37 15.7516 1.45554 16.1059C1.50442 16.3381 2.06654 17.0224 2.62866 17.5479C2.70198 17.6212 2.76308 17.7068 2.78752 17.7923C3.72846 20.5418 6.23355 27.7882 6.41685 28.2281C6.49017 28.4237 6.78345 28.5947 6.95452 28.6803Z" fill="#EE2E24"/>
<path d="M27.8384 17.4379H1.18671C0.844553 17.4379 0.575714 17.1691 0.575714 16.8269C0.575714 16.4848 0.844553 16.2159 1.18671 16.2159H27.8384C28.1806 16.2159 28.4494 16.4848 28.4494 16.8269C28.4494 17.1691 28.1806 17.4379 27.8384 17.4379Z" fill="#EE2E24"/>
<path d="M14.4087 26.8351C14.0665 26.8351 13.7977 26.5662 13.7977 26.2241V19.4053C13.7977 19.0632 14.0665 18.7943 14.4087 18.7943C14.7508 18.7943 15.0197 19.0632 15.0197 19.4053V26.2241C15.0197 26.554 14.7508 26.8351 14.4087 26.8351Z" fill="#EE2E24"/>
<path d="M18.6002 26.8351C18.5269 26.8351 18.4658 26.8229 18.3924 26.7984C18.0747 26.6884 17.9036 26.3341 18.0258 26.0163L20.4698 19.1976C20.5798 18.8799 20.9342 18.721 21.2519 18.831C21.5696 18.941 21.7407 19.2954 21.6185 19.6131L19.1745 26.4318C19.089 26.6762 18.8568 26.8351 18.6002 26.8351Z" fill="#EE2E24"/>
<path d="M10.6205 26.8351C10.3761 26.8351 10.1439 26.6884 10.0462 26.4318L7.52886 19.6131C7.40666 19.2954 7.57774 18.941 7.89545 18.831C8.21317 18.7088 8.56755 18.8799 8.67753 19.1976L11.1948 26.0163C11.317 26.334 11.146 26.6884 10.8282 26.7984C10.7671 26.8228 10.6938 26.8351 10.6205 26.8351Z" fill="#EE2E24"/>
<path d="M28.0706 25.2587C27.7773 25.2587 27.5085 25.0632 27.4229 24.7577L24.1602 12.7332C24.0624 12.3788 24.2702 12 24.6368 11.9145C24.9912 11.8167 25.37 12.0245 25.4555 12.3911L28.7182 24.4155C28.816 24.7699 28.6083 25.1487 28.2417 25.2342C28.1928 25.2465 28.1317 25.2587 28.0706 25.2587Z" fill="#F99B2A"/>
<path d="M1.02782 24.9043C0.978941 24.9043 0.930061 24.9043 0.868961 24.892C0.502362 24.8065 0.282403 24.4399 0.367943 24.0855L3.10521 12.4277C3.19075 12.0611 3.55735 11.8411 3.91173 11.9267C4.27833 12.0122 4.49829 12.3788 4.41275 12.7332L1.6877 24.3788C1.61438 24.6843 1.33332 24.9043 1.02782 24.9043Z" fill="#F99B2A"/>
</g>
<defs>
<clipPath id="clip0_1002_17">
<rect width="28.6558" height="30" fill="white" transform="translate(0.172455)"/>
</clipPath>
</defs>
</svg>
