<svg width="26" height="23" viewBox="0 0 26 23" fill="none" xmlns="http://www.w3.org/2000/svg">
<path d="M24.5386 9.44373C24.8782 9.44373 25.1282 9.73161 25.0459 10.0298L21.8397 21.6683C21.6553 22.3386 20.9897 22.8095 20.2251 22.8095H4.89824C4.13471 22.8095 3.47013 22.3386 3.28368 21.6683L0.0774711 10.0298C-0.00481936 9.73161 0.244135 9.44373 0.584756 9.44373H24.5386ZM21.297 19.7241H3.82533L4.2972 21.439C4.33663 21.5648 4.41656 21.6744 4.52485 21.7512C4.63314 21.828 4.76387 21.8679 4.89719 21.8647H20.2261C20.5084 21.8647 20.7563 21.6899 20.8251 21.439L21.297 19.7251V19.7241ZM22.1459 16.6397H2.97535L3.54201 18.696H21.5803L22.1459 16.6397ZM22.9959 13.5553H2.12536L2.69202 15.6115H22.4292L22.9959 13.5553ZM23.8698 10.3886H1.2535L1.84307 12.5282H23.2792L23.8698 10.3896V10.3886ZM14.4564 0.924577L20.3022 6.2709C20.3524 6.3168 20.3929 6.37202 20.4215 6.43339C20.4501 6.49477 20.4662 6.5611 20.4688 6.6286C20.4714 6.69609 20.4605 6.76344 20.4367 6.82679C20.413 6.89013 20.3768 6.94824 20.3303 6.99779C20.2838 7.04734 20.2279 7.08737 20.1657 7.11558C20.1035 7.14379 20.0363 7.15964 19.9679 7.16222C19.8995 7.16479 19.8313 7.15405 19.7671 7.1306C19.7029 7.10715 19.6441 7.07146 19.5939 7.02555L13.7481 1.67923C13.4256 1.38367 13.0018 1.21941 12.5617 1.21941C12.1216 1.21941 11.6977 1.38367 11.3752 1.67923L5.52948 7.02555C5.47927 7.07146 5.4204 7.10715 5.35622 7.1306C5.29204 7.15405 5.22381 7.16479 5.15543 7.16222C5.08704 7.15964 5.01984 7.14379 4.95766 7.11558C4.89548 7.08737 4.83954 7.04734 4.79303 6.99779C4.74652 6.94824 4.71035 6.89013 4.6866 6.82679C4.66284 6.76344 4.65196 6.69609 4.65457 6.6286C4.65718 6.5611 4.67323 6.49477 4.70182 6.43339C4.7304 6.37202 4.77095 6.3168 4.82115 6.2709L10.6669 0.924577C11.182 0.452695 11.8589 0.190464 12.5617 0.190464C13.2645 0.190464 13.9413 0.452695 14.4564 0.924577Z" fill="#EE2E24"/>
</svg>
