<svg width="23" height="30" viewBox="0 0 23 30" fill="none" xmlns="http://www.w3.org/2000/svg">
<g clip-path="url(#clip0_1002_85)">
<path d="M12.2152 0C12.6898 0.0878906 13.1762 0.158203 13.6449 0.275391C14.9867 0.609375 16.1293 1.2832 17.0609 2.30859C17.1254 2.37891 17.1957 2.45508 17.2777 2.50781C18.3852 3.16992 18.9184 4.21289 19.0063 5.4375C19.1 6.76758 19.0531 8.10938 19.0824 9.44531C19.0883 9.66211 19.1234 9.89062 19.182 10.1016C19.4633 11.0684 18.7191 12.1113 17.6527 12.1875C17.4066 12.2051 17.3422 12.2812 17.2953 12.5215C16.9906 14.2559 16.1059 15.6094 14.6059 16.5527C14.2602 16.7695 14.2484 17.1211 14.5356 17.4082C15.1391 18 15.8363 18.4043 16.6566 18.6387C17.3773 18.8496 18.0688 19.1426 18.7836 19.3711C19.9555 19.752 20.6703 20.5312 20.8988 21.75C21.0277 22.4414 21.1742 23.127 21.309 23.8184C21.3734 24.1641 21.2504 24.3867 20.9867 24.4336C20.7231 24.4863 20.5238 24.3223 20.4535 23.9824C20.3012 23.25 20.1606 22.5117 20.0024 21.7734C19.9086 21.3281 19.7094 20.9297 19.2699 20.5898C19.0238 21.2988 18.7602 21.9668 18.5609 22.6582C18.2973 23.5723 18.1742 24.5039 18.1977 25.459C18.227 26.5488 18.2035 27.6445 18.2035 28.7402C18.2035 28.8574 18.2035 28.9688 18.2035 29.1035C19.0356 29.1035 19.8441 29.1387 20.6469 29.0918C21.1508 29.0625 21.3617 28.6875 21.268 28.1309C21.1625 27.5332 21.0336 26.9473 20.9164 26.3496C20.9047 26.2852 20.8871 26.2148 20.8813 26.1504C20.8402 25.8223 20.9574 25.6113 21.2152 25.5586C21.4731 25.5059 21.684 25.6758 21.7484 26.0098C21.8481 26.5078 21.9477 27.0059 22.0297 27.5039C22.0824 27.832 22.1586 28.1602 22.141 28.4883C22.0942 29.2852 21.6957 29.7305 20.9281 29.9355C20.8754 29.9531 20.8227 29.9766 20.7699 30C16.7445 30 12.725 30 8.69961 30C8.52383 29.8418 8.34805 29.6836 8.45938 29.4082C8.56485 29.1387 8.79336 29.1152 9.03946 29.1211C9.09805 29.1211 9.15664 29.1211 9.21524 29.1211C11.7934 29.1211 14.3715 29.1211 16.9496 29.1211C17.0668 29.1211 17.1781 29.1211 17.3129 29.1211C17.3188 28.998 17.3246 28.9043 17.3246 28.8105C17.3246 27.7148 17.3246 26.625 17.3246 25.5293C17.3246 25.1309 17.2953 24.7266 17.3422 24.3281C17.4945 22.9805 17.8461 21.6855 18.4145 20.4551C18.4496 20.3789 18.4731 20.2969 18.5082 20.2031C17.5297 19.8633 16.5805 19.5293 15.6254 19.1953C15.4789 19.6523 15.3559 20.0684 15.2094 20.4785C14.6527 22.0137 13.8734 23.4023 12.6488 24.5156C12.016 25.0898 11.1313 25.1367 10.4867 24.5977C10.2582 24.4043 10.0414 24.1875 9.83633 23.9648C8.85195 22.8867 8.20156 21.6152 7.72109 20.2559C7.60391 19.916 7.49844 19.5703 7.38125 19.207C6.42617 19.541 5.48281 19.875 4.51601 20.209C4.60391 20.4082 4.68008 20.5723 4.75039 20.7422C5.33633 22.1602 5.72891 23.6191 5.71133 25.166C5.69961 26.3789 5.71133 27.5859 5.71133 28.7988C5.71133 28.8984 5.71133 29.0039 5.71133 29.1211C6.05703 29.1211 6.36172 29.127 6.66055 29.1211C6.90664 29.1152 7.13516 29.1387 7.24648 29.4082C7.35781 29.6777 7.18203 29.8418 7.00625 30.0059C5.4418 30.0059 3.8832 30.0059 2.31875 30.0059C1.86172 29.8828 1.42226 29.7422 1.14101 29.3145C0.848043 28.8574 0.818746 28.3594 0.918356 27.8496C1.32851 25.7285 1.75039 23.6133 2.18984 21.5039C2.40078 20.4844 3.05117 19.8105 4.00625 19.4531C5.05508 19.0605 6.13906 18.7559 7.17031 18.3164C7.70352 18.0879 8.15469 17.666 8.61758 17.3027C8.79336 17.1621 8.67617 16.7109 8.45938 16.5762C7.33438 15.8789 6.51406 14.9238 6.05117 13.6875C5.89883 13.2891 5.80508 12.8672 5.72305 12.4512C5.68203 12.2578 5.61758 12.2051 5.43008 12.1875C4.59219 12.1289 3.96523 11.584 3.81289 10.7578C3.77773 10.5527 3.81875 10.3359 3.84219 10.125C3.87148 9.87891 3.93594 9.63281 3.9418 9.38086C3.97109 8.47266 3.9418 7.56445 4.01211 6.66211C4.08828 5.68945 4.4164 4.78125 4.88516 3.92578C5.01406 3.68555 5.26602 3.60938 5.48281 3.7207C5.70547 3.83203 5.78164 4.07812 5.64687 4.35352C5.30117 5.04492 4.99648 5.75977 4.92031 6.5332C4.84414 7.35352 4.83242 8.17969 4.79141 9.01172C5.08437 8.9707 5.31875 8.95312 5.54141 8.89453C5.61758 8.87695 5.69375 8.76562 5.72305 8.68359C6.01602 7.74609 6.70742 7.1543 7.66836 7.07812C7.92617 7.05469 8.1957 7.08398 8.45938 7.11328C10.4809 7.33008 12.3148 6.89062 13.9145 5.58984C14.4652 5.14453 14.9926 5.23242 15.3793 5.81836C15.7016 6.31055 16.1117 6.63281 16.7094 6.73242C17.2074 6.81445 17.3773 7.05469 17.3832 7.57031C17.3832 7.99805 17.3832 8.42578 17.3832 8.86523C17.6527 8.91797 17.9106 8.96484 18.1801 9.01172C18.1859 8.94141 18.1977 8.86523 18.1977 8.79492C18.1801 7.68164 18.2152 6.56836 18.1274 5.46094C18.0512 4.51172 17.6352 3.70312 16.7445 3.2168C16.6508 3.16992 16.5805 3.08203 16.5102 3C15.0512 1.37109 13.1938 0.767578 11.0609 0.908203C9.45547 1.01367 8.0668 1.64648 6.88906 2.74805C6.63711 2.98242 6.37344 2.98828 6.19766 2.78906C6.01016 2.57812 6.05117 2.34375 6.30312 2.09766C7.55703 0.902344 9.05117 0.240234 10.768 0.0585938C10.8441 0.0527344 10.9203 0.0234375 10.9906 0.00585938C11.3949 0 11.8051 0 12.2152 0ZM14.5648 6.19336C14.4535 6.27539 14.3773 6.32812 14.3012 6.39258C13.2582 7.21289 12.0863 7.7168 10.7797 7.92773C9.84219 8.08008 8.91641 8.03906 7.97891 7.95703C7.14102 7.88086 6.54336 8.43164 6.53164 9.26953C6.51992 10.0898 6.51992 10.9102 6.53164 11.7305C6.54922 12.7559 6.87734 13.6816 7.475 14.5137C8.61172 16.0957 10.7328 16.9688 12.8715 16.377C14.7172 15.8672 16.2992 14.127 16.4223 12.2344C16.5102 10.8926 16.4691 9.54492 16.4867 8.19727C16.4867 7.99219 16.4867 7.79297 16.4867 7.57617C15.6195 7.42969 15.0219 6.9375 14.5648 6.19336ZM3.76015 20.5957C3.34414 20.8711 3.17422 21.2168 3.08047 21.6035C2.93984 22.1895 2.80508 22.7812 2.68789 23.373C2.37148 24.9492 2.06093 26.5254 1.75625 28.1074C1.6332 28.7637 1.92031 29.0977 2.58242 29.1152C2.975 29.127 3.36172 29.1211 3.7543 29.1211C4.1 29.1211 4.4457 29.1211 4.81484 29.1211C4.81484 28.9746 4.81484 28.8691 4.81484 28.7637C4.81484 27.6328 4.79141 26.502 4.8207 25.3652C4.84414 24.4395 4.71523 23.5371 4.45742 22.6523C4.26406 21.9668 4.00625 21.2988 3.76015 20.5957ZM13.4633 17.168C12.1508 17.5547 10.8676 17.543 9.57266 17.1152C9.60196 17.373 10.7211 18.5391 11.5063 19.166C12.1684 18.5156 12.8422 17.8828 13.4633 17.168ZM14.6879 18.6855C14.4242 18.4629 14.1781 18.2578 13.9027 18.0234C13.3227 18.6504 12.7543 19.2598 12.1742 19.8926C12.3852 20.127 12.6547 20.4199 12.9184 20.7188C13.0766 20.9004 13.1879 20.8535 13.3051 20.6777C13.7563 20.0273 14.2133 19.3711 14.6879 18.6855ZM9.11563 18.0527C8.81094 18.2988 8.56485 18.498 8.29531 18.7148C8.76992 19.4004 9.23281 20.0742 9.71328 20.7363C9.7543 20.7891 9.94766 20.8184 9.98867 20.7773C10.2934 20.4727 10.5805 20.1445 10.8031 19.8984C10.2289 19.2656 9.68399 18.668 9.11563 18.0527ZM11.5063 22.459C11.2484 22.3828 11.1488 22.5176 11.0902 22.752C11.0258 23.0273 10.9262 23.291 10.8559 23.5605C10.8383 23.625 10.8324 23.7246 10.8734 23.7656C11.0844 24 11.3422 24.1465 11.6762 24.0762C12.0746 23.9941 12.227 23.7422 12.1098 23.3613C12.0512 23.1562 11.9691 22.957 11.9281 22.7461C11.8754 22.5 11.7582 22.3828 11.5063 22.459ZM5.63516 9.7793C5.23086 9.76758 4.93203 9.9082 4.75039 10.2305C4.60976 10.4707 4.6332 10.7227 4.80312 10.9453C5.0082 11.2148 5.27773 11.3555 5.63516 11.3027C5.63516 10.793 5.63516 10.3008 5.63516 9.7793ZM17.3832 11.3203C17.7875 11.3262 18.0805 11.1973 18.268 10.8691C18.4086 10.6289 18.3852 10.377 18.2211 10.1543C18.016 9.87891 17.7465 9.74414 17.3832 9.79102C17.3832 10.3008 17.3832 10.793 17.3832 11.3203ZM10.8324 21.1758C11.0609 21.5859 11.0609 21.5684 11.7348 21.5684C12.0102 21.5684 12.0453 21.3633 12.1684 21.1992C11.9398 20.9414 11.7172 20.7012 11.4887 20.4492C11.2602 20.707 11.0492 20.9414 10.8324 21.1758ZM12.9125 22.9746C13.2289 22.4707 13.4984 22.0371 13.7973 21.5625C13.5277 21.6328 13.3344 21.709 13.1352 21.7266C12.766 21.7617 12.6078 21.9727 12.7074 22.3184C12.766 22.5059 12.8246 22.6875 12.9125 22.9746ZM10.1117 22.9453C10.1996 22.6582 10.3168 22.4414 10.3168 22.2188C10.3168 22.0605 10.1996 21.8086 10.0707 21.7559C9.83047 21.6504 9.5375 21.6562 9.26211 21.6152C9.38516 21.832 9.5082 22.0547 9.64297 22.2656C9.77774 22.4766 9.92422 22.6816 10.1117 22.9453Z" fill="#EE2E24"/>
<path d="M15.9184 25.1836C16.5688 25.3477 16.7563 25.5879 16.7563 26.2383C16.7563 26.7246 16.7621 27.2168 16.7563 27.7031C16.7446 28.3125 16.4399 28.6172 15.8305 28.6231C15.1098 28.6289 14.3832 28.6348 13.6625 28.6289C13.0238 28.6231 12.7192 28.3125 12.7133 27.668C12.7074 27.1992 12.7133 26.7305 12.7133 26.2617C12.7133 25.582 12.8891 25.3594 13.5395 25.1895C13.5981 24.1758 14.0258 23.6543 14.7699 23.6836C15.5082 23.707 15.9184 24.2461 15.9184 25.1836ZM13.6039 27.7207C14.3774 27.7207 15.1098 27.7207 15.8481 27.7207C15.8481 27.1699 15.8481 26.6426 15.8481 26.0977C15.0922 26.0977 14.3539 26.0977 13.6039 26.0977C13.6039 26.6426 13.6039 27.1699 13.6039 27.7207ZM15.0746 25.0137C15.0805 24.9668 15.0863 24.9258 15.0981 24.8789C14.9926 24.7734 14.9047 24.6211 14.7817 24.5801C14.6059 24.5215 14.4594 24.6328 14.4301 24.832C14.4008 25.0254 14.4887 25.1836 14.6821 25.1836C14.811 25.1836 14.9399 25.0723 15.0746 25.0137Z" fill="#F99B2A"/>
</g>
<defs>
<clipPath id="clip0_1002_85">
<rect width="21.2812" height="30" fill="white" transform="translate(0.859741)"/>
</clipPath>
</defs>
</svg>
