<svg width="41" height="40" viewBox="0 0 41 40" fill="none" xmlns="http://www.w3.org/2000/svg">
<rect x="0.0616455" width="40" height="40" rx="20" fill="#EE2E24"/>
<g clip-path="url(#clip0_1002_94)">
<path d="M14.0832 30C14.0558 29.9805 14.0324 29.9648 14.005 29.9453C13.8488 29.8398 13.7785 29.6953 13.8214 29.5117C13.8644 29.3359 14.0128 29.2227 14.2121 29.2227C14.5832 29.2187 14.9542 29.2227 15.3253 29.2227C16.5675 29.2227 17.8097 29.2227 19.0558 29.2227C19.1261 29.2227 19.1925 29.2227 19.2941 29.2227C19.2433 29.1445 19.2121 29.0898 19.1769 29.0391C17.4425 26.5859 15.716 24.1289 13.9777 21.6758C11.8097 18.6211 12.3371 14.293 15.1769 11.8477C16.4035 10.793 17.8136 10.1797 19.4269 10.0352C19.4699 10.0313 19.5128 10.0156 19.5597 10.0039C19.8996 10.0039 20.2355 10.0039 20.5753 10.0039C20.966 10.0664 21.3605 10.1133 21.7433 10.1992C24.6027 10.832 26.8839 13.2422 27.3683 16.1484C27.7082 18.1992 27.2746 20.0742 26.0714 21.7734C25.6808 22.3242 25.2902 22.8789 24.8996 23.4297C24.798 23.5742 24.6613 23.6523 24.4816 23.6094C24.3097 23.5703 24.1925 23.457 24.1847 23.2891C24.1808 23.1758 24.2238 23.043 24.2863 22.9492C24.6574 22.4062 25.0363 21.8711 25.423 21.3359C28.2629 17.4023 26.1339 11.9063 21.3878 10.9102C17.7824 10.1563 14.1535 12.6133 13.5324 16.2227C13.2082 18.1016 13.6105 19.8086 14.7121 21.3633C16.4464 23.8086 18.173 26.2617 19.9035 28.7148C19.9464 28.7773 19.9933 28.8398 20.0558 28.9297C20.1066 28.8633 20.1496 28.8086 20.1886 28.7539C20.8332 27.8398 21.4777 26.9258 22.1261 26.0117C22.1691 25.9531 22.2082 25.8906 22.255 25.8398C22.3918 25.6953 22.591 25.6797 22.7511 25.7852C22.9074 25.8906 22.966 26.0898 22.8839 26.2695C22.8527 26.332 22.8097 26.3906 22.7707 26.4492C22.1652 27.3047 21.5636 28.1602 20.9582 29.0156C20.9191 29.0742 20.88 29.1328 20.8214 29.2187C20.9191 29.2187 20.9855 29.2187 21.0558 29.2187C22.6496 29.2187 24.2472 29.2187 25.841 29.2187C26.1261 29.2187 26.3019 29.3672 26.3058 29.6055C26.3097 29.8008 26.1769 29.9062 26.0324 30C22.0519 30 18.0675 30 14.0832 30Z" fill="white"/>
<path d="M16.5441 17.4219C16.5441 15.4844 18.1222 13.9062 20.0597 13.9062C21.9972 13.9062 23.5753 15.4844 23.5753 17.4219C23.5753 19.3594 21.9972 20.9375 20.0597 20.9375C18.1222 20.9375 16.5441 19.3594 16.5441 17.4219ZM20.0597 14.6875C18.5558 14.6875 17.3253 15.9102 17.3253 17.4141C17.3214 18.918 18.5441 20.1484 20.048 20.1523C21.5636 20.1562 22.7941 18.9297 22.7941 17.4141C22.7902 15.9141 21.5675 14.6875 20.0597 14.6875Z" fill="white"/>
<path d="M23.9659 24.6797C23.9698 24.8945 23.7901 25.0781 23.5753 25.0781C23.3682 25.0781 23.1924 24.9062 23.1885 24.6992C23.1846 24.4844 23.3643 24.3008 23.5792 24.3008C23.7823 24.2969 23.9581 24.4687 23.9659 24.6797Z" fill="white"/>
</g>
<defs>
<clipPath id="clip0_1002_94">
<rect width="14.8398" height="20" fill="white" transform="translate(12.6417 10)"/>
</clipPath>
</defs>
</svg>
