<svg width="52" height="17" viewBox="0 0 52 17" fill="none" xmlns="http://www.w3.org/2000/svg">
<path d="M8.61765 4.1L4.93365 12.5H3.74565L0.0496455 4.1H1.34565L4.36965 11L7.41765 4.1H8.61765ZM9.68883 4.1H10.8888V12.5H9.68883V4.1Z" fill="#EE2E24"/>
<line x1="18.3116" y1="0.5" x2="18.3116" y2="16.5" stroke="#9A9A9C" stroke-width="0.5"/>
<path d="M30.3216 11.948V12.5H24.5256V4.1H30.1416V4.652H25.1376V7.964H29.6136V8.504H25.1376V11.948H30.3216ZM39.393 4.1V12.5H38.889L33.165 5.204V12.5H32.553V4.1H33.069L38.781 11.396V4.1H39.393ZM48.3264 8.336H48.9144V11.48C48.5464 11.832 48.0984 12.1 47.5704 12.284C47.0504 12.468 46.4984 12.56 45.9144 12.56C45.0824 12.56 44.3304 12.376 43.6584 12.008C42.9944 11.64 42.4704 11.132 42.0864 10.484C41.7104 9.836 41.5224 9.108 41.5224 8.3C41.5224 7.492 41.7104 6.764 42.0864 6.116C42.4704 5.468 42.9944 4.96 43.6584 4.592C44.3304 4.224 45.0864 4.04 45.9264 4.04C46.5424 4.04 47.1064 4.14 47.6184 4.34C48.1384 4.532 48.5824 4.816 48.9504 5.192L48.5664 5.6C48.2144 5.248 47.8184 4.996 47.3784 4.844C46.9464 4.684 46.4664 4.604 45.9384 4.604C45.2184 4.604 44.5664 4.764 43.9824 5.084C43.4064 5.404 42.9544 5.848 42.6264 6.416C42.2984 6.976 42.1344 7.604 42.1344 8.3C42.1344 8.988 42.2984 9.616 42.6264 10.184C42.9624 10.744 43.4184 11.188 43.9944 11.516C44.5704 11.836 45.2184 11.996 45.9384 11.996C46.8984 11.996 47.6944 11.74 48.3264 11.228V8.336Z" fill="#333333"/>
</svg>
