<svg width="36" height="30" viewBox="0 0 36 30" fill="none" xmlns="http://www.w3.org/2000/svg">
<path fill-rule="evenodd" clip-rule="evenodd" d="M34.3408 28.0636L31.9503 13.6623C31.8877 13.274 31.6887 12.9208 31.389 12.6661C31.0893 12.4114 30.7086 12.2719 30.3153 12.2727H24.0726V13.38H30.3153C30.584 13.38 30.8144 13.5764 30.8594 13.8436L33.2512 28.2477C33.2638 28.3268 33.2591 28.4077 33.2376 28.4849C33.216 28.562 33.178 28.6336 33.1262 28.6947C33.0744 28.7558 33.01 28.805 32.9375 28.839C32.8649 28.8729 32.7859 28.8908 32.7058 28.8914H3.29352C3.21331 28.8913 3.13408 28.8737 3.06134 28.8399C2.98861 28.8061 2.9241 28.7569 2.87232 28.6956C2.82054 28.6344 2.78273 28.5626 2.7615 28.4852C2.74028 28.4079 2.73616 28.3268 2.74943 28.2477L5.14125 13.8436C5.16226 13.7144 5.2285 13.5968 5.32816 13.5119C5.42782 13.427 5.55441 13.3802 5.68534 13.38H11.9267V12.2727H5.6867C5.29384 12.2722 4.91365 12.4116 4.61428 12.666C4.31491 12.9204 4.11595 13.2731 4.05306 13.6609L1.65988 28.065C1.61915 28.3028 1.63087 28.5465 1.69422 28.7793C1.75757 29.0121 1.87102 29.2282 2.02663 29.4125C2.18224 29.5968 2.37625 29.7449 2.59509 29.8464C2.81393 29.9478 3.0523 30.0003 3.29352 30L32.7072 29.9986C32.9485 29.999 33.187 29.9465 33.406 29.8449C33.6249 29.7434 33.819 29.5951 33.9746 29.4107C34.1303 29.2262 34.2437 29.0099 34.3069 28.777C34.3702 28.5441 34.3817 28.3001 34.3408 28.0623V28.0636Z" fill="#EE2E24"/>
<path d="M18.0003 19.0909C18.1503 19.0909 18.2908 19.0227 18.3903 18.9041C18.6535 18.5905 24.8185 11.1914 24.8185 7.29955C24.8185 3.26864 21.7667 0 18.0003 0C14.2339 0 11.1821 3.26864 11.1821 7.29955C11.1821 11.1914 17.3471 18.5905 17.6103 18.9041C17.6577 18.9619 17.7171 19.0086 17.7845 19.0409C17.8519 19.0732 17.9256 19.0902 18.0003 19.0909ZM18.0003 1.12364C21.1844 1.12636 23.7658 3.89045 23.7685 7.29955C23.7685 9.97636 19.9135 15.3068 18.0003 17.6795C16.0871 15.3068 12.2321 9.97773 12.2321 7.29955C12.2349 3.89045 14.8162 1.12636 18.0003 1.12227V1.12364Z" fill="#EE2E24"/>
<path d="M22.0912 6.81818C22.0912 6.28096 21.9854 5.74899 21.7798 5.25266C21.5743 4.75633 21.2729 4.30535 20.893 3.92548C20.5132 3.5456 20.0622 3.24427 19.5659 3.03868C19.0695 2.83309 18.5376 2.72728 18.0003 2.72728C17.4631 2.72728 16.9311 2.83309 16.4348 3.03868C15.9385 3.24427 15.4875 3.5456 15.1076 3.92548C14.7277 4.30535 14.4264 4.75633 14.2208 5.25266C14.0152 5.74899 13.9094 6.28096 13.9094 6.81818C13.9094 7.90316 14.3404 8.9437 15.1076 9.71089C15.8748 10.4781 16.9154 10.9091 18.0003 10.9091C19.0853 10.9091 20.1258 10.4781 20.893 9.71089C21.6602 8.9437 22.0912 7.90316 22.0912 6.81818ZM15.0781 6.81818C15.0781 6.04315 15.3859 5.29986 15.934 4.75183C16.482 4.20379 17.2253 3.89591 18.0003 3.89591C18.7754 3.89591 19.5187 4.20379 20.0667 4.75183C20.6147 5.29986 20.9226 6.04315 20.9226 6.81818C20.9226 7.59322 20.6147 8.33651 20.0667 8.88454C19.5187 9.43258 18.7754 9.74046 18.0003 9.74046C17.2253 9.74046 16.482 9.43258 15.934 8.88454C15.3859 8.33651 15.0781 7.59322 15.0781 6.81818Z" fill="#F99B2A"/>
<path fill-rule="evenodd" clip-rule="evenodd" d="M18.0003 20.4545H20.7276V21.8182H18.0003V20.4545ZM13.9094 20.4545H15.2731V21.8182H13.9094V20.4545ZM22.0912 20.4545H23.4549V21.8182H22.0912V20.4545Z" fill="#9A9A9C"/>
</svg>
