<svg width="30" height="30" viewBox="0 0 30 30" fill="none" xmlns="http://www.w3.org/2000/svg">
<g clip-path="url(#clip0_1002_62)">
<path d="M30.0004 2.04377C30.0027 1.49598 29.7912 0.981703 29.4051 0.59557C29.019 0.209437 28.5037 -0.00161772 27.957 0.000374464C27.4108 0.00265962 26.8965 0.217289 26.5091 0.60471C26.345 0.768773 26.0466 1.12315 25.8833 1.31985C25.7119 1.52639 25.7402 1.83284 25.9468 2.00422C26.1533 2.17567 26.4597 2.14731 26.6312 1.94077C26.8869 1.6328 27.0982 1.39028 27.1964 1.29207C27.4013 1.08717 27.6728 0.973617 27.961 0.972386C27.9626 0.972386 27.9641 0.972386 27.9656 0.972386C28.2505 0.972386 28.5175 1.08254 28.7178 1.28287C28.9192 1.48426 29.0295 1.75303 29.0283 2.03967C29.0271 2.32778 28.9135 2.5993 28.7086 2.80432C28.5252 2.98778 27.8946 3.48799 26.9911 4.11911C26.4567 3.20539 25.4655 2.58987 24.3327 2.58987H17.2157C16.255 2.58987 15.3518 2.96399 14.6724 3.64327L0.44644 17.8694C0.158804 18.1571 0.000366211 18.5395 0.000366211 18.9463C0.000366211 19.353 0.158804 19.7355 0.44644 20.0231L9.97771 29.5544C10.2747 29.8513 10.6645 29.9997 11.0545 29.9997C11.4445 29.9997 11.8345 29.8512 12.1314 29.5544L26.3575 15.3283C27.0368 14.649 27.4109 13.7458 27.4109 12.7851V5.66809C27.4109 5.45803 27.3896 5.25295 27.3493 5.05461C28.3777 4.34698 29.1326 3.755 29.3959 3.49168C29.7835 3.10426 29.9981 2.59004 30.0004 2.04377ZM26.4389 12.7851C26.4389 13.4861 26.1658 14.1453 25.6702 14.6409L11.4441 28.8671C11.2294 29.0818 10.8798 29.0818 10.6651 28.8671L1.1338 19.3358C1.0298 19.2318 0.972437 19.0934 0.972437 18.9463C0.972437 18.7991 1.02974 18.6608 1.1338 18.5568L15.3598 4.33075C15.8556 3.83504 16.5147 3.56205 17.2157 3.56205H24.3327C25.1319 3.56205 25.8286 4.00953 26.1853 4.66707C25.6112 5.04723 24.9683 5.45147 24.2864 5.84897C24.2651 5.82565 24.2434 5.80256 24.2208 5.78C23.4249 4.98407 22.1298 4.98407 21.3339 5.78C20.5379 6.57594 20.5379 7.87098 21.3339 8.66692C21.7319 9.06489 22.2546 9.26381 22.7773 9.26381C23.3001 9.26381 23.8228 9.06489 24.2208 8.66692C24.7521 8.13565 24.9281 7.38219 24.7502 6.70303C25.3434 6.35774 25.913 6.00483 26.4386 5.6634C26.4387 5.66504 26.4388 5.66657 26.4388 5.66815V12.7851H26.4389ZM22.3433 7.44184C22.4286 7.61159 22.6 7.70955 22.7779 7.70955C22.8513 7.70955 22.9259 7.69285 22.996 7.65758C23.2808 7.51426 23.5647 7.3652 23.8458 7.2125C23.8486 7.48994 23.7449 7.76827 23.5336 7.97955C23.1167 8.39645 22.4384 8.39645 22.0214 7.97955C21.6045 7.5626 21.6045 6.88432 22.0214 6.46737C22.2299 6.25889 22.5037 6.15471 22.7775 6.15471C22.9943 6.15471 23.2105 6.22116 23.3949 6.35176C23.1198 6.50129 22.8406 6.64772 22.5591 6.78934C22.3192 6.90987 22.2226 7.20207 22.3433 7.44184Z" fill="#EE2E24"/>
<path d="M14.4825 9.90012C14.2141 9.90012 13.9965 10.1177 13.9965 10.3862V20.6505C13.9965 20.919 14.2141 21.1366 14.4825 21.1366C14.7509 21.1366 14.9685 20.919 14.9685 20.6505V10.3862C14.9685 10.1177 14.7509 9.90012 14.4825 9.90012Z" fill="#F99B2A"/>
<path d="M12.26 14.075C11.4641 13.2789 10.169 13.279 9.3732 14.0749C8.57726 14.8709 8.57726 16.1659 9.3732 16.9618C9.77123 17.3599 10.2939 17.5588 10.8167 17.5587C11.3393 17.5587 11.8621 17.3597 12.2601 16.9618C12.6457 16.5762 12.858 16.0637 12.858 15.5184C12.858 14.9731 12.6456 14.4605 12.26 14.075ZM11.5727 16.2744C11.1557 16.6914 10.4775 16.6913 10.0606 16.2744C9.64367 15.8575 9.64367 15.1792 10.0606 14.7622C10.269 14.5538 10.5428 14.4496 10.8167 14.4496C11.0905 14.4496 11.3643 14.5538 11.5727 14.7622C11.7747 14.9642 11.8859 15.2327 11.8859 15.5183C11.8859 15.804 11.7747 16.0725 11.5727 16.2744Z" fill="#F99B2A"/>
<path d="M19.5918 14.0749C18.7958 13.2789 17.5007 13.279 16.705 14.0749C15.909 14.8709 15.909 16.1659 16.705 16.9618C17.103 17.3598 17.6257 17.5587 18.1484 17.5587C18.6712 17.5587 19.1939 17.3598 19.5918 16.9618C20.3877 16.1659 20.3877 14.8709 19.5918 14.0749ZM18.9044 16.2744C18.4875 16.6914 17.8092 16.6913 17.3923 16.2744C16.9754 15.8575 16.9754 15.1792 17.3923 14.7622C17.6008 14.5538 17.8746 14.4496 18.1484 14.4496C18.4222 14.4496 18.696 14.5538 18.9045 14.7622C19.3214 15.1792 19.3214 15.8575 18.9044 16.2744Z" fill="#F99B2A"/>
</g>
<defs>
<clipPath id="clip0_1002_62">
<rect width="30" height="30" fill="white" transform="translate(0.000366211)"/>
</clipPath>
</defs>
</svg>
