<svg width="25" height="23" viewBox="0 0 25 23" fill="none" xmlns="http://www.w3.org/2000/svg">
<g clip-path="url(#clip0_1002_102)">
<path d="M12.0614 11.5297C5.73674 11.5297 0.591064 16.461 0.591064 22.5221C0.591064 22.7859 0.814503 23 1.08979 23C1.36508 23 1.58852 22.7859 1.58852 22.5221C1.58852 16.9876 6.28638 12.4855 12.0615 12.4855C17.8365 12.4855 22.5344 16.9876 22.5344 22.5221C22.5344 22.7859 22.7578 23 23.0331 23C23.3084 23 23.5318 22.7859 23.5318 22.5221C23.5318 16.46 18.3861 11.5297 12.0614 11.5297Z" fill="#EE2E24"/>
<path d="M12.0617 0C9.03754 0 6.57593 2.3581 6.57593 5.25724C6.57593 8.15637 9.03758 10.5145 12.0617 10.5145C15.0859 10.5145 17.5475 8.15637 17.5475 5.25724C17.5475 2.3581 15.0859 0 12.0617 0ZM12.0617 9.55862C9.58713 9.55862 7.57333 7.62873 7.57333 5.25724C7.57333 2.88574 9.58713 0.955849 12.0617 0.955849C14.5363 0.955849 16.5501 2.88574 16.5501 5.25724C16.5501 7.62873 14.5363 9.55862 12.0617 9.55862Z" fill="#EE2E24"/>
</g>
<defs>
<clipPath id="clip0_1002_102">
<rect width="24" height="23" fill="white" transform="translate(0.0616455)"/>
</clipPath>
</defs>
</svg>
