<svg width="41" height="37" viewBox="0 0 41 37" fill="none" xmlns="http://www.w3.org/2000/svg">
<path d="M24.9769 9.30088C25.3165 9.30088 25.5665 9.58876 25.4842 9.88692L22.278 21.5254C22.0936 22.1958 21.428 22.6667 20.6635 22.6667H5.33659C4.57306 22.6667 3.90849 22.1958 3.72203 21.5254L0.515826 9.88692C0.433535 9.58876 0.68249 9.30088 1.02311 9.30088H24.9769ZM21.7353 19.5812H4.26369L4.73556 21.2962C4.77498 21.4219 4.85491 21.5315 4.9632 21.6084C5.07149 21.6852 5.20223 21.725 5.33555 21.7218H20.6645C20.9468 21.7218 21.1947 21.547 21.2634 21.2962L21.7353 19.5823V19.5812ZM22.5843 16.4968H3.4137L3.98036 18.5531H22.0186L22.5843 16.4968ZM23.4342 13.4124H2.56371L3.13037 15.4687H22.8676L23.4342 13.4124ZM24.3082 10.2457H1.69185L2.28143 12.3853H23.7176L24.3082 10.2468V10.2457ZM14.8948 0.781721L20.7405 6.12804C20.7907 6.17395 20.8313 6.22916 20.8599 6.29054C20.8885 6.35191 20.9045 6.41824 20.9071 6.48574C20.9097 6.55324 20.8989 6.62058 20.8751 6.68393C20.8513 6.74728 20.8152 6.80538 20.7687 6.85494C20.7222 6.90449 20.6662 6.94451 20.604 6.97272C20.5419 7.00093 20.4746 7.01678 20.4063 7.01936C20.3379 7.02194 20.2696 7.0112 20.2055 6.98775C20.1413 6.9643 20.0824 6.9286 20.0322 6.8827L14.1865 1.53637C13.8639 1.24081 13.4401 1.07656 13 1.07656C12.5599 1.07656 12.1361 1.24081 11.8136 1.53637L5.96783 6.8827C5.91763 6.9286 5.85876 6.9643 5.79458 6.98775C5.7304 7.0112 5.66217 7.02194 5.59378 7.01936C5.5254 7.01678 5.4582 7.00093 5.39601 6.97272C5.33383 6.94451 5.27789 6.90449 5.23138 6.85494C5.18487 6.80538 5.14871 6.74728 5.12495 6.68393C5.10119 6.62058 5.09031 6.55324 5.09292 6.48574C5.09553 6.41824 5.11159 6.35191 5.14017 6.29054C5.16876 6.22916 5.20931 6.17395 5.25951 6.12804L11.1053 0.781721C11.6204 0.309838 12.2972 0.0476074 13 0.0476074C13.7028 0.0476074 14.3797 0.309838 14.8948 0.781721Z" fill="white"/>
<g filter="url(#filter0_d_883_17)">
<rect x="16.5" y="8.95239" width="14" height="14" rx="7" fill="white"/>
<path d="M23.503 18.5004C23.171 18.5004 22.875 18.4164 22.615 18.2484C22.359 18.0764 22.157 17.8284 22.009 17.5044C21.861 17.1804 21.787 16.7964 21.787 16.3524C21.787 15.9084 21.861 15.5244 22.009 15.2004C22.157 14.8764 22.359 14.6304 22.615 14.4624C22.875 14.2904 23.171 14.2044 23.503 14.2044C23.831 14.2044 24.123 14.2904 24.379 14.4624C24.639 14.6304 24.843 14.8764 24.991 15.2004C25.139 15.5244 25.213 15.9084 25.213 16.3524C25.213 16.7964 25.139 17.1804 24.991 17.5044C24.843 17.8284 24.639 18.0764 24.379 18.2484C24.123 18.4164 23.831 18.5004 23.503 18.5004ZM23.503 17.9664C23.839 17.9664 24.107 17.8284 24.307 17.5524C24.511 17.2764 24.613 16.8764 24.613 16.3524C24.613 15.8284 24.511 15.4284 24.307 15.1524C24.107 14.8764 23.839 14.7384 23.503 14.7384C23.163 14.7384 22.891 14.8764 22.687 15.1524C22.487 15.4284 22.387 15.8284 22.387 16.3524C22.387 16.8764 22.487 17.2764 22.687 17.5524C22.891 17.8284 23.163 17.9664 23.503 17.9664Z" fill="#EE2E24"/>
</g>
<defs>
<filter id="filter0_d_883_17" x="6.5" y="2.95239" width="34" height="34" filterUnits="userSpaceOnUse" color-interpolation-filters="sRGB">
<feFlood flood-opacity="0" result="BackgroundImageFix"/>
<feColorMatrix in="SourceAlpha" type="matrix" values="0 0 0 0 0 0 0 0 0 0 0 0 0 0 0 0 0 0 127 0" result="hardAlpha"/>
<feOffset dy="4"/>
<feGaussianBlur stdDeviation="5"/>
<feComposite in2="hardAlpha" operator="out"/>
<feColorMatrix type="matrix" values="0 0 0 0 0 0 0 0 0 0 0 0 0 0 0 0 0 0 0.15 0"/>
<feBlend mode="normal" in2="BackgroundImageFix" result="effect1_dropShadow_883_17"/>
<feBlend mode="normal" in="SourceGraphic" in2="effect1_dropShadow_883_17" result="shape"/>
</filter>
</defs>
</svg>
